<?xml version="1.0" encoding="UTF-8"?>
<!DOCTYPE svg PUBLIC "-//W3C//DTD SVG 1.1//EN" "http://www.w3.org/Graphics/SVG/1.1/DTD/svg11.dtd">
<!-- Creator: CorelDRAW X7 -->
<svg xmlns="http://www.w3.org/2000/svg" xml:space="preserve" width="118.662mm" height="67.8423mm" version="1.1" style="shape-rendering:geometricPrecision; text-rendering:geometricPrecision; image-rendering:optimizeQuality; fill-rule:evenodd; clip-rule:evenodd"
viewBox="0 0 11866 6784"
 xmlns:xlink="http://www.w3.org/1999/xlink">
 <defs>
  <style type="text/css">
   <![CDATA[
    .fil1 {fill:#FEFEFE;fill-rule:nonzero}
    .fil2 {fill:#E5F1E9;fill-rule:nonzero}
    .fil5 {fill:#BBDECB;fill-rule:nonzero}
    .fil6 {fill:#A4D3BB;fill-rule:nonzero}
    .fil4 {fill:#A2D3B9;fill-rule:nonzero}
    .fil0 {fill:#75C19C;fill-rule:nonzero}
    .fil3 {fill:#29383E;fill-rule:nonzero}
   ]]>
  </style>
 </defs>
 <g id="Layer_x0020_1">
  <metadata id="CorelCorpID_0Corel-Layer"/>
  <g id="_2994179230080">
   <path class="fil0" d="M11584 2598c-135,-486 -1035,43 -1035,43l236 -427c28,-43 53,-87 74,-135 119,-265 117,-547 0,-794 -32,-149 -130,-363 -399,-597 -462,-401 -1908,-688 -2543,-688l-2 0c-65,0 -122,3 -168,9 -495,68 449,276 449,276l-74 -1c-1441,-153 -2890,-172 -4329,-143 -360,8 -722,20 -1075,81 -102,17 -211,44 -271,126 -269,364 829,400 1002,393 -755,98 -1593,128 -2294,419 -98,41 -195,89 -269,164 -74,76 -122,182 -105,290 48,311 477,403 721,473 0,0 -1399,930 -1234,1402 68,195 169,401 358,603 -108,135 -202,276 -275,425 -45,92 -103,217 -53,322 254,537 4119,2377 7215,1852 823,-140 1642,-370 2363,-779 718,-406 1449,-1077 1630,-1923 5,-28 10,-55 13,-81 112,-390 178,-904 65,-1310z"/>
   <path class="fil1" d="M1096 1954c-175,-75 -319,-179 -315,-340l0 0c26,165 159,269 315,340z"/>
   <path class="fil2" d="M6347 6784c-2824,0 -5826,-1474 -6049,-1945 -14,-28 -19,-58 -19,-89 -1,-78 36,-158 67,-224 29,4 61,5 93,5 147,0 266,-16 266,-228l0 0c0,-212 -119,-655 -266,-655 -30,0 -58,19 -85,50 -34,-71 -62,-141 -86,-209 -9,-26 -14,-54 -14,-83 0,-490 1248,-1319 1248,-1319l0 0c-117,-35 -271,-75 -406,-133 -156,-71 -289,-175 -315,-340 3,-109 31,-214 105,-290 74,-75 171,-123 269,-164 701,-291 1539,-321 2294,-419l0 0c-12,0 -28,0 -47,0 -236,0 -997,-42 -997,-286 0,-32 13,-68 42,-107 60,-82 169,-109 271,-126 353,-61 715,-73 1075,-81 358,-7 717,-11 1076,-11 1083,0 2170,39 3253,154l74 1 0 0c0,0 -593,-131 -593,-219 0,-23 41,-43 144,-57 46,-6 103,-9 169,-9 635,0 2082,287 2544,688 269,234 367,448 399,597 59,124 88,257 88,392 0,134 -29,270 -88,402 -21,48 -46,92 -74,135l-236 427 0 0c0,0 423,-248 732,-248 142,0 260,52 303,205 41,148 58,311 58,477 0,288 -52,585 -123,833 -3,26 -8,53 -13,81 -12,55 -26,108 -42,162 -49,-170 -125,-323 -211,-323 -107,0 -199,233 -241,442l-677 -478c-91,-375 -256,-752 -445,-752 -54,0 -106,31 -155,83 0,0 -1,0 -1,-1 -65,-48 -145,-77 -223,-77 -14,0 -28,1 -42,3 -42,6 -84,22 -116,51 -22,21 -31,43 -36,66 -6,22 -9,44 -18,67 -5,11 -15,20 -25,22 -3,0 -5,1 -8,1 0,0 0,0 0,0 -16,0 -31,-8 -48,-17 -17,-8 -36,-18 -57,-18l-1 0c-17,0 -35,5 -52,13 -17,8 -32,19 -42,34 -9,15 -10,33 -13,49 -1,7 -3,14 -6,20 -2,6 -6,10 -11,13 -6,3 -11,4 -18,4 0,0 0,0 0,0 -9,0 -20,-3 -31,-6 -11,-3 -23,-6 -36,-6 0,0 0,0 0,0 -7,0 -13,1 -20,3 -12,5 -20,10 -26,17 -8,11 -10,22 -11,31 -1,10 -2,17 -6,22 -3,3 -6,6 -11,7 -4,2 -10,2 -17,2 0,0 0,0 0,0 0,0 0,0 -1,0 -14,0 -32,-3 -54,-5 -2,0 -4,0 -6,0 -24,0 -43,14 -58,26 -14,13 -22,25 -22,25l-10 14 829 0c-80,215 -136,471 -157,676 -118,-77 -258,-122 -409,-122 -410,0 -743,330 -743,737 0,99 20,194 56,280l-215 301 -589 -126 -299 256 11 13 292 -250 592 126 216 -301c31,71 74,136 125,193 21,-3 48,-6 80,-6 51,0 114,7 180,29 144,49 233,129 253,148l66 0c20,-19 109,-99 253,-148 66,-22 129,-29 180,-29 39,0 71,4 93,8 119,-131 191,-304 191,-494 0,-6 0,-12 0,-18 55,7 114,8 176,8 286,0 518,-31 518,-445l0 0c0,-134 -24,-317 -67,-502l667 472c-13,72 -21,140 -21,193l0 0c0,188 94,222 217,227 -322,509 -828,921 -1328,1203 -721,409 -1540,639 -2363,779 -380,64 -771,93 -1166,93zm-4801 -1738c51,0 113,6 180,29 143,49 233,129 252,147l67 0c19,-18 109,-98 252,-147 67,-23 129,-29 180,-29 40,0 72,4 94,7 118,-130 190,-303 190,-493l0 0c0,-407 -332,-737 -742,-737 -410,0 -742,330 -742,737l0 0c0,189 71,361 189,491 21,-3 48,-5 80,-5zm7999 -1580l-801 0c3,-4 7,-8 11,-11 12,-11 28,-20 44,-20 0,0 0,0 0,0l4 1c22,1 40,4 57,4 8,0 15,0 23,-3 7,-2 13,-6 18,-13 5,-6 8,-13 9,-20 1,-10 2,-19 4,-25 3,-7 8,-13 23,-19 4,-1 9,-2 14,-2 0,0 0,0 0,0 10,0 20,3 32,6 11,3 23,6 35,6 0,0 0,0 0,0 9,0 18,-1 26,-6 9,-5 15,-13 19,-21 5,-12 7,-25 9,-37 2,-11 4,-22 9,-29 7,-12 20,-22 34,-29 15,-7 31,-11 45,-11 0,0 0,0 0,0l1 0c16,0 32,8 49,17 17,8 35,18 56,18 3,0 7,0 11,-1 18,-3 31,-17 37,-33 11,-25 14,-48 19,-69 5,-21 12,-39 32,-57 29,-27 67,-42 106,-47 13,-2 27,-3 40,-3 0,0 0,0 0,0 74,0 151,28 213,74 0,0 0,0 0,0 -67,77 -128,195 -179,330z"/>
   <path class="fil3" d="M9089 2070l-2 -1 2 1 0 0 -2 -1 2 1c0,-1 4,-13 19,-26 14,-14 38,-30 79,-38 7,-2 14,-2 20,-2 39,0 80,19 112,39 15,10 29,20 38,27 5,4 8,7 11,9l3 2 1 1 8 8 5 -10c0,0 1,-2 3,-6 7,-13 26,-47 50,-77 12,-15 26,-30 39,-41 14,-11 28,-18 41,-20 5,-1 9,-1 13,-1 31,0 64,13 88,26 13,6 23,13 30,18 4,2 7,4 9,6l2 1 0 1 11 -14c0,0 -18,-14 -44,-27 -26,-14 -60,-28 -96,-28 -5,0 -10,0 -15,1 -20,3 -39,14 -56,29 -51,45 -90,124 -90,124l7 4 6 -6c0,-1 -22,-21 -55,-42 -33,-20 -77,-41 -121,-41 -8,0 -15,0 -23,2 -46,9 -73,27 -90,44 -16,16 -21,31 -22,32l17 5z"/>
   <path class="fil3" d="M8862 2402l-2 -1 2 1 0 0 -2 -1 2 1c0,-1 4,-13 18,-27 15,-13 39,-29 80,-37l0 0c7,-2 13,-2 20,-2 39,0 80,19 112,39 15,10 29,20 38,27 5,4 8,7 11,9l3 2 1 1 8 8 5 -10c0,0 1,-2 3,-6 7,-13 26,-47 50,-77 12,-16 26,-30 39,-41 14,-11 28,-19 41,-20 4,-1 9,-1 13,-1 31,0 63,13 88,26 12,6 23,13 30,18 4,2 7,4 8,5l3 2 0 1 11 -14c0,0 -18,-14 -44,-27 -26,-14 -61,-28 -96,-28 -5,0 -10,0 -15,1 -20,2 -39,14 -56,29 -51,45 -90,124 -90,124l7 4 6 -6c0,-1 -22,-21 -55,-42 -33,-20 -77,-41 -121,-41 -8,0 -16,0 -23,2l0 0c-46,9 -74,27 -90,44 -16,16 -21,30 -22,31l17 6z"/>
   <path class="fil3" d="M9691 2404l-3 -1 3 1 0 0 -3 -1 3 1c0,0 4,-9 14,-19 11,-11 29,-22 60,-29 5,-1 10,-1 15,-1 28,0 60,14 83,29 12,8 22,15 29,21 4,3 7,5 9,7l2 2 0 0 9 8 5 -10c0,0 1,-2 2,-5 5,-10 20,-35 38,-58 9,-12 19,-23 30,-31 10,-8 20,-14 30,-15 3,0 6,0 9,0 23,0 48,9 66,19 10,5 17,10 23,13 3,2 5,4 6,5l2 1 0 0 11 -13c0,0 -14,-11 -34,-21 -20,-11 -46,-21 -74,-21 -4,0 -8,0 -11,0 -16,2 -31,11 -44,23 -39,34 -69,95 -69,95l7 4 6 -6c0,-1 -17,-16 -43,-32 -25,-16 -58,-32 -92,-32 -6,0 -13,0 -19,2 -34,7 -56,21 -69,34 -13,12 -17,24 -17,24l16 6z"/>
   <path class="fil3" d="M10662 2756l-5 -2 5 2 0 0 -5 -2 5 2 0 -1c2,-4 11,-22 46,-29 3,0 6,-1 9,-1 18,0 38,10 53,19 8,5 15,10 19,14 2,1 4,3 5,4l2 1 0 1 9 7 5 -10c0,0 0,-1 1,-3 3,-6 13,-23 25,-38 5,-7 12,-14 18,-19 7,-6 13,-9 19,-9 2,-1 4,-1 6,-1 14,0 30,6 42,13 6,3 11,6 14,8 2,1 3,2 4,3l1 1 1 0 10 -13c0,-1 -9,-8 -22,-15 -14,-7 -32,-14 -50,-14 -3,0 -6,0 -8,1 -12,1 -22,7 -31,15 -26,23 -45,63 -46,63l8 4 6 -6c-1,0 -12,-11 -29,-21 -16,-11 -39,-22 -62,-22 -4,0 -8,1 -13,2 -23,4 -38,14 -47,23 -8,8 -11,16 -11,17l16 6z"/>
   <path class="fil3" d="M6002 1975l9 -2c-42,-189 -164,-354 -324,-473 -159,-119 -355,-191 -548,-191 -34,0 -69,3 -103,7 -103,15 -203,54 -281,125 -54,49 -74,103 -88,157 -13,55 -20,111 -45,169 -14,31 -40,58 -71,63 -8,2 -15,2 -23,2 -42,0 -83,-20 -125,-42 -42,-21 -86,-44 -136,-44l-2 0c-40,0 -84,11 -124,30 -41,19 -77,47 -99,82 -22,33 -24,77 -31,116 -4,19 -8,38 -16,53 -7,16 -18,29 -34,38 -16,9 -32,13 -50,13 -25,0 -53,-8 -81,-15 -28,-8 -57,-16 -87,-16 -15,0 -30,2 -45,8 -28,10 -47,23 -59,38 -19,23 -22,48 -25,71 -3,24 -5,44 -18,60 -8,11 -19,18 -32,22 -14,5 -30,7 -48,7 -37,0 -83,-8 -138,-13 -4,0 -8,0 -12,0 -55,0 -102,31 -136,61 -34,30 -55,60 -55,61l-9 13 3419 0 2 -4c1,-2 5,-8 5,-22 -1,-31 -15,-97 -103,-232 -27,-42 -57,-69 -87,-86 -31,-17 -63,-23 -94,-23 -43,0 -84,12 -121,23 -36,12 -67,23 -87,23 -18,0 -32,-5 -44,-12 -17,-11 -29,-28 -36,-43 -3,-7 -6,-14 -7,-19 -1,-2 -2,-4 -2,-5l0 -2 0 0 -9 2 -8 2c0,0 5,23 21,47 8,11 18,23 32,32 14,9 32,15 53,15 26,0 57,-12 93,-23 35,-12 75,-23 115,-23 29,0 57,5 85,21 28,15 56,40 82,80 87,134 100,198 99,223 0,5 0,9 -1,11l0 2 0 0 4 3 -4 -3 0 0 4 3 -4 -3 7 4 0 -8 -3398 0 0 8 7 5 1 -1c4,-6 26,-35 57,-62 32,-27 74,-51 119,-51 4,0 7,0 11,0 53,5 100,13 139,13 20,0 37,-2 53,-7 16,-6 30,-15 41,-28 11,-14 15,-30 18,-45 4,-24 4,-47 13,-67 8,-20 24,-38 63,-52 13,-5 26,-7 39,-7 27,0 54,8 83,15 28,8 56,16 85,16 20,0 40,-4 59,-15 19,-11 32,-27 41,-45 13,-27 17,-59 21,-88 5,-30 11,-59 24,-80 20,-31 54,-57 92,-76 38,-18 80,-28 117,-28l2 0c44,0 86,21 128,42 42,22 85,44 133,44 9,0 17,0 26,-2 39,-7 68,-38 84,-73 26,-61 33,-118 46,-172 13,-53 32,-102 82,-148 75,-69 172,-106 272,-121 34,-4 68,-7 101,-7 188,0 382,71 538,188 157,116 276,279 317,463l8 -2z"/>
   <path class="fil3" d="M6949 1323l8 -1c-17,-77 -67,-145 -132,-193 -64,-48 -144,-78 -222,-78l0 0c-15,0 -29,1 -43,3l0 0c-42,6 -83,22 -115,52 -23,20 -32,43 -37,65 -5,23 -8,45 -18,67l0 1 0 -1c-5,11 -14,21 -25,22l0 0c-2,1 -5,1 -8,1 -15,0 -31,-7 -48,-16 -17,-9 -35,-18 -57,-19l0 0c-17,0 -36,5 -52,13 -17,8 -32,20 -42,35l0 0c-10,15 -11,33 -13,48 -2,8 -3,15 -6,20 -3,6 -6,10 -12,13 -5,3 -11,5 -17,5 -10,0 -20,-3 -31,-6 -12,-3 -24,-7 -37,-7 -6,0 -13,1 -20,4 -11,4 -20,10 -25,17 -9,10 -10,22 -11,31 -2,9 -3,16 -7,21l0 0c-3,4 -6,6 -10,8 -5,1 -11,2 -18,2 -14,0 -33,-3 -55,-5 -1,0 -3,0 -5,0 -24,0 -44,13 -58,26 -14,12 -23,24 -23,25l-9 13 1384 0 3 -4c1,-1 2,-5 2,-12 0,-14 -6,-41 -42,-95 -11,-18 -23,-29 -37,-37 -13,-7 -27,-10 -40,-9 -18,0 -35,5 -50,9 -14,5 -27,9 -33,9 -6,0 -11,-1 -15,-4 -6,-4 -10,-10 -13,-15 -1,-3 -2,-5 -2,-7l-1 -2 0 0 0 0 -2 0 2 0 0 0 -2 0 2 0 -7 1 7 -1 0 0 -7 1 7 -1 -8 1 8 -1 0 0 -8 1 8 -1 -8 1 8 -1 0 0 -8 1 8 -1 0 0 0 0 -8 1 -9 2 0 0c1,1 3,11 9,21 4,5 9,10 15,15 6,4 15,6 24,6 12,0 24,-5 39,-9 14,-5 29,-9 44,-9 11,0 22,2 32,7 10,6 21,16 31,31 35,53 39,78 39,86 0,2 0,3 0,4l0 0 4 1 -4 -2 0 1 4 1 -4 -2 7 5 0 -9 -1363 0 0 9 7 4 0 0c2,-2 10,-13 23,-24 12,-10 28,-19 44,-19l4 0c21,2 40,5 56,5 8,0 16,-1 23,-3 7,-3 14,-7 19,-13l0 -1 0 1c5,-7 7,-14 8,-20 2,-10 2,-19 5,-26 3,-7 8,-13 22,-18 5,-2 9,-2 14,-2 10,-1 21,2 32,5 11,3 23,7 36,7 8,0 17,-2 26,-7 9,-5 15,-12 18,-20 6,-12 8,-25 9,-37 2,-12 5,-23 9,-30 8,-11 20,-21 35,-29 15,-7 31,-10 45,-10l0 0c17,0 33,7 50,16 16,9 34,18 55,18 4,0 8,0 11,-1l0 0c18,-3 31,-17 38,-32l0 0c11,-25 13,-49 19,-70 5,-21 12,-39 31,-57 29,-26 67,-41 107,-47 13,-2 26,-3 40,-3 74,0 150,28 212,75 62,46 109,110 125,182l9 -2 -9 2 9 -2z"/>
   <path class="fil3" d="M9857 3317l8 -2c-17,-77 -66,-144 -131,-193 -65,-48 -145,-77 -223,-77 -14,0 -28,1 -42,3 -42,6 -84,22 -116,51 -22,21 -31,43 -36,66 -6,22 -9,44 -18,67 -5,11 -15,20 -25,22 -3,0 -5,1 -8,1 -16,0 -31,-8 -48,-17 -17,-8 -36,-18 -57,-18l-1 0c-17,0 -35,5 -52,13 -17,8 -32,19 -42,34 -9,15 -10,33 -13,49 -1,7 -3,14 -6,20 -2,6 -6,10 -11,13 -6,3 -11,4 -18,4 -9,0 -20,-3 -31,-6 -11,-3 -23,-6 -36,-6 -7,0 -13,1 -20,3 -12,5 -20,10 -26,17 -8,11 -10,22 -11,31 -1,10 -2,17 -6,22 -3,3 -6,6 -11,7 -4,2 -10,2 -17,2 -14,0 -33,-3 -55,-5 -2,0 -4,0 -6,0 -24,0 -43,14 -58,26 -14,13 -22,25 -22,25l-10 14 1385 0 2 -4c1,-2 3,-6 3,-12 0,-14 -7,-41 -42,-96 -11,-17 -24,-29 -37,-36 -13,-7 -27,-10 -40,-10 -18,0 -36,5 -50,10 -15,5 -27,9 -34,9 -6,0 -10,-2 -14,-4 -6,-4 -10,-10 -13,-16 -1,-2 -2,-5 -3,-6l0 -2 -1 -1 0 0 0 0 0 0 0 0 0 0 -8 2 8 -2 -8 2 -8 2 8 -2 -8 2 0 0 8 -2 -8 2c0,1 2,10 9,21 3,5 8,10 14,14 7,4 15,7 24,7 12,0 25,-5 39,-10 14,-4 30,-9 45,-9 11,0 21,2 32,8 10,6 20,15 30,31 35,53 40,78 40,86 0,2 -1,3 -1,3l0 1 4 1 -3 -2 -1 1 4 1 -3 -2 7 4 0 -8 -1363 0 0 8 7 5 0 0c2,-3 10,-14 22,-24 12,-11 28,-20 44,-20l4 1c22,1 40,4 57,4 8,0 15,0 23,-3 7,-2 13,-6 18,-13 5,-6 8,-13 9,-20 1,-10 2,-19 4,-25 3,-7 8,-13 23,-19 4,-1 9,-2 14,-2 9,0 20,3 32,6 11,3 23,6 35,6 9,0 18,-1 26,-6 9,-5 15,-13 19,-21 5,-12 7,-25 9,-37 2,-11 4,-22 9,-29 7,-12 20,-22 34,-29 15,-7 31,-11 45,-11l1 0c16,0 32,8 49,17 17,8 35,18 56,18 3,0 7,0 11,-1 18,-3 31,-17 37,-33 11,-25 14,-48 19,-69 5,-21 12,-39 32,-57 29,-27 67,-42 106,-47 13,-2 27,-3 40,-3 74,0 151,28 213,74 62,46 109,111 125,183l0 0 0 0 8 -2z"/>
   <path class="fil3" d="M7670 3139l9 -2c-26,-117 -102,-219 -200,-292 -99,-74 -220,-118 -339,-118 -21,0 -43,1 -64,4 -64,9 -126,33 -175,78 -33,30 -46,64 -54,98 -9,34 -13,68 -28,103 -8,18 -23,34 -41,37 -5,1 -9,1 -13,1 -25,0 -50,-12 -76,-25 -26,-14 -53,-28 -85,-28l-1 0c-25,0 -53,7 -78,19 -25,12 -48,29 -62,51 -14,22 -15,49 -20,73 -2,12 -5,23 -9,32 -4,9 -10,16 -20,22 -9,5 -18,7 -29,7 -15,0 -31,-4 -49,-9 -17,-5 -35,-10 -54,-10 -9,0 -19,2 -29,5 -17,6 -29,15 -37,25 -13,14 -15,31 -16,45 -2,15 -4,26 -11,35 -5,6 -11,10 -18,13 -8,2 -17,3 -28,3 -23,0 -51,-4 -85,-7 -2,0 -5,0 -8,0 -35,0 -64,19 -86,38 -21,19 -34,37 -34,38l-9 13 2109 0 3 -4c1,-1 3,-6 3,-15 0,-20 -10,-61 -64,-144 -17,-26 -35,-44 -55,-54 -19,-11 -39,-15 -59,-15 -27,0 -53,7 -75,15 -22,7 -41,14 -53,14 -10,0 -18,-3 -25,-8 -10,-6 -16,-16 -21,-25 -2,-4 -3,-8 -4,-11l-1 -3 0 -1 0 0 0 0 0 0 0 0 -1 -1 -8 3 9 -2 -9 2 -8 3 0 0c1,3 5,18 15,32 10,14 28,28 53,28 17,0 36,-8 58,-15 22,-7 46,-14 70,-14 17,0 34,3 51,13 17,9 33,24 49,48 53,82 61,121 61,135 0,3 -1,5 -1,6l0 1 3 1 -3 -2 0 1 3 1 -3 -2 7 5 0 -9 -2088 0 0 9 7 5 1 -1c2,-4 15,-21 35,-37 19,-17 44,-31 70,-31 2,0 5,0 7,0 33,3 61,8 86,8 12,0 23,-2 33,-5 10,-3 20,-9 27,-18 7,-9 10,-20 12,-29 2,-15 2,-29 7,-41 5,-11 14,-21 37,-30 7,-3 15,-4 23,-4 16,0 33,5 50,9 17,5 35,10 53,10 13,0 26,-2 38,-9 12,-8 21,-18 26,-30 9,-17 11,-36 14,-55 3,-18 6,-35 14,-47 12,-19 32,-35 55,-46 23,-11 49,-17 71,-17l1 0c26,0 51,13 77,26 26,13 53,27 84,27 5,0 10,0 16,-1 25,-5 44,-25 54,-47 16,-38 20,-74 28,-106 8,-32 20,-62 50,-90 45,-41 104,-64 165,-73 21,-3 41,-4 62,-4 115,0 233,43 329,114 95,72 168,171 193,283l0 0 0 1 8 -3z"/>
   <path class="fil3" d="M8161 6010c0,0 -124,-130 -89,-126 35,4 100,101 100,101 0,0 1,-213 32,-167 31,47 -7,168 -7,168 0,0 89,-139 89,-116 -1,70 -69,125 -69,125 0,0 143,-106 120,-63 -24,43 -115,83 -115,83 0,0 164,-33 106,-10 -58,24 -114,40 -114,40l-45 0c0,0 -156,-78 -97,-66 58,11 89,31 89,31z"/>
   <path class="fil3" d="M9810 5605c0,0 -97,-101 -70,-98 27,3 78,79 78,79 0,0 1,-166 25,-130 24,37 -5,130 -5,130 0,0 69,-108 69,-90 -1,55 -54,97 -54,97 0,0 111,-82 93,-49 -18,34 -89,65 -89,65 0,0 128,-26 82,-7 -45,18 -88,30 -88,30l-36 0c0,0 -120,-60 -75,-51 45,9 70,24 70,24z"/>
   <path class="fil3" d="M11340 5244c0,0 -97,-101 -70,-98 27,3 78,79 78,79 0,0 1,-166 25,-130 25,36 -5,130 -5,130 0,0 69,-108 69,-90 0,55 -53,97 -53,97 0,0 111,-82 92,-49 -18,34 -89,65 -89,65 0,0 128,-26 83,-7 -46,18 -89,30 -89,30l-35 0c0,0 -121,-60 -76,-51 46,9 70,24 70,24z"/>
   <path class="fil0" d="M9390 6069c0,0 -116,-121 -84,-117 33,4 94,94 94,94 0,0 1,-199 30,-155 29,43 -7,155 -7,155 0,0 83,-129 83,-108 -1,66 -64,117 -64,117 0,0 132,-99 111,-59 -22,40 -107,78 -107,78 0,0 153,-31 99,-9 -55,21 -106,36 -106,36l-43 0c0,0 -144,-72 -90,-61 55,11 84,29 84,29z"/>
   <polygon class="fil3" points="7100,5541 6068,4384 5844,4564 4721,2872 3742,3090 3449,2544 3165,2529 2622,1460 1811,2200 1421,2061 0,3510 12,3522 12,3522 1426,2081 1815,2220 2617,1487 3154,2546 3439,2561 3733,3110 4713,2891 5840,4589 6066,4408 7087,5553 "/>
   <polygon class="fil3" points="7293,5757 7185,5637 7172,5648 7280,5769 "/>
   <polygon class="fil3" points="3209,3232 3124,3255 3128,3272 3213,3249 "/>
   <polygon class="fil3" points="3733,3090 3304,3207 3309,3223 3737,3107 "/>
   <polygon class="fil3" points="2126,2611 2367,2254 2351,2132 2625,1575 2610,1568 2333,2129 2350,2250 2111,2601 "/>
   <polygon class="fil3" points="2025,2759 2085,2670 2071,2660 2011,2749 "/>
   <polygon class="fil3" points="1639,2959 1250,3486 1264,3496 1653,2969 "/>
   <polygon class="fil3" points="1435,2134 1533,2354 1750,2531 1726,2840 1675,2910 1689,2920 1743,2846 1768,2524 1547,2344 1451,2127 "/>
   <polygon class="fil3" points="3438,2546 3243,2732 3176,2620 3161,2629 3240,2760 3450,2559 "/>
   <polygon class="fil3" points="11637,4711 10055,3595 9575,4272 8985,4075 8070,5355 7481,5229 7182,5485 7193,5498 7485,5248 8077,5374 8991,4095 9582,4292 10059,3619 11627,4725 11637,4711 "/>
   <polygon class="fil3" points="10048,3605 9863,4418 9652,4326 9645,4341 9876,4442 10065,3609 "/>
   <polygon class="fil3" points="8985,4131 8525,5469 8215,5416 8212,5432 8536,5489 9001,4136 "/>
   <path class="fil0" d="M8972 4037c-410,0 -743,330 -743,737 0,189 72,361 189,492 54,-8 152,-14 260,23 144,49 233,129 253,148l66 0c20,-19 109,-99 253,-148 118,-40 223,-30 273,-21 119,-131 191,-304 191,-494 0,-407 -332,-737 -742,-737z"/>
   <path class="fil3" d="M9317 5070c-23,11 -45,22 -68,34 -22,13 -44,26 -65,40 -7,6 -15,11 -22,17l121 -227 -167 262c-17,13 -33,27 -49,41 -27,24 -54,48 -79,72l-9 -245 175 -266 -176 228 -8 -220 -12 246 0 1 0 0 -13 246c-22,-21 -45,-42 -68,-62 -18,-16 -37,-31 -56,-46l-158 -270 116 238c-7,-5 -13,-10 -20,-15 -21,-14 -42,-27 -65,-40 -22,-12 -45,-23 -68,-34 -45,-22 -92,-42 -140,-59 47,19 92,43 135,67 22,12 44,25 65,38 21,13 41,27 60,43 39,30 74,64 109,98 30,30 60,61 88,92l-16 313 73 0 -10 -300c31,-36 64,-71 98,-105 35,-34 71,-68 109,-98 20,-16 40,-30 61,-43 21,-13 42,-26 64,-38 44,-24 89,-48 136,-67 -49,17 -95,37 -141,59z"/>
   <path class="fil0" d="M3273 5049c0,211 -119,227 -265,227 -147,0 -266,-16 -266,-227 0,-212 119,-655 266,-655 146,0 265,443 265,655z"/>
   <polygon class="fil3" points="3097,5145 3054,5148 3168,5071 3086,5112 3097,5080 3060,5125 3016,5147 3013,4995 3036,4939 3012,4971 3010,4882 3083,4785 3010,4860 3005,4666 3001,4791 2955,4739 3001,4814 2994,5011 2954,4985 2917,4919 2932,4970 2859,4923 2994,5039 2973,5685 3029,5685 3017,5172 3030,5164 "/>
   <path class="fil0" d="M10408 4319c0,414 -232,445 -518,445 -286,0 -519,-31 -519,-445 0,-414 233,-1279 519,-1279 286,0 518,865 518,1279z"/>
   <path class="fil4" d="M9890 4764c-62,0 -121,-1 -176,-8 -200,-23 -343,-112 -343,-437 0,-414 233,-1279 519,-1279 286,0 518,865 518,1279 0,414 -232,445 -518,445z"/>
   <polygon class="fil3" points="10065,4507 9979,4513 10203,4362 10043,4443 10065,4380 9992,4469 9907,4512 9900,4215 9945,4105 9899,4167 9895,3994 10037,3805 9894,3951 9885,3572 9878,3815 9786,3713 9876,3861 9864,4246 9785,4194 9712,4066 9741,4166 9599,4073 9862,4300 9822,5562 9931,5562 9908,4561 9933,4544 "/>
   <path class="fil0" d="M11518 4482c0,212 -119,228 -265,228 -147,0 -266,-16 -266,-228 0,-212 119,-654 266,-654 146,0 265,442 265,654z"/>
   <path class="fil5" d="M11253 4710c-17,0 -33,0 -49,-1 -123,-5 -217,-39 -217,-227 0,-212 119,-654 266,-654 146,0 265,442 265,654 0,55 -8,97 -23,129 -2,5 -5,10 -8,15 -44,76 -133,84 -234,84z"/>
   <polygon class="fil3" points="11342,4578 11298,4581 11413,4504 11331,4545 11342,4513 11305,4559 11261,4581 11258,4429 11281,4372 11257,4404 11255,4316 11328,4219 11255,4294 11250,4100 11246,4224 11200,4172 11245,4248 11239,4445 11199,4418 11162,4353 11176,4404 11104,4356 11238,4472 11218,5118 11273,5118 11262,4606 11274,4597 "/>
   <path class="fil0" d="M705 4303c0,212 -119,228 -266,228 -146,0 -265,-16 -265,-228 0,-212 119,-655 265,-655 147,0 266,443 266,655z"/>
   <path class="fil5" d="M439 4531c-146,0 -265,-16 -265,-228 0,-212 119,-655 265,-655 147,0 266,443 266,655 0,212 -119,228 -266,228z"/>
   <polygon class="fil3" points="529,4399 485,4402 599,4325 518,4366 529,4334 492,4380 448,4402 444,4250 468,4193 444,4225 442,4137 515,4040 441,4115 437,3921 433,4045 386,3993 432,4069 426,4266 385,4239 348,4173 363,4225 291,4177 425,4293 405,4939 460,4939 448,4427 461,4418 "/>
   <path class="fil0" d="M2019 3823c-410,0 -742,330 -742,737 0,189 71,361 189,491 54,-8 152,-13 260,24 143,49 233,129 252,147l67 0c19,-18 109,-98 252,-147 118,-40 224,-30 274,-22 118,-130 190,-303 190,-493 0,-407 -332,-737 -742,-737z"/>
   <path class="fil6" d="M2045 5222l-67 0c-19,-18 -109,-98 -252,-147 -67,-23 -129,-29 -180,-29 -32,0 -59,2 -80,5 -118,-130 -189,-302 -189,-491 0,-407 332,-737 742,-737 410,0 742,330 742,737 0,190 -72,363 -190,493 -22,-3 -54,-7 -94,-7 -51,0 -113,6 -180,29 -143,49 -233,129 -252,147z"/>
   <path class="fil3" d="M2365 4856c-23,11 -46,22 -68,34 -23,12 -44,25 -65,40 -8,5 -15,11 -23,16l122 -226 -167 261c-17,14 -34,28 -50,42 -27,23 -53,47 -79,72l-8 -246 174 -266 -176 229 -7 -220 -13 246 0 0 0 0 -12 247c-23,-21 -45,-42 -68,-62 -19,-16 -37,-32 -56,-47l-158 -269 116 237c-7,-5 -14,-9 -20,-14 -21,-15 -43,-28 -65,-40 -23,-12 -45,-23 -68,-34 -46,-22 -92,-43 -141,-60 47,20 92,43 136,68 22,12 43,25 64,38 21,13 41,27 61,42 38,31 74,64 109,98 30,30 59,61 87,93l-16 313 73 0 -10 -300c31,-36 65,-72 99,-106 35,-34 70,-67 109,-98 19,-15 39,-29 60,-42 21,-13 43,-26 65,-38 44,-25 88,-48 135,-68 -48,17 -95,38 -140,60z"/>
   <path class="fil3" d="M3634 4919l446 0 0 -1236 -446 1236zm446 1104l0 -680 -884 0 0 -435 758 -1796 647 0 0 1807 280 0 0 424 -280 0 0 680 -521 0z"/>
   <path class="fil3" d="M5923 5535c65,0 112,-20 141,-61 28,-40 47,-89 57,-145 10,-57 14,-109 14,-157l0 -1283c0,-52 -4,-107 -12,-165 -9,-57 -27,-107 -56,-149 -29,-42 -77,-63 -144,-63 -67,0 -115,21 -145,63 -30,42 -49,92 -58,149 -8,58 -12,113 -12,165l0 1283c0,48 5,100 14,157 10,56 30,105 61,145 31,41 78,61 140,61zm0 489c-175,0 -319,-36 -434,-108 -115,-72 -202,-170 -259,-296 -58,-126 -86,-272 -86,-437l0 -1304c0,-170 27,-320 82,-448 55,-128 140,-228 255,-300 115,-72 263,-108 442,-108 178,0 323,36 437,108 114,72 198,172 253,300 55,128 83,278 83,448l0 1304c0,165 -29,311 -86,437 -58,126 -144,224 -259,296 -115,72 -258,108 -428,108z"/>
   <path class="fil3" d="M7436 4919l446 0 0 -1236 -446 1236zm446 1104l0 -680 -884 0 0 -435 758 -1796 647 0 0 1807 280 0 0 424 -280 0 0 680 -521 0z"/>
   <path class="fil3" d="M11609 4757c-1176,652 -3256,1086 -5626,1086 -1310,0 -2532,-132 -3562,-361 -1029,-229 -1866,-554 -2406,-938l-10 13c543,387 1382,712 2413,941 1030,230 2253,362 3565,362 2372,0 4454,-433 5634,-1088l-8 -15z"/>
   <path class="fil3" d="M11857 4608c-51,33 -103,66 -158,98l9 15c55,-32 108,-65 158,-99l-9 -14z"/>
   <path class="fil0" d="M11142 4448c0,432 -243,465 -542,465 -300,0 -542,-33 -542,-465 0,-433 242,-1338 542,-1338 299,0 542,905 542,1338z"/>
   <polygon class="fil3" points="10783,4644 10693,4650 10927,4493 10760,4577 10783,4511 10707,4604 10617,4649 10610,4338 10658,4223 10609,4288 10605,4108 10753,3910 10604,4063 10595,3666 10587,3920 10492,3814 10585,3969 10573,4371 10490,4317 10414,4183 10444,4287 10296,4190 10571,4427 10529,5747 10642,5747 10618,4701 10645,4683 "/>
   <path class="fil3" d="M10563 5759c0,0 -200,-208 -144,-201 56,6 162,161 162,161 0,0 1,-342 51,-267 50,75 -12,268 -12,268 0,0 143,-222 143,-186 -1,113 -110,201 -110,201 0,0 228,-170 191,-101 -37,69 -184,133 -184,133 0,0 264,-53 170,-15 -93,37 -182,63 -182,63l-73 0c0,0 -249,-125 -155,-106 93,19 143,50 143,50z"/>
   <path class="fil3" d="M979 5501c0,0 -173,-179 -124,-174 49,6 139,140 139,140 0,0 2,-296 45,-231 43,65 -10,232 -10,232 0,0 123,-192 123,-161 -1,97 -95,173 -95,173 0,0 198,-146 165,-87 -32,60 -158,116 -158,116 0,0 227,-46 146,-14 -81,33 -158,55 -158,55l-62 0c0,0 -216,-108 -135,-92 81,16 124,43 124,43z"/>
   <path class="fil0" d="M1605 4212c0,433 -243,466 -543,466 -299,0 -542,-33 -542,-466 0,-433 243,-1339 542,-1339 300,0 543,906 543,1339z"/>
   <polygon class="fil3" points="1246,4408 1156,4415 1390,4257 1223,4341 1246,4275 1169,4368 1080,4414 1073,4102 1120,3987 1072,4052 1068,3872 1216,3673 1066,3827 1057,3430 1049,3684 954,3577 1048,3733 1035,4135 952,4081 876,3947 907,4051 758,3954 1033,4191 992,5513 1105,5513 1081,4465 1107,4447 "/>
   <path class="fil3" d="M2874 5952c0,0 -173,-180 -125,-174 49,5 140,139 140,139 0,0 1,-295 44,-230 43,64 -10,232 -10,232 0,0 124,-193 124,-162 -1,98 -96,174 -96,174 0,0 198,-147 166,-87 -33,59 -159,115 -159,115 0,0 228,-46 147,-13 -81,32 -158,54 -158,54l-63 0c0,0 -215,-108 -134,-91 81,16 124,43 124,43z"/>
   <path class="fil3" d="M3792 6345c0,0 -173,-180 -124,-174 48,5 139,139 139,139 0,0 2,-295 45,-231 43,65 -10,232 -10,232 0,0 123,-192 123,-161 -1,98 -95,174 -95,174 0,0 197,-147 165,-87 -32,59 -159,115 -159,115 0,0 228,-46 147,-13 -81,32 -158,54 -158,54l-63 0c0,0 -215,-108 -134,-92 81,17 124,44 124,44z"/>
   <path class="fil3" d="M6256 6081c0,0 -125,-130 -90,-126 35,4 100,101 100,101 0,0 1,-213 33,-166 31,46 -8,167 -8,167 0,0 89,-139 89,-116 0,70 -68,125 -68,125 0,0 142,-106 119,-63 -24,43 -115,83 -115,83 0,0 165,-33 106,-10 -58,24 -114,40 -114,40l-45 0c0,0 -155,-78 -97,-66 59,11 90,31 90,31z"/>
   <path class="fil3" d="M11101 5771c0,0 -97,-100 -70,-97 27,3 78,78 78,78 0,0 1,-166 25,-130 24,37 -6,131 -6,131 0,0 70,-108 70,-91 -1,55 -54,98 -54,98 0,0 111,-83 93,-49 -18,33 -89,65 -89,65 0,0 128,-26 82,-8 -45,18 -88,31 -88,31l-36 0c0,0 -120,-61 -75,-52 45,9 70,24 70,24z"/>
   <path class="fil0" d="M4560 6082c0,0 -173,-180 -124,-174 48,5 139,139 139,139 0,0 2,-295 45,-231 43,65 -10,232 -10,232 0,0 123,-192 123,-161 -1,98 -95,174 -95,174 0,0 197,-147 165,-87 -32,59 -159,115 -159,115 0,0 228,-46 147,-14 -81,33 -158,55 -158,55l-63 0c0,0 -215,-108 -134,-92 81,17 124,44 124,44z"/>
   <path class="fil0" d="M3312 5962c0,0 -116,-120 -84,-116 33,3 94,93 94,93 0,0 1,-198 29,-154 29,43 -6,155 -6,155 0,0 83,-129 82,-108 0,65 -63,116 -63,116 0,0 132,-98 110,-58 -21,40 -106,77 -106,77 0,0 153,-30 98,-9 -54,22 -105,37 -105,37l-43 0c0,0 -144,-72 -90,-62 55,11 84,29 84,29z"/>
   <path class="fil0" d="M1862 6437c0,0 -116,-120 -84,-116 33,3 94,93 94,93 0,0 1,-198 30,-155 29,44 -7,156 -7,156 0,0 83,-129 83,-108 -1,65 -64,116 -64,116 0,0 132,-98 111,-58 -22,40 -107,77 -107,77 0,0 153,-31 99,-9 -55,22 -106,37 -106,37l-43 0c0,0 -144,-73 -90,-62 55,11 84,29 84,29z"/>
   <path class="fil0" d="M5744 6461c0,0 -116,-121 -84,-117 33,4 94,93 94,93 0,0 1,-198 29,-154 29,43 -6,155 -6,155 0,0 83,-129 82,-108 0,66 -63,117 -63,117 0,0 132,-99 110,-59 -21,40 -106,78 -106,78 0,0 153,-31 99,-9 -55,21 -106,36 -106,36l-43 0c0,0 -144,-72 -90,-61 55,10 84,29 84,29z"/>
   <path class="fil0" d="M7626 6467c0,0 -116,-120 -83,-117 32,4 93,94 93,94 0,0 1,-198 30,-155 29,43 -7,156 -7,156 0,0 83,-130 83,-108 -1,65 -64,116 -64,116 0,0 133,-98 111,-59 -22,40 -106,78 -106,78 0,0 152,-31 98,-9 -54,22 -106,36 -106,36l-42 0c0,0 -144,-72 -90,-61 54,11 83,29 83,29z"/>
   <path class="fil0" d="M11126 6091c0,0 -176,-183 -127,-178 50,6 143,143 143,143 0,0 1,-302 45,-236 44,66 -10,237 -10,237 0,0 126,-197 126,-165 -1,100 -97,177 -97,177 0,0 201,-149 168,-88 -33,60 -162,117 -162,117 0,0 233,-46 150,-13 -82,33 -161,55 -161,55l-64 0c0,0 -220,-110 -137,-93 82,16 126,44 126,44z"/>
   <path class="fil0" d="M600 6091c0,0 -177,-183 -127,-178 49,6 142,143 142,143 0,0 1,-302 45,-236 44,66 -10,237 -10,237 0,0 126,-197 126,-165 -1,100 -97,177 -97,177 0,0 202,-149 169,-88 -33,60 -162,117 -162,117 0,0 232,-46 149,-13 -82,33 -161,55 -161,55l-64 0c0,0 -220,-110 -137,-93 83,16 127,44 127,44z"/>
   <path class="fil0" d="M1471 5832c0,0 -181,-311 -129,-336 51,-24 158,214 158,214 0,0 -21,-447 28,-406 48,41 92,357 92,357 0,0 97,-343 128,-271 31,72 -25,291 -25,291 0,0 138,-264 152,-178 14,86 -66,227 -66,227 0,0 183,-182 196,-110 14,72 -48,145 -48,145 0,0 241,-131 182,-59 -58,72 -144,165 -144,165 0,0 230,-82 203,-34 -28,48 -131,100 -131,100 0,0 189,-35 169,-4 -21,31 -69,61 -69,61l-856 0c0,0 -227,-82 -138,-88 90,-7 172,31 172,31 0,0 -278,-190 -148,-203 131,-14 238,151 238,151 0,0 -186,-261 -121,-220l157 167z"/>
   <path class="fil3" d="M1483 5921c0,0 -234,-242 -168,-235 65,8 188,189 188,189 0,0 2,-399 60,-312 58,88 -13,313 -13,313 0,0 166,-259 166,-217 -1,131 -129,234 -129,234 0,0 267,-198 223,-118 -43,80 -214,156 -214,156 0,0 308,-62 198,-18 -109,44 -213,74 -213,74l-85 0c0,0 -290,-146 -181,-124 110,22 168,58 168,58z"/>
   <path class="fil3" d="M1483 5921l6 -6c0,0 -3,-3 -8,-8 -17,-18 -60,-64 -98,-109 -19,-23 -38,-46 -51,-65 -6,-9 -12,-18 -15,-25 -4,-6 -5,-12 -5,-14l0 0 0 0 -2 -1 1 2 1 -1 -2 -1 1 2 0 0 1 0 2 0c13,1 32,13 52,30 31,27 63,65 88,97 12,16 23,30 30,41 4,5 7,9 9,12 2,3 3,4 3,4l15 23 1 -27c0,0 0,-21 0,-51 2,-45 4,-113 11,-170 3,-28 7,-53 12,-71 3,-9 6,-16 8,-20 2,-2 3,-3 4,-3l0 -1 0 0c0,0 1,0 2,1 2,2 4,4 7,8 15,23 21,58 21,97 0,48 -9,100 -18,140 -4,20 -9,38 -12,50 -2,6 -3,10 -4,14 -1,3 -2,5 -2,5l-19 61 35 -54c0,0 9,-14 22,-35 21,-31 52,-78 80,-117 14,-19 27,-36 38,-49 5,-6 9,-11 13,-14 2,-1 3,-3 4,-3l0 0 -1 -4 0 4 1 0 -1 -4 0 4 0 -6 -3 5 3 1 0 -6 -3 5 3 -5 -6 2c0,0 1,2 3,3l3 -5 -6 2 3 -1 -3 0 0 1 3 -1 -3 0 0 1 0 0 0 0c0,63 -31,120 -63,161 -15,21 -31,37 -43,49 -5,5 -10,10 -14,13 -1,1 -3,2 -4,3l-1 1 11 14c0,0 11,-9 29,-22 27,-19 67,-47 105,-71 19,-12 37,-23 52,-30 7,-4 13,-7 19,-9 5,-2 9,-3 11,-3l0 0 0 0 1 -4 -3 2 2 2 1 -4 -3 2 4 -2 -4 1 0 1 4 -2 -4 1 1 0 -1 0 0 0 1 0 -1 0c0,0 -1,4 -4,9 -20,37 -73,77 -120,105 -24,14 -47,26 -63,34 -9,5 -15,8 -20,10 -5,2 -7,3 -7,3l-71 32 76 -15c0,0 10,-3 27,-6 24,-4 62,-12 98,-18 36,-6 70,-10 85,-10 3,0 5,0 5,0l0 0 0 0 0 0 0 0 0 0 2 -5 -4 4 2 1 2 -5 -4 4 6 -5 -8 0c0,2 1,4 2,5l6 -5 -8 0 7 0 -6 -4c0,1 -1,2 -1,4l7 0 -6 -4 3 2 -2 -3 -1 1 3 2 -2 -3c0,1 -2,2 -6,4 -3,1 -8,3 -14,6 -54,22 -107,40 -147,53 -20,6 -36,11 -47,15 -12,3 -18,5 -18,5l2 9 0 -9 -85 0 0 9 4 -8c0,0 -13,-7 -32,-17 -29,-14 -72,-37 -108,-58 -18,-11 -34,-21 -45,-29 -6,-4 -10,-7 -13,-10l-3 -3 0 0 -1 1 1 -1 0 0 -1 1 1 -1 -5 2 5 0 0 -2 -5 2 5 0 -6 0 5 3 1 -3 -6 0 5 3 -4 -3 2 5 2 -2 -4 -3 2 5 -1 -3 1 3 0 0 -1 -3 1 3 0 0 2 0c3,0 8,1 16,2 54,11 95,25 123,37 14,6 24,11 31,15 3,1 6,3 8,4l2 1 0 0 59 37 -48 -50 -6 6 4 -7c0,-1 -60,-38 -170,-60 -8,-1 -14,-2 -19,-2 -3,0 -6,0 -9,2 -2,0 -3,1 -5,3 -1,2 -2,5 -2,7 0,5 3,7 4,10 4,4 10,9 17,14 26,19 73,45 114,67 41,22 75,39 75,39l2 1 88 0 2 0c0,0 104,-30 214,-74 8,-4 14,-6 18,-9 3,-1 5,-2 6,-4l3 -3c1,-1 1,-3 1,-5 0,-2 0,-4 -1,-5 -2,-3 -4,-4 -5,-5 -2,0 -4,-1 -6,-1 -2,0 -4,0 -6,0 -12,0 -31,2 -53,5 -66,10 -160,29 -160,29l1 8 4 8c0,0 43,-19 91,-48 49,-30 103,-69 127,-112 3,-6 6,-11 6,-17 0,-4 -2,-8 -5,-11 -3,-3 -7,-3 -10,-3 -7,0 -15,2 -24,6 -31,14 -81,47 -124,76 -43,30 -79,56 -79,56l5 7 6 6c0,0 32,-26 65,-69 32,-43 66,-103 66,-171l0 0 0 0c0,-3 0,-5 -2,-8 0,-1 -2,-3 -4,-4 -1,-1 -3,-1 -5,-1 -5,0 -7,2 -10,4 -6,4 -11,10 -18,18 -24,27 -59,78 -89,122 -30,44 -54,82 -54,82l8 4 8 3c0,-1 36,-115 36,-214 0,-40 -6,-79 -24,-107 -3,-4 -6,-8 -10,-11 -4,-3 -8,-5 -13,-5 -5,0 -10,3 -13,6 -7,7 -11,16 -14,28 -7,20 -11,49 -15,81 -10,95 -11,217 -11,218l9 0 7 -5c0,0 -31,-46 -70,-92 -20,-24 -41,-47 -62,-66 -22,-18 -42,-32 -62,-34l-4 0c-4,0 -9,1 -12,4 -4,3 -5,8 -5,12 0,8 3,16 8,26 19,33 62,84 100,128 39,43 74,79 74,79l6 -6 4 -7 -4 7z"/>
   <path class="fil0" d="M9170 6381c0,0 -341,-589 -244,-635 97,-45 299,403 299,403 0,0 -39,-845 52,-767 91,78 175,676 175,676 0,0 182,-650 241,-513 58,136 -47,549 -47,549 0,0 261,-497 287,-335 26,163 -123,429 -123,429 0,0 344,-344 370,-208 26,136 -91,273 -91,273 0,0 455,-247 345,-111 -111,137 -273,312 -273,312 0,0 435,-156 383,-65 -52,91 -247,189 -247,189 0,0 357,-65 319,-7 -39,59 -130,116 -130,116l-1618 0c0,0 -429,-155 -260,-168 169,-13 325,59 325,59 0,0 -527,-358 -280,-384 247,-26 448,286 448,286 0,0 -350,-494 -227,-416l296 317z"/>
   <path class="fil3" d="M9192 6549c0,0 -441,-458 -317,-444 124,14 356,356 356,356 0,0 3,-754 113,-589 110,165 -25,592 -25,592 0,0 314,-491 314,-411 -3,248 -243,442 -243,442 0,0 504,-373 421,-222 -82,152 -404,295 -404,295 0,0 581,-117 374,-35 -206,83 -403,139 -403,139l-160 0c0,0 -549,-275 -342,-234 206,42 316,111 316,111z"/>
   <path class="fil3" d="M9192 6549l6 -6c0,0 -5,-6 -14,-16 -33,-34 -114,-120 -186,-206 -37,-43 -71,-86 -96,-123 -13,-18 -23,-34 -30,-48 -7,-13 -11,-25 -10,-30 0,-4 0,-4 1,-5 0,-1 2,-2 7,-2 1,0 2,0 4,1 27,2 65,25 103,59 58,50 120,124 167,184 23,30 43,58 57,77 7,10 13,18 17,23 3,6 5,9 5,9l16 22 0 -27c0,0 0,-10 0,-26 1,-59 4,-205 16,-337 6,-65 14,-127 25,-172 5,-23 11,-41 18,-53 3,-6 6,-10 9,-13 3,-2 5,-3 7,-3 2,0 5,1 9,4 4,3 9,8 14,16 30,45 41,113 41,187 0,91 -17,191 -34,267 -8,39 -17,71 -23,94 -3,12 -6,21 -8,27 -2,6 -3,9 -3,9l-19 62 35 -55c0,0 4,-6 11,-18 26,-40 92,-140 155,-230 32,-45 63,-88 88,-119 13,-15 24,-28 33,-37 4,-4 8,-7 11,-9l3 -2 1 0 0 -1 0 1 0 0 0 -1 0 1 0 -4 -2 3 2 1 0 -4 -2 3 2 -4 -4 3 2 1 2 -4 -4 3 2 -2 -2 2 0 0 2 -2 -2 2 0 0 0 2 0 0 9 0 -9 0c-1,121 -60,230 -120,309 -30,39 -60,71 -82,93 -11,11 -21,19 -27,25 -3,3 -6,5 -8,6 -1,2 -2,3 -2,3l10 13c0,0 6,-4 15,-11 34,-25 119,-86 204,-142 42,-27 84,-54 119,-73 18,-9 34,-17 47,-22 13,-6 23,-8 28,-8l3 0 1 0 0 0 0 0 0 0 0 0 0 0 0 2c0,3 -2,10 -8,21 -40,73 -140,147 -230,201 -45,27 -88,50 -119,65 -16,8 -29,14 -38,19 -9,4 -14,6 -14,6l-71 31 76 -15c0,0 20,-4 51,-10 47,-9 119,-22 186,-34 68,-11 132,-20 161,-20 6,0 11,1 13,1l1 0 0 0 1 -3 -3 2 2 1 1 -3 -3 2 5 -4 -6 0 1 4 5 -4 -6 0 5 0 -4 -2c0,0 -1,1 -1,2l5 0 -4 -2 1 0 -1 -1 0 1 1 0 -1 -1 -1 1c-1,1 -6,4 -12,7 -7,4 -16,8 -27,12 -103,41 -203,76 -278,101 -38,12 -69,21 -90,28 -22,7 -34,10 -34,10l2 8 0 -8 -160 0 0 8 4 -7c0,0 -6,-3 -17,-9 -37,-19 -130,-66 -213,-113 -42,-24 -82,-47 -110,-66 -15,-10 -26,-19 -34,-26 -4,-3 -7,-6 -8,-8l-2 -3 0 0 -2 0 2 0 0 0 -2 0 2 0 -4 0 3 3 1 -3 -4 0 3 3 -2 -2 1 3 1 -1 -2 -2 1 3 1 -1c0,0 3,0 6,0 7,0 17,1 31,4 103,20 181,48 234,70 27,11 47,21 60,28 7,3 12,6 15,8 2,1 3,2 4,2l1 1 59 37 -49 -50 -6 6 5 -8c-1,0 -112,-69 -320,-111 -14,-3 -25,-4 -34,-4 -5,0 -10,0 -14,2 -2,1 -4,2 -6,5 -1,2 -2,5 -2,7 0,6 3,10 6,14 6,8 17,17 30,26 48,35 137,85 214,126 78,41 143,74 143,74l2 1 164 0 1 0c0,0 196,-57 403,-140 16,-6 27,-11 35,-16 4,-2 7,-4 10,-6 1,-2 2,-3 3,-4 1,-2 2,-4 2,-7 0,-2 0,-4 -1,-5 -2,-3 -4,-4 -6,-5 -3,-1 -6,-2 -9,-2 -4,-1 -7,-1 -12,-1 -21,0 -56,4 -98,10 -124,18 -303,54 -303,54l2 9 3 8c0,-1 81,-36 173,-91 91,-56 193,-129 236,-208 6,-12 10,-21 10,-29 0,-6 -2,-11 -6,-15 -4,-3 -10,-4 -15,-4 -11,0 -24,4 -41,11 -58,26 -153,88 -234,143 -81,56 -148,105 -148,105l5 7 6 7c0,0 60,-49 121,-130 61,-80 123,-192 124,-319l0 0 -3 0 3 0 0 0 -3 0 3 0 0 0c0,-4 0,-7 -2,-11 -1,-2 -3,-3 -5,-5 -2,-1 -4,-1 -6,-1 -7,0 -11,3 -16,6 -8,7 -19,18 -32,32 -44,52 -111,148 -167,231 -56,84 -102,154 -102,154l8 5 8 2c0,0 68,-216 68,-402 0,-75 -11,-146 -44,-196 -6,-9 -12,-16 -17,-20 -6,-5 -13,-8 -20,-8 -8,0 -15,4 -20,9 -10,11 -18,28 -25,49 -11,38 -20,92 -26,152 -20,179 -21,411 -21,411l9 0 7 -5c-1,0 -59,-86 -132,-173 -37,-44 -78,-89 -118,-123 -39,-34 -78,-59 -112,-63 -2,-1 -4,-1 -6,-1 -7,0 -14,2 -19,6 -5,5 -7,12 -7,18 1,12 7,27 16,44 33,61 115,158 188,241 73,82 138,149 138,149l6 -5 5 -8 -5 8z"/>
   <path class="fil1" d="M2060 5850c0,0 35,-32 65,-32 30,0 121,44 121,44 0,0 37,57 40,60 4,4 49,23 52,31 3,8 10,34 10,34l-280 0 -51 -136 43 -1z"/>
   <path class="fil3" d="M2060 5850l6 6 1 -1c3,-3 12,-10 23,-16 11,-7 24,-12 35,-12 5,0 17,2 29,6 19,6 41,16 58,23 9,4 17,8 22,10 6,3 9,4 9,4l3 -8 -7 5c0,0 9,14 19,29 5,7 10,14 14,20 2,3 3,6 5,8l2 2 1 2 0 0 3 2c3,2 6,4 11,6 8,4 17,9 25,13 3,2 7,4 9,6l2 2 1 0 2 -2 -3 1 1 1 2 -2 -3 1c1,3 4,12 6,19 2,7 4,14 4,14l8 -2 0 -9 -274 0 -45 -119 34 -1 3 -2 -6 -6 0 -9 -56 2 58 152 297 0 -3 -11c0,0 -1,-6 -3,-14 -3,-7 -5,-16 -7,-21 -2,-3 -4,-5 -6,-6 -3,-3 -7,-6 -13,-9 -7,-4 -16,-8 -23,-12 -4,-2 -7,-3 -9,-5l-3 -1 0 0 -2 3 3 -3 -1 0 -2 3 3 -3 0 0 -3 3 3 -3 0 0 -3 3 3 -3c0,0 -1,-1 -3,-3 -4,-7 -14,-21 -22,-33 -8,-12 -14,-22 -14,-22l-2 -2 -2 -1c0,0 -23,-11 -50,-23 -13,-5 -28,-11 -41,-15 -13,-4 -25,-7 -34,-7 -18,0 -35,9 -48,17 -13,8 -23,16 -23,17l6 6 0 -9 0 9z"/>
   <path class="fil3" d="M2125 5818l-2 27c0,0 72,42 70,57 -1,15 -16,50 -16,50l36 38 -195 0 15 -115c0,0 42,-60 92,-57z"/>
   <path class="fil1" d="M1695 5833c0,0 140,-209 172,-213 32,-3 98,24 123,67 25,43 48,128 50,133 2,5 8,8 47,70 38,62 36,97 36,97l-541 0c0,0 12,-55 32,-87 20,-32 66,-43 66,-43l15 -24z"/>
   <path class="fil3" d="M1695 5833l8 5c0,0 8,-13 22,-33 20,-29 51,-73 80,-111 15,-18 29,-35 40,-47 6,-6 11,-11 16,-14 2,-2 3,-3 5,-3l1 -1 1 0c1,0 3,0 5,0 14,-1 37,6 58,17 21,11 41,27 52,45l0 0c12,21 24,53 33,80 4,13 8,25 11,35 1,4 2,8 3,11 1,3 2,5 2,6 1,2 2,4 4,6 2,4 6,8 12,18 7,10 17,24 31,47 35,56 36,88 36,92l0 0 1 0 -1 0 0 0 1 0 -1 0 8 1 0 -9 -541 0 0 9 9 1c0,0 0,-3 2,-8 4,-17 14,-54 28,-75l0 0c9,-14 24,-24 37,-31 7,-3 13,-5 18,-7 2,-1 4,-1 5,-2l1 0 0 0 4 -1 17 -26 -8 -5 8 5 -8 -5 -7 -4 -15 23 7 5 -2 -9c0,0 -12,3 -27,11 -15,7 -33,18 -44,36l0 0c-11,17 -19,40 -25,58 -5,18 -8,32 -8,32l-2 10 559 0 1 -8 0 -1c0,-7 -2,-43 -38,-101 -19,-30 -31,-47 -37,-56 -4,-5 -6,-8 -7,-10l-2 -1 0 -1 0 0 0 0 0 0 0 0 0 0c0,0 -1,-2 -1,-5 -3,-10 -10,-33 -19,-57 -8,-25 -19,-53 -30,-72l-1 0c-13,-23 -35,-40 -58,-52 -23,-13 -48,-20 -66,-20 -3,0 -5,1 -7,1l0 0c-4,0 -7,2 -11,4 -6,4 -13,10 -20,18 -27,27 -63,75 -93,117 -30,42 -54,78 -54,78l0 0 0 0 7 4z"/>
   <path class="fil3" d="M1910 5983c0,0 -15,-36 -16,-41 -2,-5 -2,-54 -7,-74 -5,-20 -47,-81 -47,-81l30 -87 -15 -11 25 -62 -14 -7c-33,6 -171,213 -171,213l-15 24c0,0 -46,11 -66,43 -17,27 -28,71 -31,83l327 0z"/>
   <path class="fil1" d="M7452 5902c0,0 22,-20 41,-20 19,0 76,28 76,28 0,0 23,35 25,37 2,3 30,15 33,20 2,4 6,21 6,21l-176 0 -32 -85 27 -1z"/>
   <path class="fil3" d="M7452 5902l6 6 1 0c2,-2 7,-6 14,-10 6,-4 14,-7 20,-7 3,0 10,1 17,4 12,4 26,9 37,14 5,2 10,5 13,6 3,2 5,3 5,3l4 -8 -7 5c0,0 6,8 12,18 3,4 6,9 8,12 2,2 3,4 4,5l1 2 1 1 0 0 2 2c2,1 5,3 8,4 4,2 10,5 15,8 2,1 4,2 5,3l1 1 0 0 4 -3 -4 2 0 1 4 -3 -4 2 0 0c0,1 2,7 3,11 1,5 2,9 2,9l9 -2 0 -9 -170 0 -26 -68 15 0 4 0 2 -3 -6 -6 0 -8 -39 1 39 101 192 0 -3 -10c0,0 -1,-5 -2,-9 -2,-5 -3,-10 -5,-14l0 0c-1,-3 -2,-4 -4,-5 -2,-2 -5,-4 -9,-6 -4,-3 -10,-5 -14,-8 -3,-1 -5,-2 -6,-2l-1 -1 -1 0 -3 4 4 -4 -1 0 -3 4 4 -4 0 0 -3 4 4 -3 -1 -1 -3 4 4 -3c-1,-1 -3,-4 -5,-7 -8,-11 -20,-30 -20,-30l-1 -2 -2 -1c0,0 -15,-7 -32,-14 -8,-3 -17,-7 -26,-10 -8,-2 -15,-4 -22,-4 -12,0 -24,6 -32,11 -9,5 -14,11 -15,11l6 6 0 -8 0 8z"/>
   <path class="fil3" d="M7493 5882l-1 17c0,0 45,26 44,36 -1,9 -11,31 -11,31l23 24 -122 0 9 -72c0,0 27,-38 58,-36z"/>
   <path class="fil1" d="M7224 5892c0,0 87,-132 107,-134 20,-2 62,15 77,42 16,27 31,80 32,83 1,4 5,6 29,44 24,39 23,61 23,61l-339 0c0,0 7,-35 19,-55 13,-19 42,-27 42,-27l10 -14z"/>
   <path class="fil3" d="M7224 5892l7 4c0,0 5,-8 14,-20 12,-18 32,-46 50,-69 9,-12 18,-22 25,-30 4,-4 7,-7 9,-8l3 -2 0 0 0 -2 0 2 0 0 0 -2 0 2 0 0 3 -1c8,0 22,4 35,11 13,7 25,16 31,27l0 0c7,13 15,33 20,49 3,9 6,16 7,22 1,3 2,6 2,7 1,2 1,3 2,4l0 0c0,2 1,4 2,5 2,2 4,5 8,11 5,6 11,15 20,30l0 0c21,34 21,54 21,55l0 0 4 1 -4 -1 0 0 4 1 -4 -1 9 1 0 -9 -339 0 0 9 8 2c0,0 0,-2 1,-6 3,-10 9,-33 18,-46l0 0c5,-8 14,-14 22,-18 4,-2 8,-3 10,-4l3 -1 1 0 0 0 4 -1 11 -18 -7 -4 7 4 -7 -4 -8 -5 -9 15 7 4 -2 -8c0,0 -8,2 -18,7 -9,4 -21,12 -29,24l0 0c-7,11 -12,25 -15,37 -4,11 -6,20 -6,20l-2 10 358 0 0 -8 0 -1c0,-4 -1,-28 -24,-64l0 0c-12,-20 -19,-30 -23,-36 -3,-3 -4,-5 -5,-6l0 -1 -3 1 3 0 0 -1 -3 1 3 0 0 0c0,0 -1,-2 -1,-3 -2,-7 -6,-21 -12,-37 -5,-15 -12,-33 -19,-45l0 0c-9,-15 -23,-26 -38,-34 -15,-8 -31,-13 -43,-13l-5 1 0 0c-3,0 -6,1 -8,3 -4,2 -9,6 -13,11 -17,18 -40,48 -59,74 -19,27 -34,49 -34,49l0 0 0 0 8 5z"/>
   <path class="fil3" d="M7358 5986c0,0 -9,-23 -10,-26 -1,-4 -1,-34 -4,-46 -3,-13 -30,-51 -30,-51l19 -55 -9 -7 15 -39 -8 -4c-21,4 -107,134 -107,134l-10 14c0,0 -29,8 -42,27 -10,17 -17,45 -19,53l205 0z"/>
   <path class="fil1" d="M10283 6414c0,0 66,-59 123,-59 57,0 230,83 230,83 0,0 69,106 75,113 7,6 92,42 98,57 6,15 19,64 19,64l-529 0 -97 -256 81 -2z"/>
   <path class="fil3" d="M10283 6414l6 7 1 -1c3,-3 20,-18 42,-31 23,-14 50,-26 74,-26 12,0 33,5 57,13 36,11 78,29 112,43 16,8 31,14 41,19 10,5 16,7 16,7l4 -7 -7 4c0,0 17,27 35,55 9,13 18,27 26,38 3,6 7,10 9,14 2,2 3,3 4,5l2 3 0 0 4 3c4,2 11,6 21,11 14,7 31,15 46,23 7,4 13,8 18,12 2,1 4,3 6,4l1 2 0 0 1 -1 -1 1 0 0 1 -1 -1 1 0 0 0 0c3,6 8,22 11,36 4,14 7,26 7,26l9 -2 0 -8 -523 0 -91 -239 73 -2 2 -2 -6 -7 0 -8 -94 2 104 273 546 0 -3 -11c0,0 -3,-12 -7,-26 -4,-15 -9,-31 -12,-39l0 0c-2,-4 -5,-7 -8,-10 -6,-5 -15,-10 -24,-15 -14,-8 -30,-16 -44,-23 -7,-3 -13,-6 -17,-8 -2,-2 -4,-3 -5,-3l-2 -1 0 0 -2 2 2 -2 0 0 -2 2 2 -2 0 0 0 0 0 0 0 0 0 0 0 0c0,-1 -2,-3 -5,-7 -9,-13 -26,-39 -41,-62 -15,-23 -28,-43 -28,-43l-1 -2 -3 -1c0,0 -43,-21 -94,-42 -25,-10 -52,-21 -77,-29 -24,-8 -46,-13 -62,-13 -31,0 -63,16 -87,31 -24,15 -41,31 -41,31l5 6 0 -8 0 8z"/>
   <path class="fil3" d="M10406 6355l-3 50c0,0 135,79 132,107 -3,28 -31,94 -31,94l69 73 -368 0 28 -217c0,0 79,-114 173,-107z"/>
   <path class="fil1" d="M9594 6383c0,0 264,-397 324,-403 60,-6 186,44 233,126 47,82 91,242 95,252 3,9 15,15 88,132 72,116 69,182 69,182l-1023 0c0,0 22,-103 60,-163 38,-60 126,-82 126,-82l28 -44z"/>
   <path class="fil3" d="M9594 6383l7 5c0,0 4,-7 12,-17 25,-38 90,-133 155,-219 33,-43 65,-84 93,-114 14,-15 26,-28 36,-36 6,-5 10,-8 14,-10 4,-2 7,-3 8,-3 3,-1 6,-1 10,-1 29,0 73,12 114,33 41,22 80,53 101,89 23,40 46,100 63,152 8,25 16,49 21,66 3,9 5,16 6,22 2,5 3,9 3,10 2,4 4,7 7,11 4,6 11,15 24,33 13,19 31,47 58,90 66,106 68,169 68,177l0 1 9 0 0 -8 -1023 0 0 8 9 2c0,0 0,-1 1,-4 4,-21 25,-106 57,-157 18,-27 48,-47 74,-60 13,-6 25,-11 33,-14 5,-1 8,-2 10,-3l3 -1 1 0 3 -1 30 -47 -7 -4 7 5 -7 -5 -7 -5 -28 44 7 5 -2 -8c-1,0 -23,5 -51,19 -27,13 -60,34 -80,66 -20,31 -35,73 -45,106 -11,34 -16,60 -16,61l-2 10 1041 0 0 -8 0 -2c0,-11 -3,-77 -70,-186 -36,-58 -58,-89 -70,-106 -7,-9 -11,-15 -14,-18 -2,-4 -3,-5 -3,-6 -1,-1 -2,-5 -3,-10 -6,-19 -18,-62 -35,-109 -16,-47 -36,-98 -57,-134 -24,-41 -65,-73 -108,-96 -43,-22 -88,-35 -122,-35 -4,0 -8,0 -12,1 -6,0 -11,3 -17,6 -11,7 -23,18 -37,33 -49,50 -118,142 -175,221 -56,79 -101,146 -101,146l0 0 7 5z"/>
   <path class="fil3" d="M10000 6666c0,0 -28,-69 -31,-79 -4,-9 -4,-100 -13,-138 -9,-38 -88,-154 -88,-154l57 -164 -29 -22 47 -116 -26 -13c-62,12 -323,403 -323,403l-28 44c0,0 -88,22 -126,82 -32,51 -53,134 -58,157l618 0z"/>
  </g>
 </g>
</svg>
