<svg xmlns="http://www.w3.org/2000/svg" xml:space="preserve" width="448.486" height="256.412" style="shape-rendering:geometricPrecision;text-rendering:geometricPrecision;image-rendering:optimizeQuality;fill-rule:evenodd;clip-rule:evenodd" viewBox="0 0 11866 6784"><defs><style>.fil1{fill:#fefefe;fill-rule:nonzero}.fil0,.fil3,.fil5{fill:#bbdecb;fill-rule:nonzero}.fil0,.fil3{fill:#75c19c}.fil3{fill:#29383e}</style></defs><g id="Layer_x0020_1"><g id="_2994179230080"><path d="M11584 2598c-135-486-1035 43-1035 43l236-427c28-43 53-87 74-135 119-265 117-547 0-794-32-149-130-363-399-597C9998 287 8552 0 7917 0h-2c-65 0-122 3-168 9-495 68 449 276 449 276l-74-1C6681 131 5232 112 3793 141c-360 8-722 20-1075 81-102 17-211 44-271 126-269 364 829 400 1002 393-755 98-1593 128-2294 419-98 41-195 89-269 164-74 76-122 182-105 290 48 311 477 403 721 473 0 0-1399 930-1234 1402 68 195 169 401 358 603-108 135-202 276-275 425-45 92-103 217-53 322 254 537 4119 2377 7215 1852 823-140 1642-370 2363-779 718-406 1449-1077 1630-1923 5-28 10-55 13-81 112-390 178-904 65-1310" class="fil0"/><path d="M1096 1954c-175-75-319-179-315-340 26 165 159 269 315 340" class="fil1"/><path d="M6347 6784c-2824 0-5826-1474-6049-1945-14-28-19-58-19-89-1-78 36-158 67-224 29 4 61 5 93 5 147 0 266-16 266-228s-119-655-266-655c-30 0-58 19-85 50-34-71-62-141-86-209-9-26-14-54-14-83 0-490 1248-1319 1248-1319-117-35-271-75-406-133-156-71-289-175-315-340 3-109 31-214 105-290 74-75 171-123 269-164 701-291 1539-321 2294-419h-47c-236 0-997-42-997-286 0-32 13-68 42-107 60-82 169-109 271-126 353-61 715-73 1075-81 358-7 717-11 1076-11 1083 0 2170 39 3253 154l74 1s-593-131-593-219c0-23 41-43 144-57 46-6 103-9 169-9 635 0 2082 287 2544 688 269 234 367 448 399 597 59 124 88 257 88 392 0 134-29 270-88 402-21 48-46 92-74 135l-236 427s423-248 732-248c142 0 260 52 303 205 41 148 58 311 58 477 0 288-52 585-123 833-3 26-8 53-13 81-12 55-26 108-42 162-49-170-125-323-211-323-107 0-199 233-241 442l-677-478c-91-375-256-752-445-752-54 0-106 31-155 83 0 0-1 0-1-1-65-48-145-77-223-77q-21 0-42 3c-42 6-84 22-116 51-22 21-31 43-36 66-6 22-9 44-18 67-5 11-15 20-25 22-3 0-5 1-8 1-16 0-31-8-48-17-17-8-36-18-57-18h-1c-17 0-35 5-52 13s-32 19-42 34c-9 15-10 33-13 49-1 7-3 14-6 20-2 6-6 10-11 13-6 3-11 4-18 4-9 0-20-3-31-6s-23-6-36-6c-7 0-13 1-20 3-12 5-20 10-26 17-8 11-10 22-11 31-1 10-2 17-6 22-3 3-6 6-11 7-4 2-10 2-17 2h-1c-14 0-32-3-54-5h-6c-24 0-43 14-58 26-14 13-22 25-22 25l-10 14h829c-80 215-136 471-157 676-118-77-258-122-409-122-410 0-743 330-743 737 0 99 20 194 56 280l-215 301-589-126-299 256 11 13 292-250 592 126 216-301c31 71 74 136 125 193 21-3 48-6 80-6 51 0 114 7 180 29 144 49 233 129 253 148h66c20-19 109-99 253-148 66-22 129-29 180-29 39 0 71 4 93 8 119-131 191-304 191-494v-18c55 7 114 8 176 8 286 0 518-31 518-445 0-134-24-317-67-502l667 472c-13 72-21 140-21 193 0 188 94 222 217 227-322 509-828 921-1328 1203-721 409-1540 639-2363 779-380 64-771 93-1166 93M1546 5046c51 0 113 6 180 29 143 49 233 129 252 147h67c19-18 109-98 252-147 67-23 129-29 180-29 40 0 72 4 94 7 118-130 190-303 190-493 0-407-332-737-742-737s-742 330-742 737c0 189 71 361 189 491 21-3 48-5 80-5m7999-1580h-801c3-4 7-8 11-11 12-11 28-20 44-20l4 1c22 1 40 4 57 4 8 0 15 0 23-3 7-2 13-6 18-13 5-6 8-13 9-20 1-10 2-19 4-25 3-7 8-13 23-19 4-1 9-2 14-2 10 0 20 3 32 6 11 3 23 6 35 6 9 0 18-1 26-6 9-5 15-13 19-21 5-12 7-25 9-37 2-11 4-22 9-29 7-12 20-22 34-29 15-7 31-11 45-11h1c16 0 32 8 49 17 17 8 35 18 56 18 3 0 7 0 11-1 18-3 31-17 37-33 11-25 14-48 19-69s12-39 32-57c29-27 67-42 106-47 13-2 27-3 40-3 74 0 151 28 213 74-67 77-128 195-179 330" style="fill:#e5f1e9;fill-rule:nonzero"/><path d="m9089 2070-2-1zl-2-1zc0-1 4-13 19-26 14-14 38-30 79-38 7-2 14-2 20-2 39 0 80 19 112 39 15 10 29 20 38 27 5 4 8 7 11 9l3 2 1 1 8 8 5-10 3-6c7-13 26-47 50-77 12-15 26-30 39-41 14-11 28-18 41-20 5-1 9-1 13-1 31 0 64 13 88 26 13 6 23 13 30 18q6 3 9 6l2 1v1l11-14s-18-14-44-27c-26-14-60-28-96-28-5 0-10 0-15 1-20 3-39 14-56 29-51 45-90 124-90 124l7 4 6-6c0-1-22-21-55-42-33-20-77-41-121-41-8 0-15 0-23 2-46 9-73 27-90 44-16 16-21 31-22 32zM8862 2402l-2-1zl-2-1zc0-1 4-13 18-27 15-13 39-29 80-37 7-2 13-2 20-2 39 0 80 19 112 39 15 10 29 20 38 27 5 4 8 7 11 9l3 2 1 1 8 8 5-10 3-6c7-13 26-47 50-77 12-16 26-30 39-41 14-11 28-19 41-20 4-1 9-1 13-1 31 0 63 13 88 26 12 6 23 13 30 18 4 2 7 4 8 5l3 2v1l11-14s-18-14-44-27c-26-14-61-28-96-28-5 0-10 0-15 1-20 2-39 14-56 29-51 45-90 124-90 124l7 4 6-6c0-1-22-21-55-42-33-20-77-41-121-41-8 0-16 0-23 2-46 9-74 27-90 44-16 16-21 30-22 31zM9691 2404l-3-1zl-3-1zs4-9 14-19c11-11 29-22 60-29 5-1 10-1 15-1 28 0 60 14 83 29 12 8 22 15 29 21 4 3 7 5 9 7l2 2 9 8 5-10s1-2 2-5c5-10 20-35 38-58 9-12 19-23 30-31 10-8 20-14 30-15h9c23 0 48 9 66 19 10 5 17 10 23 13 3 2 5 4 6 5l2 1 11-13s-14-11-34-21c-20-11-46-21-74-21h-11c-16 2-31 11-44 23-39 34-69 95-69 95l7 4 6-6c0-1-17-16-43-32-25-16-58-32-92-32-6 0-13 0-19 2-34 7-56 21-69 34-13 12-17 24-17 24zM10662 2756l-5-2zl-5-2zv-1c2-4 11-22 46-29 3 0 6-1 9-1 18 0 38 10 53 19 8 5 15 10 19 14 2 1 4 3 5 4l2 1v1l9 7 5-10s0-1 1-3c3-6 13-23 25-38 5-7 12-14 18-19 7-6 13-9 19-9 2-1 4-1 6-1 14 0 30 6 42 13 6 3 11 6 14 8 2 1 3 2 4 3l1 1h1l10-13c0-1-9-8-22-15-14-7-32-14-50-14-3 0-6 0-8 1-12 1-22 7-31 15-26 23-45 63-46 63l8 4 6-6c-1 0-12-11-29-21-16-11-39-22-62-22-4 0-8 1-13 2-23 4-38 14-47 23-8 8-11 16-11 17zM6002 1975l9-2c-42-189-164-354-324-473-159-119-355-191-548-191-34 0-69 3-103 7-103 15-203 54-281 125-54 49-74 103-88 157-13 55-20 111-45 169-14 31-40 58-71 63-8 2-15 2-23 2-42 0-83-20-125-42-42-21-86-44-136-44h-2c-40 0-84 11-124 30-41 19-77 47-99 82-22 33-24 77-31 116-4 19-8 38-16 53-7 16-18 29-34 38s-32 13-50 13c-25 0-53-8-81-15-28-8-57-16-87-16-15 0-30 2-45 8-28 10-47 23-59 38-19 23-22 48-25 71-3 24-5 44-18 60-8 11-19 18-32 22-14 5-30 7-48 7-37 0-83-8-138-13h-12c-55 0-102 31-136 61s-55 60-55 61l-9 13h3419l2-4c1-2 5-8 5-22-1-31-15-97-103-232-27-42-57-69-87-86-31-17-63-23-94-23-43 0-84 12-121 23-36 12-67 23-87 23-18 0-32-5-44-12-17-11-29-28-36-43-3-7-6-14-7-19-1-2-2-4-2-5v-2zl-8 2s5 23 21 47c8 11 18 23 32 32s32 15 53 15c26 0 57-12 93-23 35-12 75-23 115-23 29 0 57 5 85 21 28 15 56 40 82 80 87 134 100 198 99 223 0 5 0 9-1 11v2l4 3-4-3 4 3-4-3 7 4v-8H3182v8l7 5 1-1c4-6 26-35 57-62 32-27 74-51 119-51h11c53 5 100 13 139 13 20 0 37-2 53-7 16-6 30-15 41-28 11-14 15-30 18-45 4-24 4-47 13-67 8-20 24-38 63-52 13-5 26-7 39-7 27 0 54 8 83 15 28 8 56 16 85 16 20 0 40-4 59-15s32-27 41-45c13-27 17-59 21-88 5-30 11-59 24-80 20-31 54-57 92-76 38-18 80-28 117-28h2c44 0 86 21 128 42 42 22 85 44 133 44 9 0 17 0 26-2 39-7 68-38 84-73 26-61 33-118 46-172 13-53 32-102 82-148 75-69 172-106 272-121 34-4 68-7 101-7 188 0 382 71 538 188 157 116 276 279 317 463zM6949 1323l8-1c-17-77-67-145-132-193-64-48-144-78-222-78-15 0-29 1-43 3-42 6-83 22-115 52-23 20-32 43-37 65-5 23-8 45-18 67v1-1c-5 11-14 21-25 22-2 1-5 1-8 1-15 0-31-7-48-16s-35-18-57-19c-17 0-36 5-52 13-17 8-32 20-42 35s-11 33-13 48c-2 8-3 15-6 20-3 6-6 10-12 13-5 3-11 5-17 5-10 0-20-3-31-6-12-3-24-7-37-7-6 0-13 1-20 4-11 4-20 10-25 17-9 10-10 22-11 31-2 9-3 16-7 21-3 4-6 6-10 8-5 1-11 2-18 2-14 0-33-3-55-5h-5c-24 0-44 13-58 26-14 12-23 24-23 25l-9 13h1384l3-4c1-1 2-5 2-12 0-14-6-41-42-95-11-18-23-29-37-37-13-7-27-10-40-9-18 0-35 5-50 9-14 5-27 9-33 9s-11-1-15-4c-6-4-10-10-13-15-1-3-2-5-2-7l-1-2h-2 2-2 2l-7 1 7-1-7 1 7-1zl8-1zl8-1zl8-1zl8-1zl-9 2c1 1 3 11 9 21q6 7.5 15 15c6 4 15 6 24 6 12 0 24-5 39-9 14-5 29-9 44-9 11 0 22 2 32 7 10 6 21 16 31 31 35 53 39 78 39 86v4l4 1-4-2v1l4 1-4-2 7 5v-9H5817v9l7 4c2-2 10-13 23-24 12-10 28-19 44-19h4c21 2 40 5 56 5 8 0 16-1 23-3 7-3 14-7 19-13v-1 1c5-7 7-14 8-20 2-10 2-19 5-26s8-13 22-18c5-2 9-2 14-2 10-1 21 2 32 5s23 7 36 7c8 0 17-2 26-7s15-12 18-20c6-12 8-25 9-37 2-12 5-23 9-30 8-11 20-21 35-29 15-7 31-10 45-10 17 0 33 7 50 16 16 9 34 18 55 18 4 0 8 0 11-1 18-3 31-17 38-32 11-25 13-49 19-70 5-21 12-39 31-57 29-26 67-41 107-47 13-2 26-3 40-3 74 0 150 28 212 75 62 46 109 110 125 182zl-9 2zM9857 3317l8-2c-17-77-66-144-131-193-65-48-145-77-223-77q-21 0-42 3c-42 6-84 22-116 51-22 21-31 43-36 66-6 22-9 44-18 67-5 11-15 20-25 22-3 0-5 1-8 1-16 0-31-8-48-17-17-8-36-18-57-18h-1c-17 0-35 5-52 13s-32 19-42 34c-9 15-10 33-13 49-1 7-3 14-6 20-2 6-6 10-11 13-6 3-11 4-18 4-9 0-20-3-31-6s-23-6-36-6c-7 0-13 1-20 3-12 5-20 10-26 17-8 11-10 22-11 31-1 10-2 17-6 22-3 3-6 6-11 7-4 2-10 2-17 2-14 0-33-3-55-5h-6c-24 0-43 14-58 26-14 13-22 25-22 25l-10 14h1385l2-4c1-2 3-6 3-12 0-14-7-41-42-96-11-17-24-29-37-36s-27-10-40-10c-18 0-36 5-50 10-15 5-27 9-34 9-6 0-10-2-14-4-6-4-10-10-13-16-1-2-2-5-3-6v-2l-1-1zl8-2zl-8 2zl-8 2zl-8 2c0 1 2 10 9 21 3 5 8 10 14 14 7 4 15 7 24 7 12 0 25-5 39-10 14-4 30-9 45-9 11 0 21 2 32 8 10 6 20 15 30 31 35 53 40 78 40 86 0 2-1 3-1 3v1l4 1-3-2-1 1 4 1-3-2 7 4v-8H8726v8l7 5c2-3 10-14 22-24 12-11 28-20 44-20l4 1c22 1 40 4 57 4 8 0 15 0 23-3 7-2 13-6 18-13 5-6 8-13 9-20 1-10 2-19 4-25 3-7 8-13 23-19 4-1 9-2 14-2 9 0 20 3 32 6 11 3 23 6 35 6 9 0 18-1 26-6 9-5 15-13 19-21 5-12 7-25 9-37 2-11 4-22 9-29 7-12 20-22 34-29 15-7 31-11 45-11h1c16 0 32 8 49 17 17 8 35 18 56 18 3 0 7 0 11-1 18-3 31-17 37-33 11-25 14-48 19-69s12-39 32-57c29-27 67-42 106-47 13-2 27-3 40-3 74 0 151 28 213 74s109 111 125 183zM7670 3139l9-2c-26-117-102-219-200-292-99-74-220-118-339-118-21 0-43 1-64 4-64 9-126 33-175 78-33 30-46 64-54 98-9 34-13 68-28 103-8 18-23 34-41 37-5 1-9 1-13 1-25 0-50-12-76-25-26-14-53-28-85-28h-1c-25 0-53 7-78 19s-48 29-62 51-15 49-20 73c-2 12-5 23-9 32s-10 16-20 22c-9 5-18 7-29 7-15 0-31-4-49-9-17-5-35-10-54-10-9 0-19 2-29 5-17 6-29 15-37 25-13 14-15 31-16 45-2 15-4 26-11 35-5 6-11 10-18 13-8 2-17 3-28 3-23 0-51-4-85-7h-8c-35 0-64 19-86 38-21 19-34 37-34 38l-9 13h2109l3-4c1-1 3-6 3-15 0-20-10-61-64-144-17-26-35-44-55-54-19-11-39-15-59-15-27 0-53 7-75 15-22 7-41 14-53 14-10 0-18-3-25-8-10-6-16-16-21-25-2-4-3-8-4-11l-1-3v-1l-1-1zl9-2zl-8 3c1 3 5 18 15 32s28 28 53 28c17 0 36-8 58-15s46-14 70-14c17 0 34 3 51 13 17 9 33 24 49 48 53 82 61 121 61 135 0 3-1 5-1 6v1l3 1-3-2v1l3 1-3-2 7 5v-9H5937v9l7 5 1-1c2-4 15-21 35-37 19-17 44-31 70-31h7c33 3 61 8 86 8 12 0 23-2 33-5s20-9 27-18 10-20 12-29c2-15 2-29 7-41 5-11 14-21 37-30 7-3 15-4 23-4 16 0 33 5 50 9 17 5 35 10 53 10 13 0 26-2 38-9 12-8 21-18 26-30 9-17 11-36 14-55 3-18 6-35 14-47 12-19 32-35 55-46s49-17 71-17h1c26 0 51 13 77 26s53 27 84 27c5 0 10 0 16-1 25-5 44-25 54-47 16-38 20-74 28-106s20-62 50-90c45-41 104-64 165-73 21-3 41-4 62-4 115 0 233 43 329 114 95 72 168 171 193 283v1zM8161 6010s-124-130-89-126 100 101 100 101 1-213 32-167c31 47-7 168-7 168s89-139 89-116c-1 70-69 125-69 125s143-106 120-63c-24 43-115 83-115 83s164-33 106-10c-58 24-114 40-114 40h-45s-156-78-97-66c58 11 89 31 89 31M9810 5605s-97-101-70-98 78 79 78 79 1-166 25-130c24 37-5 130-5 130s69-108 69-90c-1 55-54 97-54 97s111-82 93-49c-18 34-89 65-89 65s128-26 82-7c-45 18-88 30-88 30h-36s-120-60-75-51 70 24 70 24M11340 5244s-97-101-70-98 78 79 78 79 1-166 25-130c25 36-5 130-5 130s69-108 69-90c0 55-53 97-53 97s111-82 92-49c-18 34-89 65-89 65s128-26 83-7c-46 18-89 30-89 30h-35s-121-60-76-51c46 9 70 24 70 24" class="fil3"/><path d="M9390 6069s-116-121-84-117c33 4 94 94 94 94s1-199 30-155c29 43-7 155-7 155s83-129 83-108c-1 66-64 117-64 117s132-99 111-59c-22 40-107 78-107 78s153-31 99-9c-55 21-106 36-106 36h-43s-144-72-90-61c55 11 84 29 84 29" class="fil0"/><path d="M7100 5541 6068 4384l-224 180-1123-1692-979 218-293-546-284-15-543-1069-811 740-390-139L0 3510l12 12 1414-1441 389 139 802-733 537 1059 285 15 294 549 980-219 1127 1698 226-181 1021 1145zM7293 5757l-108-120-13 11 108 121z" class="fil3"/><path d="m3209 3232-85 23 4 17 85-23zM3733 3090l-429 117 5 16 428-116zM2126 2611l241-357-16-122 274-557-15-7-277 561 17 121-239 351zM2025 2759l60-89-14-10-60 89zM1639 2959l-389 527 14 10 389-527zM1435 2134l98 220 217 177-24 309-51 70 14 10 54-74 25-322-221-180-96-217zM3438 2546l-195 186-67-112-15 9 79 131 210-201zM11637 4711l-1582-1116-480 677-590-197-915 1280-589-126-299 256 11 13 292-250 592 126 914-1279 591 197 477-673 1568 1106z" class="fil3"/><path d="m10048 3605-185 813-211-92-7 15 231 101 189-833zM8985 4131l-460 1338-310-53-3 16 324 57 465-1353z" class="fil3"/><path d="M8972 4037c-410 0-743 330-743 737 0 189 72 361 189 492 54-8 152-14 260 23 144 49 233 129 253 148h66c20-19 109-99 253-148 118-40 223-30 273-21 119-131 191-304 191-494 0-407-332-737-742-737" class="fil0"/><path d="M9317 5070c-23 11-45 22-68 34-22 13-44 26-65 40-7 6-15 11-22 17l121-227-167 262c-17 13-33 27-49 41-27 24-54 48-79 72l-9-245 175-266-176 228-8-220-12 246v1l-13 246c-22-21-45-42-68-62-18-16-37-31-56-46l-158-270 116 238c-7-5-13-10-20-15-21-14-42-27-65-40-22-12-45-23-68-34-45-22-92-42-140-59 47 19 92 43 135 67 22 12 44 25 65 38s41 27 60 43c39 30 74 64 109 98 30 30 60 61 88 92l-16 313h73l-10-300c31-36 64-71 98-105 35-34 71-68 109-98 20-16 40-30 61-43s42-26 64-38c44-24 89-48 136-67-49 17-95 37-141 59" class="fil3"/><path d="M3273 5049c0 211-119 227-265 227-147 0-266-16-266-227 0-212 119-655 266-655 146 0 265 443 265 655" class="fil0"/><path d="m3097 5145-43 3 114-77-82 41 11-32-37 45-44 22-3-152 23-56-24 32-2-89 73-97-73 75-5-194-4 125-46-52 46 75-7 197-40-26-37-66 15 51-73-47 135 116-21 646h56l-12-513 13-8z" class="fil3"/><path d="M10408 4319c0 414-232 445-518 445s-519-31-519-445 233-1279 519-1279 518 865 518 1279" class="fil0"/><path d="M9890 4764c-62 0-121-1-176-8-200-23-343-112-343-437 0-414 233-1279 519-1279s518 865 518 1279-232 445-518 445" style="fill:#a2d3b9;fill-rule:nonzero"/><path d="m10065 4507-86 6 224-151-160 81 22-63-73 89-85 43-7-297 45-110-46 62-4-173 142-189-143 146-9-379-7 243-92-102 90 148-12 385-79-52-73-128 29 100-142-93 263 227-40 1262h109l-23-1001 25-17z" class="fil3"/><path d="M11518 4482c0 212-119 228-265 228-147 0-266-16-266-228s119-654 266-654c146 0 265 442 265 654" class="fil0"/><path d="M11253 4710c-17 0-33 0-49-1-123-5-217-39-217-227 0-212 119-654 266-654 146 0 265 442 265 654 0 55-8 97-23 129-2 5-5 10-8 15-44 76-133 84-234 84" class="fil5"/><path d="m11342 4578-44 3 115-77-82 41 11-32-37 46-44 22-3-152 23-57-24 32-2-88 73-97-73 75-5-194-4 124-46-52 45 76-6 197-40-27-37-65 14 51-72-48 134 116-20 646h55l-11-512 12-9z" class="fil3"/><path d="M705 4303c0 212-119 228-266 228-146 0-265-16-265-228s119-655 265-655c147 0 266 443 266 655" class="fil0"/><path d="M439 4531c-146 0-265-16-265-228s119-655 265-655c147 0 266 443 266 655s-119 228-266 228" class="fil5"/><path d="m529 4399-44 3 114-77-81 41 11-32-37 46-44 22-4-152 24-57-24 32-2-88 73-97-74 75-4-194-4 124-47-52 46 76-6 197-41-27-37-66 15 52-72-48 134 116-20 646h55l-12-512 13-9z" class="fil3"/><path d="M2019 3823c-410 0-742 330-742 737 0 189 71 361 189 491 54-8 152-13 260 24 143 49 233 129 252 147h67c19-18 109-98 252-147 118-40 224-30 274-22 118-130 190-303 190-493 0-407-332-737-742-737" class="fil0"/><path d="M2045 5222h-67c-19-18-109-98-252-147-67-23-129-29-180-29-32 0-59 2-80 5-118-130-189-302-189-491 0-407 332-737 742-737s742 330 742 737c0 190-72 363-190 493-22-3-54-7-94-7-51 0-113 6-180 29-143 49-233 129-252 147" style="fill:#a4d3bb;fill-rule:nonzero"/><path d="M2365 4856c-23 11-46 22-68 34-23 12-44 25-65 40-8 5-15 11-23 16l122-226-167 261c-17 14-34 28-50 42-27 23-53 47-79 72l-8-246 174-266-176 229-7-220-13 246-12 247c-23-21-45-42-68-62-19-16-37-32-56-47l-158-269 116 237c-7-5-14-9-20-14-21-15-43-28-65-40-23-12-45-23-68-34-46-22-92-43-141-60 47 20 92 43 136 68 22 12 43 25 64 38s41 27 61 42c38 31 74 64 109 98q45 45 87 93l-16 313h73l-10-300c31-36 65-72 99-106 35-34 70-67 109-98q28.5-22.5 60-42c21-13 43-26 65-38 44-25 88-48 135-68-48 17-95 38-140 60M3634 4919h446V3683zm446 1104v-680h-884v-435l758-1796h647v1807h280v424h-280v680zM5923 5535c65 0 112-20 141-61 28-40 47-89 57-145 10-57 14-109 14-157V3889q0-78-12-165c-9-57-27-107-56-149q-43.5-63-144-63c-67 0-115 21-145 63s-49 92-58 149q-12 87-12 165v1283c0 48 5 100 14 157 10 56 30 105 61 145 31 41 78 61 140 61m0 489c-175 0-319-36-434-108s-202-170-259-296c-58-126-86-272-86-437V3879c0-170 27-320 82-448q82.5-192 255-300c115-72 263-108 442-108 178 0 323 36 437 108s198 172 253 300 83 278 83 448v1304c0 165-29 311-86 437-58 126-144 224-259 296s-258 108-428 108M7436 4919h446V3683zm446 1104v-680h-884v-435l758-1796h647v1807h280v424h-280v680z" class="fil3"/><path d="M11609 4757c-1176 652-3256 1086-5626 1086-1310 0-2532-132-3562-361-1029-229-1866-554-2406-938l-10 13c543 387 1382 712 2413 941 1030 230 2253 362 3565 362 2372 0 4454-433 5634-1088zM11857 4608c-51 33-103 66-158 98l9 15c55-32 108-65 158-99z" class="fil3"/><path d="M11142 4448c0 432-243 465-542 465-300 0-542-33-542-465 0-433 242-1338 542-1338 299 0 542 905 542 1338" class="fil0"/><path d="m10783 4644-90 6 234-157-167 84 23-66-76 93-90 45-7-311 48-115-49 65-4-180 148-198-149 153-9-397-8 254-95-106 93 155-12 402-83-54-76-134 30 104-148-97 275 237-42 1320h113l-24-1046 27-18z" class="fil3"/><path d="M10563 5759s-200-208-144-201c56 6 162 161 162 161s1-342 51-267-12 268-12 268 143-222 143-186c-1 113-110 201-110 201s228-170 191-101-184 133-184 133 264-53 170-15c-93 37-182 63-182 63h-73s-249-125-155-106c93 19 143 50 143 50M979 5501s-173-179-124-174c49 6 139 140 139 140s2-296 45-231-10 232-10 232 123-192 123-161c-1 97-95 173-95 173s198-146 165-87c-32 60-158 116-158 116s227-46 146-14c-81 33-158 55-158 55h-62s-216-108-135-92 124 43 124 43" class="fil3"/><path d="M1605 4212c0 433-243 466-543 466-299 0-542-33-542-466s243-1339 542-1339c300 0 543 906 543 1339" class="fil0"/><path d="m1246 4408-90 7 234-158-167 84 23-66-77 93-89 46-7-312 47-115-48 65-4-180 148-199-150 154-9-397-8 254-95-107 94 156-13 402-83-54-76-134 31 104-149-97 275 237-41 1322h113l-24-1048 26-18zM2874 5952s-173-180-125-174c49 5 140 139 140 139s1-295 44-230c43 64-10 232-10 232s124-193 124-162c-1 98-96 174-96 174s198-147 166-87c-33 59-159 115-159 115s228-46 147-13c-81 32-158 54-158 54h-63s-215-108-134-91c81 16 124 43 124 43M3792 6345s-173-180-124-174c48 5 139 139 139 139s2-295 45-231c43 65-10 232-10 232s123-192 123-161c-1 98-95 174-95 174s197-147 165-87c-32 59-159 115-159 115s228-46 147-13c-81 32-158 54-158 54h-63s-215-108-134-92c81 17 124 44 124 44M6256 6081s-125-130-90-126 100 101 100 101 1-213 33-166c31 46-8 167-8 167s89-139 89-116c0 70-68 125-68 125s142-106 119-63c-24 43-115 83-115 83s165-33 106-10c-58 24-114 40-114 40h-45s-155-78-97-66c59 11 90 31 90 31M11101 5771s-97-100-70-97 78 78 78 78 1-166 25-130c24 37-6 131-6 131s70-108 70-91c-1 55-54 98-54 98s111-83 93-49c-18 33-89 65-89 65s128-26 82-8c-45 18-88 31-88 31h-36s-120-61-75-52 70 24 70 24" class="fil3"/><path d="M4560 6082s-173-180-124-174c48 5 139 139 139 139s2-295 45-231c43 65-10 232-10 232s123-192 123-161c-1 98-95 174-95 174s197-147 165-87c-32 59-159 115-159 115s228-46 147-14c-81 33-158 55-158 55h-63s-215-108-134-92c81 17 124 44 124 44M3312 5962s-116-120-84-116c33 3 94 93 94 93s1-198 29-154c29 43-6 155-6 155s83-129 82-108c0 65-63 116-63 116s132-98 110-58c-21 40-106 77-106 77s153-30 98-9c-54 22-105 37-105 37h-43s-144-72-90-62c55 11 84 29 84 29M1862 6437s-116-120-84-116c33 3 94 93 94 93s1-198 30-155c29 44-7 156-7 156s83-129 83-108c-1 65-64 116-64 116s132-98 111-58c-22 40-107 77-107 77s153-31 99-9c-55 22-106 37-106 37h-43s-144-73-90-62c55 11 84 29 84 29M5744 6461s-116-121-84-117c33 4 94 93 94 93s1-198 29-154c29 43-6 155-6 155s83-129 82-108c0 66-63 117-63 117s132-99 110-59c-21 40-106 78-106 78s153-31 99-9c-55 21-106 36-106 36h-43s-144-72-90-61c55 10 84 29 84 29M7626 6467s-116-120-83-117c32 4 93 94 93 94s1-198 30-155-7 156-7 156 83-130 83-108c-1 65-64 116-64 116s133-98 111-59c-22 40-106 78-106 78s152-31 98-9-106 36-106 36h-42s-144-72-90-61 83 29 83 29M11126 6091s-176-183-127-178c50 6 143 143 143 143s1-302 45-236-10 237-10 237 126-197 126-165c-1 100-97 177-97 177s201-149 168-88c-33 60-162 117-162 117s233-46 150-13c-82 33-161 55-161 55h-64s-220-110-137-93c82 16 126 44 126 44M600 6091s-177-183-127-178c49 6 142 143 142 143s1-302 45-236-10 237-10 237 126-197 126-165c-1 100-97 177-97 177s202-149 169-88c-33 60-162 117-162 117s232-46 149-13c-82 33-161 55-161 55h-64s-220-110-137-93c83 16 127 44 127 44M1471 5832s-181-311-129-336c51-24 158 214 158 214s-21-447 28-406c48 41 92 357 92 357s97-343 128-271-25 291-25 291 138-264 152-178-66 227-66 227 183-182 196-110c14 72-48 145-48 145s241-131 182-59c-58 72-144 165-144 165s230-82 203-34c-28 48-131 100-131 100s189-35 169-4c-21 31-69 61-69 61h-856s-227-82-138-88c90-7 172 31 172 31s-278-190-148-203c131-14 238 151 238 151s-186-261-121-220z" class="fil0"/><path d="M1483 5921s-234-242-168-235c65 8 188 189 188 189s2-399 60-312c58 88-13 313-13 313s166-259 166-217c-1 131-129 234-129 234s267-198 223-118c-43 80-214 156-214 156s308-62 198-18c-109 44-213 74-213 74h-85s-290-146-181-124c110 22 168 58 168 58" class="fil3"/><path d="m1483 5921 6-6-8-8c-17-18-60-64-98-109-19-23-38-46-51-65-6-9-12-18-15-25-4-6-5-12-5-14l-2-1 1 2 1-1-2-1 1 2h3c13 1 32 13 52 30 31 27 63 65 88 97 12 16 23 30 30 41q6 7.5 9 12c2 3 3 4 3 4l15 23 1-27v-51c2-45 4-113 11-170 3-28 7-53 12-71 3-9 6-16 8-20 2-2 3-3 4-3v-1s1 0 2 1c2 2 4 4 7 8 15 23 21 58 21 97 0 48-9 100-18 140-4 20-9 38-12 50-2 6-3 10-4 14-1 3-2 5-2 5l-19 61 35-54s9-14 22-35c21-31 52-78 80-117 14-19 27-36 38-49 5-6 9-11 13-14 2-1 3-3 4-3l-1-4v4h1l-1-4v4-6l-3 5 3 1v-6l-3 5 3-5-6 2s1 2 3 3l3-5-6 2 3-1h-3v1l3-1h-3v1c0 63-31 120-63 161-15 21-31 37-43 49-5 5-10 10-14 13-1 1-3 2-4 3l-1 1 11 14s11-9 29-22c27-19 67-47 105-71 19-12 37-23 52-30 7-4 13-7 19-9 5-2 9-3 11-3l1-4-3 2 2 2 1-4-3 2 4-2-4 1v1l4-2-4 1h1-1 1-1s-1 4-4 9c-20 37-73 77-120 105-24 14-47 26-63 34-9 5-15 8-20 10s-7 3-7 3l-71 32 76-15s10-3 27-6c24-4 62-12 98-18s70-10 85-10h5l2-5-4 4 2 1 2-5-4 4 6-5h-8c0 2 1 4 2 5l6-5h-8 7l-6-4c0 1-1 2-1 4h7l-6-4 3 2-2-3-1 1 3 2-2-3c0 1-2 2-6 4-3 1-8 3-14 6-54 22-107 40-147 53-20 6-36 11-47 15-12 3-18 5-18 5l2 9v-9h-85v9l4-8s-13-7-32-17c-29-14-72-37-108-58-18-11-34-21-45-29-6-4-10-7-13-10l-3-3-1 1 1-1-1 1 1-1-5 2h5v-2l-5 2h5-6l5 3 1-3h-6l5 3-4-3 2 5 2-2-4-3 2 5-1-3 1 3-1-3 1 3h2c3 0 8 1 16 2 54 11 95 25 123 37 14 6 24 11 31 15 3 1 6 3 8 4l2 1 59 37-48-50zl4-7c0-1-60-38-170-60-8-1-14-2-19-2-3 0-6 0-9 2-2 0-3 1-5 3-1 2-2 5-2 7 0 5 3 7 4 10 4 4 10 9 17 14 26 19 73 45 114 67s75 39 75 39l2 1h90s104-30 214-74c8-4 14-6 18-9 3-1 5-2 6-4l3-3c1-1 1-3 1-5s0-4-1-5c-2-3-4-4-5-5-2 0-4-1-6-1h-6c-12 0-31 2-53 5-66 10-160 29-160 29l1 8 4 8s43-19 91-48c49-30 103-69 127-112 3-6 6-11 6-17 0-4-2-8-5-11s-7-3-10-3q-10.5 0-24 6c-31 14-81 47-124 76-43 30-79 56-79 56l5 7 6 6s32-26 65-69c32-43 66-103 66-171 0-3 0-5-2-8 0-1-2-3-4-4-1-1-3-1-5-1-5 0-7 2-10 4-6 4-11 10-18 18-24 27-59 78-89 122s-54 82-54 82l8 4 8 3c0-1 36-115 36-214 0-40-6-79-24-107-3-4-6-8-10-11s-8-5-13-5-10 3-13 6c-7 7-11 16-14 28-7 20-11 49-15 81-10 95-11 217-11 218h9l7-5s-31-46-70-92c-20-24-41-47-62-66-22-18-42-32-62-34h-4c-4 0-9 1-12 4-4 3-5 8-5 12 0 8 3 16 8 26 19 33 62 84 100 128 39 43 74 79 74 79zl4-7z" class="fil3"/><path d="M9170 6381s-341-589-244-635c97-45 299 403 299 403s-39-845 52-767 175 676 175 676 182-650 241-513c58 136-47 549-47 549s261-497 287-335c26 163-123 429-123 429s344-344 370-208-91 273-91 273 455-247 345-111c-111 137-273 312-273 312s435-156 383-65-247 189-247 189 357-65 319-7c-39 59-130 116-130 116H8868s-429-155-260-168 325 59 325 59-527-358-280-384 448 286 448 286-350-494-227-416z" class="fil0"/><path d="M9192 6549s-441-458-317-444 356 356 356 356 3-754 113-589-25 592-25 592 314-491 314-411c-3 248-243 442-243 442s504-373 421-222c-82 152-404 295-404 295s581-117 374-35c-206 83-403 139-403 139h-160s-549-275-342-234c206 42 316 111 316 111" class="fil3"/><path d="m9192 6549 6-6s-5-6-14-16c-33-34-114-120-186-206-37-43-71-86-96-123q-19.5-27-30-48c-7-13-11-25-10-30 0-4 0-4 1-5 0-1 2-2 7-2 1 0 2 0 4 1 27 2 65 25 103 59 58 50 120 124 167 184 23 30 43 58 57 77 7 10 13 18 17 23 3 6 5 9 5 9l16 22v-53c1-59 4-205 16-337 6-65 14-127 25-172 5-23 11-41 18-53 3-6 6-10 9-13 3-2 5-3 7-3s5 1 9 4 9 8 14 16c30 45 41 113 41 187 0 91-17 191-34 267-8 39-17 71-23 94-3 12-6 21-8 27l-3 9-19 62 35-55s4-6 11-18c26-40 92-140 155-230 32-45 63-88 88-119 13-15 24-28 33-37 4-4 8-7 11-9l3-2h1v-1 1-1 1-4l-2 3 2 1v-4l-2 3 2-4-4 3 2 1 2-4-4 3 2-2-2 2 2-2-2 2v2h9-9c-1 121-60 230-120 309-30 39-60 71-82 93-11 11-21 19-27 25-3 3-6 5-8 6-1 2-2 3-2 3l10 13s6-4 15-11c34-25 119-86 204-142 42-27 84-54 119-73 18-9 34-17 47-22 13-6 23-8 28-8h4v2c0 3-2 10-8 21-40 73-140 147-230 201-45 27-88 50-119 65-16 8-29 14-38 19-9 4-14 6-14 6l-71 31 76-15s20-4 51-10c47-9 119-22 186-34 68-11 132-20 161-20 6 0 11 1 13 1h1l1-3-3 2 2 1 1-3-3 2 5-4h-6l1 4 5-4h-6 5l-4-2s-1 1-1 2h5l-4-2h1l-1-1v1h1l-1-1-1 1c-1 1-6 4-12 7q-10.5 6-27 12c-103 41-203 76-278 101-38 12-69 21-90 28-22 7-34 10-34 10l2 8v-8h-160v8l4-7s-6-3-17-9c-37-19-130-66-213-113-42-24-82-47-110-66-15-10-26-19-34-26-4-3-7-6-8-8l-2-3h-2 2-2 2-4l3 3 1-3h-4l3 3-2-2 1 3 1-1-2-2 1 3 1-1h6c7 0 17 1 31 4 103 20 181 48 234 70 27 11 47 21 60 28 7 3 12 6 15 8 2 1 3 2 4 2l1 1 59 37-49-50zl5-8c-1 0-112-69-320-111-14-3-25-4-34-4-5 0-10 0-14 2-2 1-4 2-6 5-1 2-2 5-2 7 0 6 3 10 6 14 6 8 17 17 30 26 48 35 137 85 214 126 78 41 143 74 143 74l2 1h165s196-57 403-140c16-6 27-11 35-16 4-2 7-4 10-6 1-2 2-3 3-4 1-2 2-4 2-7 0-2 0-4-1-5-2-3-4-4-6-5-3-1-6-2-9-2-4-1-7-1-12-1-21 0-56 4-98 10-124 18-303 54-303 54l2 9 3 8c0-1 81-36 173-91 91-56 193-129 236-208 6-12 10-21 10-29q0-9-6-15c-4-3-10-4-15-4-11 0-24 4-41 11-58 26-153 88-234 143-81 56-148 105-148 105l5 7 6 7s60-49 121-130c61-80 123-192 124-319h-3 3-3 3c0-4 0-7-2-11-1-2-3-3-5-5-2-1-4-1-6-1-7 0-11 3-16 6-8 7-19 18-32 32-44 52-111 148-167 231-56 84-102 154-102 154l8 5 8 2s68-216 68-402c0-75-11-146-44-196-6-9-12-16-17-20-6-5-13-8-20-8-8 0-15 4-20 9-10 11-18 28-25 49-11 38-20 92-26 152-20 179-21 411-21 411h9l7-5c-1 0-59-86-132-173-37-44-78-89-118-123-39-34-78-59-112-63-2-1-4-1-6-1-7 0-14 2-19 6-5 5-7 12-7 18 1 12 7 27 16 44 33 61 115 158 188 241 73 82 138 149 138 149zl5-8z" class="fil3"/><path d="M2060 5850s35-32 65-32 121 44 121 44 37 57 40 60c4 4 49 23 52 31s10 34 10 34h-280l-51-136z" class="fil1"/><path d="m2060 5850 6 6 1-1c3-3 12-10 23-16 11-7 24-12 35-12 5 0 17 2 29 6 19 6 41 16 58 23 9 4 17 8 22 10 6 3 9 4 9 4l3-8-7 5s9 14 19 29c5 7 10 14 14 20 2 3 3 6 5 8l2 2 1 2 3 2c3 2 6 4 11 6 8 4 17 9 25 13 3 2 7 4 9 6l2 2h1l2-2-3 1 1 1 2-2-3 1c1 3 4 12 6 19l4 14 8-2v-9h-274l-45-119 34-1 3-2zv-9l-56 2 58 152h297l-3-11s-1-6-3-14c-3-7-5-16-7-21q-3-4.5-6-6c-3-3-7-6-13-9-7-4-16-8-23-12-4-2-7-3-9-5l-3-1-2 3 3-3h-1l-2 3 3-3-3 3 3-3-3 3 3-3-3-3c-4-7-14-21-22-33s-14-22-14-22l-2-2-2-1s-23-11-50-23c-13-5-28-11-41-15s-25-7-34-7c-18 0-35 9-48 17s-23 16-23 17zv-9z" class="fil3"/><path d="m2125 5818-2 27s72 42 70 57c-1 15-16 50-16 50l36 38h-195l15-115s42-60 92-57" class="fil3"/><path d="M1695 5833s140-209 172-213c32-3 98 24 123 67s48 128 50 133 8 8 47 70c38 62 36 97 36 97h-541s12-55 32-87 66-43 66-43z" class="fil1"/><path d="m1695 5833 8 5s8-13 22-33c20-29 51-73 80-111 15-18 29-35 40-47 6-6 11-11 16-14 2-2 3-3 5-3l1-1h6c14-1 37 6 58 17s41 27 52 45c12 21 24 53 33 80 4 13 8 25 11 35 1 4 2 8 3 11s2 5 2 6c1 2 2 4 4 6 2 4 6 8 12 18 7 10 17 24 31 47 35 56 36 88 36 92h1-1 1-1l8 1v-9h-541v9l9 1s0-3 2-8c4-17 14-54 28-75 9-14 24-24 37-31 7-3 13-5 18-7 2-1 4-1 5-2h1l4-1 17-26zl8 5zl-7-4-15 23 7 5-2-9s-12 3-27 11c-15 7-33 18-44 36-11 17-19 40-25 58-5 18-8 32-8 32l-2 10h559l1-8v-1c0-7-2-43-38-101-19-30-31-47-37-56-4-5-6-8-7-10l-2-1v-1s-1-2-1-5c-3-10-10-33-19-57-8-25-19-53-30-72h-1c-13-23-35-40-58-52-23-13-48-20-66-20-3 0-5 1-7 1-4 0-7 2-11 4-6 4-13 10-20 18-27 27-63 75-93 117s-54 78-54 78z" class="fil3"/><path d="M1910 5983s-15-36-16-41c-2-5-2-54-7-74s-47-81-47-81l30-87-15-11 25-62-14-7c-33 6-171 213-171 213l-15 24s-46 11-66 43c-17 27-28 71-31 83z" class="fil3"/><path d="M7452 5902s22-20 41-20 76 28 76 28 23 35 25 37c2 3 30 15 33 20 2 4 6 21 6 21h-176l-32-85z" class="fil1"/><path d="m7452 5902 6 6h1c2-2 7-6 14-10 6-4 14-7 20-7 3 0 10 1 17 4 12 4 26 9 37 14 5 2 10 5 13 6 3 2 5 3 5 3l4-8-7 5s6 8 12 18c3 4 6 9 8 12 2 2 3 4 4 5l1 2 1 1 2 2c2 1 5 3 8 4 4 2 10 5 15 8 2 1 4 2 5 3l1 1 4-3-4 2v1l4-3-4 2c0 1 2 7 3 11 1 5 2 9 2 9l9-2v-9h-170l-26-68h19l2-3zv-8l-39 1 39 101h192l-3-10s-1-5-2-9c-2-5-3-10-5-14-1-3-2-4-4-5q-3-3-9-6c-4-3-10-5-14-8-3-1-5-2-6-2l-1-1h-1l-3 4 4-4h-1l-3 4 4-4-3 4 4-3-1-1-3 4 4-3c-1-1-3-4-5-7-8-11-20-30-20-30l-1-2-2-1s-15-7-32-14c-8-3-17-7-26-10-8-2-15-4-22-4-12 0-24 6-32 11-9 5-14 11-15 11zv-8z" class="fil3"/><path d="m7493 5882-1 17s45 26 44 36c-1 9-11 31-11 31l23 24h-122l9-72s27-38 58-36" class="fil3"/><path d="M7224 5892s87-132 107-134 62 15 77 42c16 27 31 80 32 83 1 4 5 6 29 44 24 39 23 61 23 61h-339s7-35 19-55c13-19 42-27 42-27z" class="fil1"/><path d="m7224 5892 7 4s5-8 14-20c12-18 32-46 50-69 9-12 18-22 25-30 4-4 7-7 9-8l3-2v-2 2-2 2l3-1c8 0 22 4 35 11s25 16 31 27c7 13 15 33 20 49 3 9 6 16 7 22 1 3 2 6 2 7 1 2 1 3 2 4 0 2 1 4 2 5 2 2 4 5 8 11 5 6 11 15 20 30 21 34 21 54 21 55l4 1-4-1 4 1-4-1 9 1v-9h-339v9l8 2s0-2 1-6c3-10 9-33 18-46 5-8 14-14 22-18 4-2 8-3 10-4l3-1h1l4-1 11-18zl7 4zl-8-5-9 15 7 4-2-8s-8 2-18 7c-9 4-21 12-29 24-7 11-12 25-15 37-4 11-6 20-6 20l-2 10h358v-9c0-4-1-28-24-64-12-20-19-30-23-36-3-3-4-5-5-6v-1l-3 1h3v-1l-3 1h3s-1-2-1-3c-2-7-6-21-12-37-5-15-12-33-19-45-9-15-23-26-38-34s-31-13-43-13l-5 1c-3 0-6 1-8 3-4 2-9 6-13 11-17 18-40 48-59 74-19 27-34 49-34 49z" class="fil3"/><path d="M7358 5986s-9-23-10-26c-1-4-1-34-4-46-3-13-30-51-30-51l19-55-9-7 15-39-8-4c-21 4-107 134-107 134l-10 14s-29 8-42 27c-10 17-17 45-19 53z" class="fil3"/><path d="M10283 6414s66-59 123-59 230 83 230 83 69 106 75 113c7 6 92 42 98 57s19 64 19 64h-529l-97-256z" class="fil1"/><path d="m10283 6414 6 7 1-1c3-3 20-18 42-31 23-14 50-26 74-26 12 0 33 5 57 13 36 11 78 29 112 43 16 8 31 14 41 19s16 7 16 7l4-7-7 4s17 27 35 55c9 13 18 27 26 38 3 6 7 10 9 14 2 2 3 3 4 5l2 3 4 3c4 2 11 6 21 11 14 7 31 15 46 23q10.5 6 18 12c2 1 4 3 6 4l1 2 1-1-1 1 1-1-1 1c3 6 8 22 11 36 4 14 7 26 7 26l9-2v-8h-523l-91-239 73-2 2-2zv-8l-94 2 104 273h546l-3-11s-3-12-7-26c-4-15-9-31-12-39-2-4-5-7-8-10-6-5-15-10-24-15-14-8-30-16-44-23-7-3-13-6-17-8-2-2-4-3-5-3l-2-1-2 2 2-2-2 2 2-2c0-1-2-3-5-7-9-13-26-39-41-62s-28-43-28-43l-1-2-3-1s-43-21-94-42c-25-10-52-21-77-29-24-8-46-13-62-13-31 0-63 16-87 31s-41 31-41 31zv-8z" class="fil3"/><path d="m10406 6355-3 50s135 79 132 107-31 94-31 94l69 73h-368l28-217s79-114 173-107" class="fil3"/><path d="M9594 6383s264-397 324-403 186 44 233 126 91 242 95 252c3 9 15 15 88 132 72 116 69 182 69 182H9380s22-103 60-163 126-82 126-82z" class="fil1"/><path d="m9594 6383 7 5s4-7 12-17c25-38 90-133 155-219 33-43 65-84 93-114 14-15 26-28 36-36 6-5 10-8 14-10s7-3 8-3c3-1 6-1 10-1 29 0 73 12 114 33 41 22 80 53 101 89 23 40 46 100 63 152 8 25 16 49 21 66 3 9 5 16 6 22 2 5 3 9 3 10 2 4 4 7 7 11 4 6 11 15 24 33 13 19 31 47 58 90 66 106 68 169 68 177v1h9v-8H9380v8l9 2s0-1 1-4c4-21 25-106 57-157 18-27 48-47 74-60 13-6 25-11 33-14 5-1 8-2 10-3l3-1h1l3-1 30-47zl7 5zl-7-5-28 44 7 5-2-8c-1 0-23 5-51 19-27 13-60 34-80 66-20 31-35 73-45 106-11 34-16 60-16 61l-2 10h1041v-10c0-11-3-77-70-186-36-58-58-89-70-106-7-9-11-15-14-18-2-4-3-5-3-6-1-1-2-5-3-10-6-19-18-62-35-109-16-47-36-98-57-134-24-41-65-73-108-96-43-22-88-35-122-35-4 0-8 0-12 1-6 0-11 3-17 6-11 7-23 18-37 33-49 50-118 142-175 221-56 79-101 146-101 146z" class="fil3"/><path d="M10000 6666s-28-69-31-79c-4-9-4-100-13-138s-88-154-88-154l57-164-29-22 47-116-26-13c-62 12-323 403-323 403l-28 44s-88 22-126 82c-32 51-53 134-58 157z" class="fil3"/></g></g></svg>