<?xml version="1.0" encoding="UTF-8"?>
<!DOCTYPE svg PUBLIC "-//W3C//DTD SVG 1.1//EN" "http://www.w3.org/Graphics/SVG/1.1/DTD/svg11.dtd">
<!-- Creator: CorelDRAW X7 -->
<svg xmlns="http://www.w3.org/2000/svg" xml:space="preserve" width="26.8472mm" height="5.2214mm" version="1.1" style="shape-rendering:geometricPrecision; text-rendering:geometricPrecision; image-rendering:optimizeQuality; fill-rule:evenodd; clip-rule:evenodd"
viewBox="0 0 1662 323"
 xmlns:xlink="http://www.w3.org/1999/xlink">
 <defs>
  <style type="text/css">
   <![CDATA[
    .str0 {stroke:#0A9D89;stroke-width:6.19124;stroke-linecap:round;stroke-linejoin:round}
    .fil1 {fill:none;fill-rule:nonzero}
    .fil0 {fill:#087B82}
    .fil2 {fill:#087B82;fill-rule:nonzero}
    .fil3 {fill:#FFED00;fill-rule:nonzero}
   ]]>
  </style>
 </defs>
 <g id="Layer_x0020_1">
  <metadata id="CorelCorpID_0Corel-Layer"/>
  <g id="_1798062217392">
   <g>
    <path class="fil0" d="M184 252c2,-5 17,-15 24,-19 9,-6 18,-10 30,-14 5,-2 11,-3 17,-4 8,-2 13,-2 19,-3 18,-3 25,4 32,-11l0 -179c0,-9 2,-22 -14,-22 -39,0 -79,13 -101,42 -10,12 -8,11 -8,29 0,12 0,24 0,36 0,47 0,95 0,143 0,3 0,1 1,2z"/>
    <path class="fil0" d="M41 13l0 166c0,5 -1,20 0,24 3,7 8,8 16,8 20,0 45,5 62,12 13,5 24,11 35,20 1,1 9,9 10,9l0 -185c0,-6 1,-12 -2,-16 -21,-34 -59,-48 -98,-50 -5,-1 -12,-2 -16,0 -4,2 -7,6 -7,12z"/>
    <path class="fil0" d="M0 55l0 198c0,7 6,14 15,12 34,-7 70,-12 104,-7l27 4c-2,-4 -14,-11 -17,-14 -6,-3 -14,-6 -21,-9 -15,-5 -34,-9 -52,-9 -21,0 -34,-13 -34,-33l0 -154c-10,0 -22,0 -22,12z"/>
    <path class="fil0" d="M323 206c0,6 -4,11 -7,14 -12,13 -23,9 -35,10 -3,1 -7,1 -10,1 -19,2 -42,10 -58,20l-9 8c-3,2 -2,1 -3,3l22 -4c8,-1 16,-1 24,-2 22,-2 49,2 71,6 6,1 15,5 21,2 8,-4 7,-9 7,-19 0,-8 1,-17 0,-25 0,-48 0,-101 0,-149 0,-15 4,-31 -21,-28 -1,4 0,34 0,41l0 113c0,2 -1,10 -1,9 0,0 0,0 -1,0z"/>
   </g>
   <g>
    <path class="fil1 str0" d="M538 154l-45 0 0 69c0,10 -2,17 -7,22 -5,6 -11,8 -18,8 -7,0 -13,-2 -17,-7 -5,-5 -7,-13 -7,-23l0 -187c0,-10 2,-18 7,-23 5,-4 13,-7 24,-7l63 0c19,0 33,2 43,5 10,2 19,7 26,13 7,7 12,15 16,24 4,9 6,20 6,31 0,25 -8,44 -23,56 -15,13 -38,19 -68,19zm-12 -111l-33 0 0 75 33 0c12,0 21,-2 29,-4 8,-3 14,-7 18,-12 4,-6 6,-13 6,-22 0,-10 -3,-19 -9,-26 -7,-7 -22,-11 -44,-11z"/>
    <path id="1" class="fil2" d="M538 154l-45 0 0 69c0,10 -2,17 -7,22 -5,6 -11,8 -18,8 -7,0 -13,-2 -17,-7 -5,-5 -7,-13 -7,-23l0 -187c0,-10 2,-18 7,-23 5,-4 13,-7 24,-7l63 0c19,0 33,2 43,5 10,2 19,7 26,13 7,7 12,15 16,24 4,9 6,20 6,31 0,25 -8,44 -23,56 -15,13 -38,19 -68,19zm-12 -111l-33 0 0 75 33 0c12,0 21,-2 29,-4 8,-3 14,-7 18,-12 4,-6 6,-13 6,-22 0,-10 -3,-19 -9,-26 -7,-7 -22,-11 -44,-11z"/>
   </g>
   <g>
    <path class="fil1 str0" d="M712 188l0 38c0,9 -3,16 -7,20 -4,5 -10,7 -16,7 -7,0 -12,-2 -16,-7 -4,-5 -7,-11 -7,-20l0 -126c0,-20 8,-31 22,-31 8,0 13,3 17,8 3,4 5,11 5,21 5,-10 11,-17 17,-21 5,-5 13,-8 22,-8 10,0 19,3 28,8 9,4 13,11 13,18 0,6 -1,10 -5,14 -4,4 -8,5 -13,5 -1,0 -5,-1 -12,-3 -6,-2 -12,-3 -16,-3 -7,0 -12,2 -17,6 -4,3 -7,8 -9,15 -3,7 -4,15 -5,24 -1,10 -1,21 -1,35z"/>
    <path id="1" class="fil2" d="M712 188l0 38c0,9 -3,16 -7,20 -4,5 -10,7 -16,7 -7,0 -12,-2 -16,-7 -4,-5 -7,-11 -7,-20l0 -126c0,-20 8,-31 22,-31 8,0 13,3 17,8 3,4 5,11 5,21 5,-10 11,-17 17,-21 5,-5 13,-8 22,-8 10,0 19,3 28,8 9,4 13,11 13,18 0,6 -1,10 -5,14 -4,4 -8,5 -13,5 -1,0 -5,-1 -12,-3 -6,-2 -12,-3 -16,-3 -7,0 -12,2 -17,6 -4,3 -7,8 -9,15 -3,7 -4,15 -5,24 -1,10 -1,21 -1,35z"/>
   </g>
   <g>
    <path class="fil1 str0" d="M933 172l-89 0c1,11 3,20 7,28 4,7 9,13 16,17 6,4 14,6 22,6 5,0 10,0 15,-2 4,-1 8,-3 13,-6 4,-2 8,-5 11,-8 4,-3 8,-8 14,-13 2,-2 6,-3 10,-3 4,0 8,1 11,4 3,2 4,6 4,11 0,4 -1,8 -4,14 -4,5 -8,11 -15,16 -6,5 -14,9 -24,12 -10,3 -21,5 -34,5 -29,0 -51,-8 -68,-25 -16,-16 -24,-39 -24,-67 0,-13 2,-26 6,-37 4,-12 10,-21 18,-30 7,-8 17,-14 28,-18 11,-5 23,-7 37,-7 17,0 33,4 45,11 13,8 22,17 29,29 6,12 9,24 9,36 0,12 -3,19 -10,22 -6,4 -15,5 -27,5zm-89 -25l82 0c-1,-16 -5,-27 -12,-35 -7,-8 -17,-11 -29,-11 -11,0 -20,3 -27,11 -8,8 -12,19 -14,35z"/>
    <path id="1" class="fil2" d="M933 172l-89 0c1,11 3,20 7,28 4,7 9,13 16,17 6,4 14,6 22,6 5,0 10,0 15,-2 4,-1 8,-3 13,-6 4,-2 8,-5 11,-8 4,-3 8,-8 14,-13 2,-2 6,-3 10,-3 4,0 8,1 11,4 3,2 4,6 4,11 0,4 -1,8 -4,14 -4,5 -8,11 -15,16 -6,5 -14,9 -24,12 -10,3 -21,5 -34,5 -29,0 -51,-8 -68,-25 -16,-16 -24,-39 -24,-67 0,-13 2,-26 6,-37 4,-12 10,-21 18,-30 7,-8 17,-14 28,-18 11,-5 23,-7 37,-7 17,0 33,4 45,11 13,8 22,17 29,29 6,12 9,24 9,36 0,12 -3,19 -10,22 -6,4 -15,5 -27,5zm-89 -25l82 0c-1,-16 -5,-27 -12,-35 -7,-8 -17,-11 -29,-11 -11,0 -20,3 -27,11 -8,8 -12,19 -14,35z"/>
   </g>
   <g>
    <path class="fil1 str0" d="M1045 95l0 5c9,-10 18,-18 27,-23 9,-5 19,-7 31,-7 14,0 27,3 38,10 12,8 21,18 28,32 7,14 10,30 10,49 0,14 -2,27 -6,38 -4,12 -9,22 -16,30 -7,7 -15,13 -24,18 -9,4 -19,6 -30,6 -13,0 -24,-3 -33,-8 -8,-5 -17,-12 -25,-23l0 68c0,20 -7,30 -21,30 -9,0 -14,-2 -17,-8 -3,-5 -4,-12 -4,-22l0 -195c0,-9 2,-15 5,-19 4,-4 9,-7 16,-7 6,0 11,3 15,7 4,4 6,11 6,19zm89 66c0,-12 -2,-23 -6,-31 -3,-9 -8,-15 -15,-20 -6,-4 -13,-7 -21,-7 -13,0 -23,5 -32,15 -8,10 -12,24 -12,43 0,18 4,32 12,42 9,10 19,15 32,15 7,0 14,-2 21,-6 6,-5 11,-11 15,-20 4,-9 6,-19 6,-31z"/>
    <path id="1" class="fil2" d="M1045 95l0 5c9,-10 18,-18 27,-23 9,-5 19,-7 31,-7 14,0 27,3 38,10 12,8 21,18 28,32 7,14 10,30 10,49 0,14 -2,27 -6,38 -4,12 -9,22 -16,30 -7,7 -15,13 -24,18 -9,4 -19,6 -30,6 -13,0 -24,-3 -33,-8 -8,-5 -17,-12 -25,-23l0 68c0,20 -7,30 -21,30 -9,0 -14,-2 -17,-8 -3,-5 -4,-12 -4,-22l0 -195c0,-9 2,-15 5,-19 4,-4 9,-7 16,-7 6,0 11,3 15,7 4,4 6,11 6,19zm89 66c0,-12 -2,-23 -6,-31 -3,-9 -8,-15 -15,-20 -6,-4 -13,-7 -21,-7 -13,0 -23,5 -32,15 -8,10 -12,24 -12,43 0,18 4,32 12,42 9,10 19,15 32,15 7,0 14,-2 21,-6 6,-5 11,-11 15,-20 4,-9 6,-19 6,-31z"/>
   </g>
   <path class="fil3" d="M1376 47l-53 0 0 176c0,10 -3,18 -7,23 -5,5 -11,7 -18,7 -7,0 -13,-2 -18,-7 -4,-5 -7,-13 -7,-23l0 -176 -53 0c-9,0 -15,-2 -19,-6 -4,-3 -6,-8 -6,-14 0,-7 2,-11 6,-15 5,-4 11,-6 19,-6l156 0c9,0 15,2 19,6 4,4 6,9 6,15 0,6 -2,11 -6,14 -4,4 -10,6 -19,6z"/>
   <path class="fil3" d="M1512 212l-39 -154 0 167c0,10 -2,16 -6,21 -4,5 -9,7 -16,7 -7,0 -12,-2 -16,-7 -5,-4 -7,-11 -7,-21l0 -192c0,-10 3,-17 9,-21 5,-4 13,-6 22,-6l15 0c9,0 16,1 20,3 4,1 7,4 9,9 2,4 4,11 7,21l35 133 35 -133c3,-10 5,-17 7,-21 2,-5 5,-8 9,-9 5,-2 11,-3 20,-3l16 0c9,0 16,2 22,6 5,4 8,11 8,21l0 192c0,10 -2,16 -6,21 -4,5 -10,7 -17,7 -6,0 -11,-2 -16,-7 -4,-5 -6,-11 -6,-21l0 -167 -39 154c-2,10 -4,18 -6,22 -2,5 -5,9 -9,13 -4,4 -10,6 -18,6 -6,0 -10,-1 -14,-4 -4,-2 -7,-5 -10,-9 -2,-4 -4,-8 -5,-13 -1,-5 -2,-10 -4,-15z"/>
  </g>
 </g>
</svg>
