<?xml version="1.0" encoding="UTF-8"?>
<!DOCTYPE svg PUBLIC "-//W3C//DTD SVG 1.1//EN" "http://www.w3.org/Graphics/SVG/1.1/DTD/svg11.dtd">
<!-- Creator: CorelDRAW X7 -->
<svg xmlns="http://www.w3.org/2000/svg" xml:space="preserve" width="152px" height="45px" version="1.1" style="shape-rendering:geometricPrecision; text-rendering:geometricPrecision; image-rendering:optimizeQuality; fill-rule:evenodd; clip-rule:evenodd"
viewBox="0 0 25446 7556"
 xmlns:xlink="http://www.w3.org/1999/xlink">
 <defs>
  <style type="text/css">
   <![CDATA[
    .fil0 {fill:#000102}
    .fil1 {fill:white}
    .fil2 {fill:#FEFEFE;fill-rule:nonzero}
   ]]>
  </style>
 </defs>
 <g id="Layer_x0020_1">
  <metadata id="CorelCorpID_0Corel-Layer"/>
  <rect class="fil0" width="7556" height="7556" rx="884" ry="884"/>
  <g id="_1774375961360">
   <path class="fil1" d="M3941 5615c40,-69 258,-231 367,-294 148,-87 287,-149 464,-205 86,-28 173,-48 266,-67 119,-25 197,-26 291,-42 280,-48 388,64 493,-166l1 -2774c0,-128 28,-335 -220,-333 -595,4 -1219,205 -1559,653 -141,186 -121,162 -121,436 0,185 0,369 0,554 0,737 0,1475 0,2213 3,48 -2,9 18,25z"/>
   <path class="fil1" d="M1730 1929l0 2562c0,82 -11,311 9,368 37,107 116,131 244,131 311,1 699,75 955,181 210,86 374,174 540,314 20,16 139,130 151,132l2 -2851c0,-95 14,-178 -30,-251 -319,-526 -906,-729 -1505,-773 -79,-6 -186,-23 -257,10 -60,29 -109,90 -109,177z"/>
   <path class="fil1" d="M1104 2588l0 3042c0,115 100,215 231,189 520,-102 1076,-187 1612,-112l405 65c-29,-54 -210,-172 -264,-205 -94,-57 -203,-106 -318,-147 -232,-83 -527,-136 -796,-137 -328,-1 -536,-200 -536,-507l-1 -2376c-143,-11 -333,-7 -333,188z"/>
   <path class="fil1" d="M6095 4914c-1,86 -72,171 -119,219 -187,194 -351,129 -532,154 -43,6 -105,11 -151,16 -300,30 -653,141 -898,308l-148 112c-37,31 -30,15 -47,49l348 -58c120,-19 246,-20 367,-29 340,-25 757,34 1092,92 101,17 242,71 334,29 116,-54 108,-146 108,-290 0,-131 3,-265 0,-395 -13,-741 0,-1545 0,-2298 0,-233 61,-466 -329,-426 -18,65 -5,525 -5,630l0 1749c0,32 -9,153 -17,133 0,-2 -2,4 -3,5z"/>
  </g>
  <path class="fil2" d="M10749 1036c-956,65 -1829,961 -1561,1864 89,302 439,759 712,433 42,-54 154,-339 -71,-511 -155,-118 -564,-356 -95,-967 368,-481 1187,-730 1733,-244 588,523 392,1941 -309,1995 0,-12 24,-166 24,-1258 0,-380 -795,-404 -867,-107 -183,730 -142,2427 131,2878 190,214 653,161 659,-17 30,-285 47,-932 47,-1247 760,137 1437,-540 1425,-1371 -30,-1057 -1033,-1502 -1828,-1448z"/>
  <path id="1" class="fil2" d="M13652 3374c23,-118 47,-273 59,-368 18,-160 -72,-279 -244,-261 -469,59 -647,665 -587,1442 29,351 95,843 409,980 190,77 345,12 410,-137 119,-332 -60,-813 -24,-1193 0,-350 576,-581 784,-736 243,-178 -220,-540 -807,273z"/>
  <path id="2" class="fil2" d="M16299 4627c-261,107 -529,136 -683,-12 220,-95 736,-475 885,-825 279,-594 -137,-1122 -796,-1003 -706,124 -1068,837 -1009,1454 119,1140 1460,1246 1793,587 83,-219 -83,-237 -190,-201zm-855 -362c-77,-345 237,-920 564,-980 83,-12 142,24 172,101 142,350 -392,849 -641,1003 -48,30 -77,0 -95,-124z"/>
  <path id="3" class="fil2" d="M18483 2858c-570,-36 -855,457 -855,421 0,-308 95,-611 -94,-617 -826,-18 -600,3134 -392,3609 130,303 522,154 593,-18 101,-261 107,-700 89,-1151 244,17 594,-36 891,-244 682,-498 658,-1941 -238,-2000l6 0zm-682 1425c6,-956 837,-1110 943,-505 83,511 -154,1086 -931,1050 -6,-195 -12,-379 -12,-545z"/>
  <path id="4" class="fil2" d="M20697 2994c24,-925 -107,-1175 -142,-1234 -72,-137 -232,-149 -339,-36 -29,36 -53,77 -71,125 -142,273 -249,872 -273,1157 -231,0 -332,-17 -421,24 -89,53 -95,202 -6,249 71,42 332,36 386,30l0 439c0,469 53,831 178,1110 255,523 1032,469 1193,77 24,-59 -83,-178 -261,-89 -386,196 -220,-1086 -256,-1567 101,-23 374,-41 505,-100 83,-36 107,-185 -12,-185l-481 0z"/>
  <path id="5" class="fil2" d="M24947 3107c-356,-504 -1359,-457 -1478,499 119,-1116 -1181,-1063 -1318,-83 -178,-374 78,-701 -184,-748 -540,-101 -593,2018 -83,2428 143,112 855,279 552,-1217 -160,-790 303,-1116 558,-837 250,273 -65,1157 83,1472 125,267 588,213 588,-196 0,-1045 285,-1454 623,-1306 261,113 327,724 48,1811 -72,267 130,350 255,350 617,0 855,-1466 356,-2173z"/>
 </g>
</svg>
