<?xml version="1.0" encoding="UTF-8"?>
<!DOCTYPE svg PUBLIC "-//W3C//DTD SVG 1.1//EN" "http://www.w3.org/Graphics/SVG/1.1/DTD/svg11.dtd">
<!-- Creator: CorelDRAW X7 -->
<svg xmlns="http://www.w3.org/2000/svg" xml:space="preserve" width="8.6977mm" height="8.6977mm" version="1.1" style="shape-rendering:geometricPrecision; text-rendering:geometricPrecision; image-rendering:optimizeQuality; fill-rule:evenodd; clip-rule:evenodd"
viewBox="0 0 544 544"
 xmlns:xlink="http://www.w3.org/1999/xlink">
 <defs>
  <style type="text/css">
   <![CDATA[
    .str0 {stroke:#FEFEFE;stroke-width:6.25774}
    .fil0 {fill:#087B82}
    .fil1 {fill:white}
   ]]>
  </style>
 </defs>
 <g id="Layer_x0020_1">
  <metadata id="CorelCorpID_0Corel-Layer"/>
  <rect class="fil0 str0" x="3" y="3" width="538" height="538" rx="269" ry="269"/>
  <g id="_1447516663552">
   <path class="fil1" d="M283 392c2,-4 17,-15 24,-19 10,-5 19,-10 30,-13 6,-2 12,-3 18,-5 7,-1 13,-1 19,-2 18,-3 25,4 32,-11l0 -182c0,-8 2,-22 -14,-22 -39,1 -80,14 -102,43 -10,12 -8,11 -8,29 0,12 0,24 0,36 0,48 0,96 0,145 0,3 -1,0 1,1z"/>
   <path class="fil1" d="M138 151l0 168c0,5 -1,20 1,24 2,7 7,9 16,9 20,0 45,4 62,11 14,6 25,12 36,21 1,1 9,8 9,9l1 -187c0,-6 0,-12 -2,-17 -21,-34 -60,-47 -99,-50 -5,-1 -12,-2 -17,0 -4,2 -7,6 -7,12z"/>
   <path class="fil1" d="M97 194l0 199c0,8 7,15 15,13 34,-7 71,-12 106,-8l26 5c-2,-4 -14,-12 -17,-14 -6,-3 -13,-7 -21,-9 -15,-6 -34,-9 -52,-9 -21,0 -35,-13 -35,-33l0 -156c-10,-1 -22,-1 -22,12z"/>
   <path class="fil1" d="M424 347c0,5 -5,11 -8,14 -12,13 -23,8 -35,10 -3,0 -7,1 -10,1 -19,2 -42,9 -58,20l-10 8c-3,2 -2,1 -3,3l23 -4c7,-1 16,-1 24,-2 22,-2 49,2 71,6 7,1 16,5 22,2 8,-4 7,-10 7,-19 0,-9 0,-17 0,-26 -1,-48 0,-101 0,-150 0,-16 4,-31 -21,-28 -2,4 -1,34 -1,41l0 115c0,2 0,10 -1,8 0,0 0,0 0,1z"/>
  </g>
 </g>
</svg>
