<?xml version="1.0" encoding="UTF-8"?>
<!DOCTYPE svg PUBLIC "-//W3C//DTD SVG 1.1//EN" "http://www.w3.org/Graphics/SVG/1.1/DTD/svg11.dtd">
<!-- Creator: CorelDRAW X7 -->
<svg xmlns="http://www.w3.org/2000/svg" xml:space="preserve" width="26.8472mm" height="5.2214mm" version="1.1" style="shape-rendering:geometricPrecision; text-rendering:geometricPrecision; image-rendering:optimizeQuality; fill-rule:evenodd; clip-rule:evenodd"
viewBox="0 0 746 145"
 xmlns:xlink="http://www.w3.org/1999/xlink">
 <defs>
  <style type="text/css">
   <![CDATA[
    .str0 {stroke:#FEFEFE;stroke-width:2.78052;stroke-linecap:round;stroke-linejoin:round}
    .fil1 {fill:none;fill-rule:nonzero}
    .fil0 {fill:#FEFEFE}
    .fil2 {fill:#FEFEFE;fill-rule:nonzero}
    .fil3 {fill:#FFED00;fill-rule:nonzero}
   ]]>
  </style>
 </defs>
 <g id="Layer_x0020_1">
  <metadata id="CorelCorpID_0Corel-Layer"/>
  <g id="_1798064431856">
   <path class="fil0" d="M83 113c1,-2 7,-7 10,-9 5,-2 9,-4 14,-6 2,0 5,-1 7,-1 4,-1 6,-1 9,-2 8,-1 11,2 14,-5l0 -80c0,-4 1,-10 -6,-10 -17,0 -36,6 -45,19 -5,5 -4,5 -4,13 0,5 0,10 0,16 0,21 0,43 0,64 0,2 0,1 1,1z"/>
   <path class="fil0" d="M18 6l0 74c0,3 0,9 0,11 2,3 4,4 8,4 9,0 20,2 27,5 6,3 11,5 16,9 1,1 4,4 4,4l1 -83c0,-3 0,-5 -1,-7 -10,-16 -27,-21 -44,-23 -2,0 -6,0 -8,1 -1,0 -3,2 -3,5z"/>
   <path class="fil0" d="M0 25l0 88c0,4 3,7 7,6 15,-3 31,-6 47,-3l11 2c0,-2 -6,-5 -7,-6 -3,-2 -6,-3 -9,-5 -7,-2 -16,-4 -24,-4 -9,0 -15,-5 -15,-14l0 -70c-4,0 -10,0 -10,6z"/>
   <path class="fil0" d="M145 93c0,2 -2,5 -3,6 -6,6 -10,4 -16,4 -1,1 -3,1 -4,1 -9,1 -19,4 -26,9l-5 3c-1,1 0,1 -1,2l10 -2c4,-1 7,-1 11,-1 10,-1 22,1 32,3 3,0 7,2 9,1 4,-2 4,-5 4,-9 0,-4 0,-8 0,-11 -1,-22 0,-45 0,-67 0,-7 1,-14 -10,-13 -1,2 0,16 0,19l0 51c0,1 0,4 -1,3 0,0 0,1 0,1z"/>
  </g>
  <g id="_1798064434128">
   <g>
    <path class="fil1 str0" d="M242 69l-21 0 0 31c0,5 -1,8 -3,10 -2,3 -4,4 -8,4 -3,0 -6,-1 -8,-4 -2,-2 -3,-5 -3,-10l0 -84c0,-4 1,-8 4,-10 2,-2 5,-3 10,-3l29 0c8,0 14,0 19,2 4,1 8,3 11,6 4,3 6,6 8,11 2,4 2,8 2,14 0,11 -3,19 -10,25 -7,5 -17,8 -30,8zm-6 -50l-15 0 0 34 15 0c5,0 10,-1 13,-2 4,-1 6,-3 8,-5 2,-3 3,-6 3,-10 0,-5 -1,-9 -4,-12 -3,-3 -10,-5 -20,-5zm84 65l0 17c0,4 -1,8 -3,10 -2,2 -5,3 -8,3 -3,0 -5,-1 -7,-3 -2,-3 -3,-6 -3,-10l0 -56c0,-9 4,-14 10,-14 4,0 6,1 7,3 2,2 3,6 3,10 2,-4 5,-8 7,-10 3,-2 6,-3 11,-3 4,0 8,1 12,3 4,2 6,5 6,9 0,2 -1,4 -3,6 -1,2 -3,2 -5,2 -1,0 -3,0 -5,-1 -3,-1 -6,-1 -8,-1 -3,0 -5,0 -7,2 -2,2 -4,4 -5,7 -1,3 -1,7 -2,11 0,4 0,9 0,15zm99 -7l-40 0c0,5 1,9 3,13 2,3 4,6 7,8 3,1 7,2 10,2 3,0 5,0 7,-1 2,0 4,-1 6,-2 2,-1 3,-3 5,-4 1,-2 3,-3 6,-6 1,-1 3,-1 4,-1 3,0 4,0 6,2 1,1 1,2 1,4 0,2 0,4 -2,7 -1,2 -3,5 -6,7 -3,2 -7,4 -11,5 -5,2 -10,3 -15,3 -13,0 -23,-4 -31,-12 -7,-7 -10,-17 -10,-30 0,-6 0,-11 2,-16 2,-6 5,-10 8,-14 3,-3 8,-6 13,-8 5,-2 10,-3 16,-3 8,0 15,2 21,5 5,3 10,8 12,13 3,5 5,11 5,16 0,5 -2,9 -5,10 -3,2 -7,2 -12,2zm-40 -11l37 0c0,-7 -2,-12 -6,-16 -3,-3 -7,-5 -12,-5 -5,0 -10,2 -13,5 -3,4 -5,9 -6,16zm90 -23l0 2c4,-5 8,-8 12,-10 4,-3 9,-4 14,-4 7,0 12,2 18,5 5,3 9,8 12,14 3,6 5,14 5,22 0,6 -1,12 -3,17 -2,6 -4,10 -7,14 -3,3 -7,6 -11,8 -4,2 -9,3 -14,3 -5,0 -10,-2 -14,-4 -4,-2 -8,-6 -12,-10l0 30c0,9 -3,14 -9,14 -4,0 -7,-1 -8,-4 -1,-2 -2,-5 -2,-10l0 -87c0,-4 1,-7 3,-9 2,-2 4,-3 7,-3 3,0 5,1 7,3 2,2 2,5 2,9zm40 29c0,-5 -1,-10 -2,-14 -2,-4 -4,-6 -7,-9 -3,-2 -6,-3 -10,-3 -5,0 -10,3 -14,7 -4,4 -6,11 -6,19 0,9 2,15 6,19 4,5 9,7 14,7 4,0 7,-1 10,-3 3,-2 5,-5 7,-9 1,-4 2,-8 2,-14z"/>
    <path id="1" class="fil2" d="M242 69l-21 0 0 31c0,5 -1,8 -3,10 -2,3 -4,4 -8,4 -3,0 -6,-1 -8,-4 -2,-2 -3,-5 -3,-10l0 -84c0,-4 1,-8 4,-10 2,-2 5,-3 10,-3l29 0c8,0 14,0 19,2 4,1 8,3 11,6 4,3 6,6 8,11 2,4 2,8 2,14 0,11 -3,19 -10,25 -7,5 -17,8 -30,8zm-6 -50l-15 0 0 34 15 0c5,0 10,-1 13,-2 4,-1 6,-3 8,-5 2,-3 3,-6 3,-10 0,-5 -1,-9 -4,-12 -3,-3 -10,-5 -20,-5zm84 65l0 17c0,4 -1,8 -3,10 -2,2 -5,3 -8,3 -3,0 -5,-1 -7,-3 -2,-3 -3,-6 -3,-10l0 -56c0,-9 4,-14 10,-14 4,0 6,1 7,3 2,2 3,6 3,10 2,-4 5,-8 7,-10 3,-2 6,-3 11,-3 4,0 8,1 12,3 4,2 6,5 6,9 0,2 -1,4 -3,6 -1,2 -3,2 -5,2 -1,0 -3,0 -5,-1 -3,-1 -6,-1 -8,-1 -3,0 -5,0 -7,2 -2,2 -4,4 -5,7 -1,3 -1,7 -2,11 0,4 0,9 0,15zm99 -7l-40 0c0,5 1,9 3,13 2,3 4,6 7,8 3,1 7,2 10,2 3,0 5,0 7,-1 2,0 4,-1 6,-2 2,-1 3,-3 5,-4 1,-2 3,-3 6,-6 1,-1 3,-1 4,-1 3,0 4,0 6,2 1,1 1,2 1,4 0,2 0,4 -2,7 -1,2 -3,5 -6,7 -3,2 -7,4 -11,5 -5,2 -10,3 -15,3 -13,0 -23,-4 -31,-12 -7,-7 -10,-17 -10,-30 0,-6 0,-11 2,-16 2,-6 5,-10 8,-14 3,-3 8,-6 13,-8 5,-2 10,-3 16,-3 8,0 15,2 21,5 5,3 10,8 12,13 3,5 5,11 5,16 0,5 -2,9 -5,10 -3,2 -7,2 -12,2zm-40 -11l37 0c0,-7 -2,-12 -6,-16 -3,-3 -7,-5 -12,-5 -5,0 -10,2 -13,5 -3,4 -5,9 -6,16zm90 -23l0 2c4,-5 8,-8 12,-10 4,-3 9,-4 14,-4 7,0 12,2 18,5 5,3 9,8 12,14 3,6 5,14 5,22 0,6 -1,12 -3,17 -2,6 -4,10 -7,14 -3,3 -7,6 -11,8 -4,2 -9,3 -14,3 -5,0 -10,-2 -14,-4 -4,-2 -8,-6 -12,-10l0 30c0,9 -3,14 -9,14 -4,0 -7,-1 -8,-4 -1,-2 -2,-5 -2,-10l0 -87c0,-4 1,-7 3,-9 2,-2 4,-3 7,-3 3,0 5,1 7,3 2,2 2,5 2,9zm40 29c0,-5 -1,-10 -2,-14 -2,-4 -4,-6 -7,-9 -3,-2 -6,-3 -10,-3 -5,0 -10,3 -14,7 -4,4 -6,11 -6,19 0,9 2,15 6,19 4,5 9,7 14,7 4,0 7,-1 10,-3 3,-2 5,-5 7,-9 1,-4 2,-8 2,-14z"/>
   </g>
   <path class="fil3" d="M618 21l-24 0 0 79c0,5 -1,8 -3,10 -2,3 -5,4 -8,4 -3,0 -6,-1 -8,-4 -2,-2 -3,-5 -3,-10l0 -79 -24 0c-4,0 -7,-1 -9,-2 -1,-2 -2,-4 -2,-7 0,-3 1,-5 3,-7 1,-1 4,-2 8,-2l70 0c4,0 7,1 9,2 1,2 2,4 2,7 0,3 -1,5 -2,7 -2,1 -5,2 -9,2zm61 74l-17 -69 0 75c0,4 -1,7 -3,10 -2,2 -4,3 -7,3 -3,0 -6,-1 -8,-3 -2,-2 -3,-6 -3,-10l0 -86c0,-5 2,-8 4,-10 3,-1 6,-2 10,-2l7 0c4,0 7,0 9,1 2,1 3,2 4,4 1,2 2,5 3,9l16 60 16 -60c1,-4 2,-7 3,-9 1,-2 2,-3 4,-4 2,-1 5,-1 9,-1l7 0c4,0 7,1 10,2 2,2 3,5 3,10l0 86c0,4 0,7 -2,10 -2,2 -5,3 -8,3 -3,0 -5,-1 -7,-3 -2,-3 -3,-6 -3,-10l0 -75 -17 69c-1,5 -2,8 -3,10 -1,2 -2,4 -4,6 -2,2 -5,3 -8,3 -3,0 -5,-1 -7,-2 -1,-1 -3,-3 -4,-4 -1,-2 -1,-4 -2,-6 -1,-2 -1,-4 -2,-7z"/>
  </g>
 </g>
</svg>
