<?xml version="1.0" encoding="UTF-8"?>
<!DOCTYPE svg PUBLIC "-//W3C//DTD SVG 1.1//EN" "http://www.w3.org/Graphics/SVG/1.1/DTD/svg11.dtd">
<!-- Creator: CorelDRAW X7 -->
<svg xmlns="http://www.w3.org/2000/svg" xml:space="preserve" width="11.6783mm" height="11.7155mm" version="1.1" style="shape-rendering:geometricPrecision; text-rendering:geometricPrecision; image-rendering:optimizeQuality; fill-rule:evenodd; clip-rule:evenodd"
viewBox="0 0 290 291"
 xmlns:xlink="http://www.w3.org/1999/xlink">
 <defs>
  <style type="text/css">
   <![CDATA[
    .fil0 {fill:#49C858}
    .fil1 {fill:#FBFBFB}
   ]]>
  </style>
 </defs>
 <g id="Layer_x0020_1">
  <metadata id="CorelCorpID_0Corel-Layer"/>
  <g id="_1447523939088">
   <path class="fil0" d="M91 78c5,-2 14,-1 16,2 3,4 10,23 12,28 3,6 3,8 -1,14 -1,1 -1,1 -2,2 -1,1 -1,2 -2,3 -5,5 -8,5 2,18l9 11c8,10 21,18 34,23 4,2 5,2 8,0l8 -11c8,-9 5,-8 32,4 6,3 11,5 11,9 1,4 -1,12 -3,15 -2,5 -5,8 -10,11 -15,10 -30,6 -46,0 -11,-4 -18,-7 -27,-12 -8,-5 -21,-15 -27,-22 -10,-12 -21,-26 -28,-41 -4,-9 -7,-21 -3,-32 1,-6 3,-9 6,-13 3,-3 6,-7 11,-9zm-56 178c8,-1 17,-4 25,-6 4,-1 8,-2 12,-3 7,-2 7,-3 12,0 12,8 30,14 47,16 31,4 61,-5 85,-22 6,-5 11,-10 17,-15 5,-5 16,-21 19,-28 19,-40 17,-86 -8,-122 -13,-19 -30,-33 -52,-42 -34,-15 -71,-12 -103,4 -13,7 -25,17 -34,28 -33,39 -40,93 -11,141 3,6 3,4 1,11l-10 38z"/>
   <path class="fil1" d="M45 218c2,-7 2,-5 -1,-11 -29,-48 -22,-102 11,-141 9,-11 21,-21 34,-28 32,-16 69,-19 103,-4 22,9 39,23 52,42 25,36 27,82 8,122 -3,7 -14,23 -19,28 -6,5 -11,10 -17,15 -24,17 -54,26 -85,22 -17,-2 -35,-8 -47,-16 -5,-3 -5,-2 -12,0 -4,1 -8,2 -12,3 -8,2 -17,5 -25,6l10 -38zm91 -218l19 0c4,0 8,1 12,1 21,4 37,10 52,19l21 15c5,4 13,13 17,18l8 10c1,2 2,4 3,6 16,23 25,62 21,92 -3,22 -10,42 -21,60 -6,9 -12,16 -20,24 -8,8 -10,10 -19,17 -5,4 -17,11 -22,13 -3,1 -4,2 -6,3 -28,11 -54,13 -84,8 -7,-1 -36,-10 -39,-14 0,0 -1,-1 -1,-1l-4 1c-2,1 -6,2 -9,2l-55 15c-2,0 -6,2 -9,2 0,-4 17,-64 19,-71 2,-6 -1,-7 -3,-12 -4,-8 -7,-16 -10,-26 -5,-20 -7,-40 -3,-63 2,-10 5,-20 8,-28l6 -12c12,-21 16,-28 35,-45 2,-1 3,-3 5,-4 14,-10 29,-19 47,-24 11,-3 21,-5 32,-6z"/>
   <path class="fil1" d="M91 78c-5,2 -8,6 -11,9 -3,4 -5,7 -6,13 -4,11 -1,23 3,32 7,15 18,29 28,41 6,7 19,17 27,22 9,5 16,8 27,12 16,6 31,10 46,0 5,-3 8,-6 10,-11 2,-3 4,-11 3,-15 0,-4 -5,-6 -11,-9 -27,-12 -24,-13 -32,-4l-8 11c-3,2 -4,2 -8,0 -13,-5 -26,-13 -34,-23l-9 -11c-10,-13 -7,-13 -2,-18 1,-1 1,-2 2,-3 1,-1 1,-1 2,-2 4,-6 4,-8 1,-14 -2,-5 -9,-24 -12,-28 -2,-3 -11,-4 -16,-2z"/>
  </g>
 </g>
</svg>
