<?xml version="1.0" encoding="UTF-8"?>
<!DOCTYPE svg PUBLIC "-//W3C//DTD SVG 1.1//EN" "http://www.w3.org/Graphics/SVG/1.1/DTD/svg11.dtd">
<!-- Creator: CorelDRAW X7 -->
<svg xmlns="http://www.w3.org/2000/svg" xml:space="preserve" width="800px" height="800px" version="1.1" style="shape-rendering:geometricPrecision; text-rendering:geometricPrecision; image-rendering:optimizeQuality; fill-rule:evenodd; clip-rule:evenodd"
viewBox="0 0 150 150"
 xmlns:xlink="http://www.w3.org/1999/xlink">
 <defs>
  <style type="text/css">
   <![CDATA[
    .fil0 {fill:none}
    .fil12 {fill:#FEFEFE}
    .fil10 {fill:#F5A886}
    .fil9 {fill:#F39B72}
    .fil11 {fill:#EE892F}
    .fil4 {fill:#F2F0F0}
    .fil8 {fill:#DF7232}
    .fil3 {fill:#D6917E}
    .fil15 {fill:#D4D8DA}
    .fil6 {fill:#C7E7F4}
    .fil13 {fill:#B67AB2}
    .fil7 {fill:#8A4190}
    .fil14 {fill:#7B3688}
    .fil5 {fill:#696668}
    .fil1 {fill:#2767A8}
    .fil2 {fill:#33529A}
    .fil16 {fill:#FEFEFE;fill-rule:nonzero}
   ]]>
  </style>
 </defs>
 <g id="Layer_x0020_1">
  <metadata id="CorelCorpID_0Corel-Layer"/>
  <rect class="fil0" width="150" height="150"/>
  <path class="fil1" d="M132 57l0 0 -114 0 0 -3c0,-5 4,-9 9,-9l96 0c5,0 9,4 9,9l0 3z"/>
  <path class="fil2" d="M127 113l-7 0c0,-1 0,-1 -1,-2l8 0 0 2z"/>
  <path class="fil1" d="M81 113l-58 0 0 -2 57 0c1,1 1,1 1,2z"/>
  <polygon class="fil2" points="126,95 124,95 126,93 "/>
  <polygon class="fil1" points="124,95 118,95 118,93 126,93 126,93 "/>
  <polygon class="fil1" points="126,93 126,93 118,93 118,90 126,90 "/>
  <polygon class="fil2" points="126,98 121,98 124,95 126,95 "/>
  <polygon class="fil1" points="121,98 118,98 118,95 124,95 "/>
  <polygon class="fil2" points="126,100 119,100 121,98 126,98 "/>
  <polygon class="fil1" points="119,100 118,100 118,98 121,98 "/>
  <polygon class="fil1" points="126,90 126,90 118,90 118,87 126,87 "/>
  <polygon class="fil1" points="126,69 118,69 118,68 126,68 "/>
  <polygon class="fil1" points="126,72 118,72 118,69 126,69 "/>
  <polygon class="fil1" points="126,87 126,87 118,87 118,81 126,81 "/>
  <polygon class="fil1" points="126,81 126,81 118,81 118,76 126,76 "/>
  <polygon class="fil1" points="126,76 126,76 118,76 118,72 126,72 "/>
  <path class="fil1" d="M60 101c-1,-6 -6,-10 -12,-11 0,-1 1,-1 1,-1l5 0 0 -12c0,-5 -2,-6 -4,-7 -2,-1 -4,-1 -6,-1 -2,0 -4,0 -5,1 -2,1 -4,2 -4,7l0 12 4 0c1,0 1,0 2,1 -6,1 -10,4 -12,8l0 -32c0,-1 2,-3 4,-3l24 0c1,0 3,2 3,3l0 35 0 0 0 0 0 0 0 0 0 0 0 0 0 0 0 0 0 0 0 0 0 0 0 0 0 0c0,0 0,0 0,0l0 0 0 0zm0 -35l0 0z"/>
  <path class="fil1" d="M47 104l-3 0c0,0 0,0 0,0 0,0 0,0 0,0l-3 0c0,-5 -1,-9 -6,-12 -3,2 -5,4 -6,6l0 0c2,-4 6,-7 12,-8 1,0 2,0 3,0 2,0 3,0 4,0 6,1 11,5 12,11l0 0c0,-4 -3,-7 -6,-9 -5,3 -7,7 -7,12zm-3 -5c0,0 0,1 0,1 0,1 0,1 0,1 1,0 1,0 1,-1 0,0 0,-1 -1,-1zm0 -4c0,0 0,1 0,1 0,0 0,1 0,1 1,0 1,-1 1,-1 0,0 0,-1 -1,-1z"/>
  <path class="fil1" d="M54 89l-5 0c2,-2 4,-5 4,-8 0,-1 0,-2 0,-2 0,0 0,-1 0,-1 0,0 0,-8 -8,-8 -10,0 -9,8 -9,8 0,1 0,1 0,1 0,0 0,1 0,2 0,0 0,0 0,0 0,0 1,0 2,0 -1,0 -2,0 -2,0 0,3 1,6 3,8l-4 0 0 -12c0,-5 2,-6 4,-7 1,-1 3,-1 5,-1 2,0 4,0 6,1 2,1 4,2 4,7l0 12zm-16 -8l0 0c0,0 0,0 0,0 0,0 0,0 0,0z"/>
  <path class="fil1" d="M38 81c0,0 0,0 0,0 -1,0 -2,0 -2,0 0,0 0,0 0,0 0,-1 0,-2 0,-2 0,0 0,0 0,0 2,0 5,-1 6,-1 2,-1 4,-2 6,-4 0,1 0,2 1,3 0,1 0,1 0,1 -3,2 -7,3 -11,3 0,0 0,0 0,0z"/>
  <path class="fil1" d="M44 90c-1,0 -2,0 -3,0 -1,-1 -1,-1 -2,-1 -2,-2 -3,-5 -3,-8 0,0 1,0 2,0 0,0 0,0 0,0l0 0c0,0 0,0 0,0 4,0 8,-1 11,-3 1,0 2,1 2,1 1,0 1,0 2,0 0,0 0,1 0,2 0,3 -2,6 -4,8 0,0 -1,0 -1,1 -1,0 -2,0 -4,0l0 0zm-4 -6c0,0 2,3 4,3 3,0 5,-3 5,-3l-9 0z"/>
  <path class="fil1" d="M36 79c0,0 0,0 0,0 0,0 0,0 0,-1 0,0 -1,-8 9,-8 8,0 8,8 8,8 0,0 0,1 0,1 -1,0 -1,0 -2,0 0,0 -1,-1 -2,-1 0,0 0,0 0,-1 -1,-1 -1,-2 -1,-3 -2,2 -4,3 -6,4 -1,0 -4,1 -6,1z"/>
  <path class="fil1" d="M44 87c-2,0 -4,-3 -4,-3l9 0c0,0 -2,3 -5,3z"/>
  <path class="fil1" d="M41 104l-8 0c-2,0 -4,-2 -4,-3l0 0 0 -3c1,-2 3,-4 6,-6 5,3 6,7 6,12z"/>
  <path class="fil1" d="M57 104l-10 0c0,-5 2,-9 7,-12 3,2 6,5 6,9l0 0 0 0 0 0 0 0 0 0 0 0 0 0 0 0 0 0 0 0 0 0 0 1 0 0 0 0 0 0 0 0 0 0 0 0 0 0 0 0 0 0 0 0 0 0 0 0 0 0 0 0 0 0 0 0 0 0 0 0 0 0 0 0 0 0 0 0 0 0 -1 0 0 0 0 0 0 0 0 0 0 0 0 0 0 1 0 0 0 0 0 0 0 0 0 0 0 0 0 0 0 0 0 0 0 0 0 0 0 0 0 0 0 0 0 0 0 0 0 0 0 0 0 0 0 0 0 0 0 0 0 0 0 0 0 0 0 0 0 0 0 0 0 0 0 0 0 0 0 0 -1 0 0 0 0 0 0 0 0 0 0 0 0 1 0 0 0 0 0 0 0 0 0 0 0 0 0 0 0 0 0 0 0 0 0 0 0 0 0 0 0 0 0 0 0 0 0 0 0 0 0 0 0 0 -1 0 0 0 0 0 0 0 0 0 0 0 0 0 0 0 0 0 0 0 0 0 0 0 0 0 0 0 0 0 0 0 0 0 0 0 0 0 0 0 0 0 0 0 0 0 0 0z"/>
  <path class="fil1" d="M44 97c0,0 0,-1 0,-1 0,0 0,-1 0,-1 1,0 1,1 1,1 0,0 0,1 -1,1z"/>
  <path class="fil1" d="M44 104l0 0c0,0 0,0 0,0 0,0 0,0 0,0z"/>
  <path class="fil1" d="M44 101c0,0 0,0 0,-1 0,0 0,-1 0,-1 1,0 1,1 1,1 0,1 0,1 -1,1z"/>
  <path class="fil1" d="M75 100l-5 0 0 -4 5 0c0,2 0,3 0,4zm35 0c-1,-1 -2,-1 -2,-2 0,-1 -1,-1 -1,-2l3 0 0 4z"/>
  <path class="fil1" d="M110 90l-8 0c-1,-1 -2,-2 -3,-3l11 0 0 3zm-35 0l-5 0 0 -3 5 0c0,1 0,2 0,3z"/>
  <path class="fil1" d="M110 80l-22 0c-1,0 -2,0 -3,0 -1,0 -2,0 -3,0l-12 0 0 -3 40 0 0 3z"/>
  <polygon class="fil1" points="71,64 107,64 107,71 71,71 "/>
  <polygon class="fil1" points="73,65 71,65 71,71 73,71 "/>
  <path class="fil1" d="M74 65l0 6 2 0c2,0 3,-1 3,-3 0,-2 -1,-3 -3,-3l-2 0zm1 5l0 -4 1 0c1,0 2,1 2,2 0,1 -1,2 -2,2l-1 0z"/>
  <path class="fil1" d="M86 70c-1,0 -2,-1 -2,-2 0,-1 1,-2 2,-2 1,0 1,0 1,0l1 -1c0,0 -1,-1 -2,-1 -2,0 -4,2 -4,4 0,2 2,3 4,3 1,0 2,0 2,0l-1 -2c0,0 0,1 -1,1l0 0z"/>
  <path class="fil1" d="M93 65l-2 0 -3 6 2 0 1 -1 2 0 1 1 1 0 -2 -6zm0 4l-2 0 1 -2 0 0 1 2z"/>
  <path class="fil1" d="M96 65l0 6 1 0 0 -2 2 2 2 0 -2 -2c1,-1 1,-1 1,-2 0,-2 -1,-2 -2,-2l-2 0zm1 3l0 -2 1 0c0,0 1,0 1,1 0,1 -1,1 -1,1l-1 0z"/>
  <path class="fil1" d="M102 65l0 6 2 0c2,0 3,-1 3,-3l0 0c0,-2 -1,-3 -3,-3l-2 0zm2 5l0 -4 0 0c1,0 2,1 2,2 0,1 -1,2 -2,2l0 0z"/>
  <path class="fil1" d="M86 110c-3,0 -5,-4 -5,-7 0,0 0,0 0,0 1,3 3,5 5,7z"/>
  <path class="fil3" d="M87 96c1,1 3,2 5,5 5,1 11,-1 14,6 0,0 0,1 1,1 4,-4 8,-7 12,-9 -11,-5 -23,-7 -32,-3z"/>
  <path class="fil4" d="M18 105c0,5 4,9 9,9l96 0c5,0 9,-4 9,-9l0 -57 -114 0 0 57z"/>
  <path class="fil5" d="M123 36l-96 0c-5,0 -9,4 -9,9l0 3 114 0 0 -3c0,-5 -4,-9 -9,-9z"/>
  <polygon class="fil5" points="127,104 23,104 23,103 127,103 "/>
  <polygon class="fil5" points="118,87 126,87 126,84 118,84 "/>
  <polygon class="fil4" points="118,87 118,88 127,88 127,83 117,83 117,88 118,88 118,87 119,87 119,85 125,85 125,86 118,86 118,87 119,87 "/>
  <polygon class="fil5" points="118,84 126,84 126,81 118,81 "/>
  <polygon class="fil4" points="118,84 118,85 127,85 127,80 117,80 117,85 118,85 118,84 119,84 119,82 125,82 125,83 118,83 118,84 119,84 "/>
  <polygon class="fil5" points="118,89 126,89 126,87 118,87 "/>
  <polygon class="fil4" points="118,89 118,90 127,90 127,86 117,86 117,90 118,90 118,89 119,89 119,88 125,88 125,88 118,88 118,89 119,89 "/>
  <polygon class="fil5" points="118,91 126,91 126,89 118,89 "/>
  <polygon class="fil4" points="118,91 118,92 127,92 127,88 117,88 117,92 118,92 118,91 119,91 119,90 125,90 125,90 118,90 118,91 119,91 "/>
  <polygon class="fil5" points="118,81 126,81 126,78 118,78 "/>
  <polygon class="fil4" points="118,81 118,82 127,82 127,77 117,77 117,82 118,82 118,81 119,81 119,79 125,79 125,80 118,80 118,81 119,81 "/>
  <polygon class="fil5" points="118,59 118,60 126,60 126,59 "/>
  <polygon class="fil4" points="118,59 117,59 117,61 127,61 127,58 117,58 117,59 118,59 118,60 125,60 125,60 126,60 126,59 119,59 119,59 118,59 118,60 "/>
  <polygon class="fil5" points="118,63 126,63 126,60 118,60 "/>
  <polygon class="fil4" points="118,63 118,64 127,64 127,59 117,59 117,64 118,64 118,63 119,63 119,61 125,61 125,62 118,62 118,63 119,63 "/>
  <polygon class="fil5" points="118,78 126,78 126,72 118,72 "/>
  <polygon class="fil4" points="118,78 118,79 127,79 127,71 117,71 117,79 118,79 118,78 119,78 119,73 125,73 125,77 118,77 118,78 119,78 "/>
  <polygon class="fil5" points="118,72 126,72 126,68 118,68 "/>
  <polygon class="fil4" points="118,72 118,73 127,73 127,67 117,67 117,73 118,73 118,72 119,72 119,69 125,69 125,71 118,71 118,72 119,72 "/>
  <polygon class="fil5" points="118,68 126,68 126,63 118,63 "/>
  <polygon class="fil4" points="118,68 118,69 127,69 127,62 117,62 117,69 118,69 118,68 119,68 119,64 125,64 125,67 118,67 118,68 119,68 "/>
  <path class="fil6" d="M57 95l0 0 -24 0 0 0 0 0 0 0 -1 0 0 0 0 0 0 0 0 0 0 0 0 0 0 0c0,0 0,0 0,0l0 0 0 0 0 0 0 0 0 0 0 0 0 0 0 0 0 0 0 0 0 0 0 0 0 0 0 0 0 0 -1 0 0 0 0 0 0 0 0 0 0 0 0 0 0 0c0,0 0,0 0,0l0 0 0 0 0 0 0 0 0 0 0 0 0 0 0 0 0 0 0 0 0 0 0 0 0 0 0 0 0 0 0 0 0 0 0 0 0 0 -1 0 0 0 0 0 0 0 0 -1 0 0 0 0 0 0 0 0 0 0 0 0 0 0 0 0 0 0 0 0 0 0 0 0 0 0 0 0 0 0 0 0 0 0c0,0 0,0 0,0l0 0 0 -1 0 0 0 0 0 0 -1 0 0 0 0 0 0 0 0 0 0 0 0 0 0 0 0 0 0 0 0 0 0 -1 0 0 0 0 0 0c0,0 0,0 0,0l0 0 0 0 0 -34 0 0 0 0 0 0 0 -1 0 0 0 0 0 0 0 0 0 0 0 0 0 0c0,0 0,0 0,0l0 0 0 0 0 0 0 0 0 0 1 -1 0 0 0 0 0 0 0 0 0 0 0 0 0 0 0 0 0 0 0 0 0 0 0 0 0 0 0 0 0 0 0 0 0 0 0 0 0 -1 0 0 0 0 0 0 0 0 0 0 0 0 0 0 0 0 1 0 0 0c0,0 0,0 0,0l0 0 0 0 0 0 0 0 0 0 0 0 0 0 0 0 0 0 0 0 0 0 0 0 0 0 0 0 0 0 0 0 0 0c0,0 0,0 0,0l0 0 0 0 0 0 0 0 0 0 0 0 0 0 1 0 0 0 0 0 0 0 0 0 0 0 0 0 0 0 0 -1 0 0 0 0 0 0c0,0 0,0 0,0l0 0 0 0 0 0 0 0 0 0 0 0 0 0 0 0 0 0 0 0 0 0 1 0 0 0 0 0 0 0 24 0 0 0 0 0 0 0 0 0 0 0 0 0 0 0 0 0 0 0 0 0 0 0 0 0 0 0 0 0 0 0 0 0 0 0 0 0 0 0 0 1 0 0 0 0 0 0 1 0 0 0 0 0 0 0 0 0 0 0 0 0 0 0 0 0 0 0 0 0 0 0c0,0 0,0 0,0l0 0 0 0 0 0 0 0 0 0 0 0 0 0 0 0 0 0 0 0 0 0 0 0 0 0 1 0 0 0 0 0 0 0 0 0 0 0 0 0 0 0 0 0 0 0 0 0 0 0 0 0 0 0 0 1 0 0 0 0 0 0 0 0 0 0 0 0 0 0 0 0 0 0 0 0 0 0 1 0c0,0 0,0 0,0l0 0 0 0 0 0 0 0 0 0 0 1 0 0 0 0 0 0 0 0 0 0 0 0 0 0 0 0 0 0 0 0 0 0 0 0 0 0 0 1c0,0 0,0 0,0l0 0 0 0 0 34 0 0 0 0 0 0 0 0 0 0 0 0 0 1 0 0 0 0 0 0 0 0c0,0 0,0 0,0l0 0 0 0 0 0 0 0 0 0 0 0 0 0 0 0 0 0 0 1 0 0 0 0 -1 0 0 0 0 0 0 0 0 0 0 0 0 0 0 0 0 0 0 0 0 0 0 0 0 0 0 0 0 0 0 0 0 0 0 0 0 1 0 0 0 0 0 0 0 0 0 0c0,0 0,0 0,0l0 0 0 0 0 0 -1 0 0 0 0 0 0 0 0 0 0 0 0 0 0 0 0 0 0 0 0 0 0 0 0 0 0 0c0,0 0,0 0,0l0 0 0 0 0 0 0 0 0 0 0 0 0 0 0 0 0 0 0 0 0 0 -1 0 0 0 0 0 0 0 0 0 0 0 0 0 0 0c0,0 0,0 0,0l0 0 0 0 0 0 0 0 0 0 0 0 0 0 0 0 0 0 0 0 0 0 0 0 0 0 0 0z"/>
  <path class="fil7" d="M29 90c2,-6 8,-9 15,-9 9,0 15,5 16,11 0,2 -2,3 -3,3l0 0 -24 0c-2,0 -4,-1 -4,-3l0 -2z"/>
  <path class="fil8" d="M54 80l-19 0 0 -11c0,-5 2,-7 4,-8 3,-1 8,-1 11,0 2,1 4,2 4,8l0 11z"/>
  <path class="fil9" d="M52 67c-2,-3 -5,-5 -8,-5 -4,0 -8,4 -8,10 0,0 0,0 0,0 5,1 12,-1 16,-5z"/>
  <path class="fil10" d="M36 72c0,6 4,10 8,10 5,0 9,-5 9,-10 0,-2 0,-4 -1,-5 -4,4 -11,6 -16,5z"/>
  <path class="fil11" d="M36 70c0,0 5,0 6,-1 2,0 4,-2 6,-4 0,1 0,3 1,4 1,1 2,1 4,1 0,0 0,-9 -8,-9 -10,0 -9,9 -9,9z"/>
  <path class="fil12" d="M40 75l9 0c0,0 -2,3 -5,3 -2,0 -4,-3 -4,-3z"/>
  <path class="fil13" d="M35 83c-3,2 -5,4 -6,7l0 2c0,2 2,3 4,3l8 0c0,-4 -1,-9 -6,-12z"/>
  <path class="fil13" d="M54 83c3,2 6,6 6,9 0,2 -2,3 -3,3l0 0 -10 0c0,-4 2,-9 7,-12z"/>
  <path class="fil14" d="M45 87c0,1 0,1 -1,1 0,0 0,0 0,-1 0,0 0,0 0,0 1,0 1,0 1,0z"/>
  <path class="fil14" d="M44 95c0,0 0,0 0,0 0,0 0,0 0,0l0 0z"/>
  <path class="fil14" d="M45 92c0,0 0,0 -1,0 0,0 0,0 0,0 0,-1 0,-1 0,-1 1,0 1,0 1,1z"/>
  <polygon class="fil15" points="110,91 70,91 70,88 110,88 "/>
  <polygon class="fil15" points="110,82 70,82 70,78 110,78 "/>
  <polygon class="fil15" points="110,72 70,72 70,68 110,68 "/>
  <polygon class="fil15" points="88,64 70,64 70,58 88,58 "/>
  <polygon class="fil15" points="110,64 91,64 91,58 110,58 "/>
  <path class="fil16" d="M52 39l1 0 2 7 -1 0 -2 -6 -1 6 -1 0 2 -7zm-1 4l3 0 0 1 -3 0 0 -1z"/>
  <path id="1" class="fil16" d="M57 45l1 0c1,0 1,0 1,-1 1,0 1,0 1,-1l0 -2c0,0 0,0 -1,-1 0,0 0,0 -1,0l-1 0 0 -1 1 0c1,0 1,0 2,0 0,1 0,1 0,1 1,1 1,1 1,2l0 1c0,1 0,1 -1,2 0,0 0,0 0,0 -1,1 -1,1 -2,1l-1 0 0 -1zm-1 -6l1 0 0 7 -1 0 0 -7z"/>
  <polygon id="2" class="fil16" points="67,39 68,39 68,46 67,46 67,41 67,41 65,45 64,45 63,41 63,41 63,46 62,46 62,39 63,39 65,43 "/>
  <polygon id="3" class="fil16" points="70,46 69,46 69,39 70,39 "/>
  <path id="4" class="fil16" d="M73 40l1 0 0 6 -1 0 0 -6zm-2 -1l5 0 0 1 -5 0 0 -1z"/>
  <path id="5" class="fil16" d="M81 46c0,0 -1,0 -1,-1 0,0 -1,0 -1,0 0,-1 0,-1 0,-2l0 -1c0,-1 0,-1 0,-2 0,0 1,0 1,-1 0,0 1,0 1,0 0,0 1,0 1,0 0,1 1,1 1,1 0,0 0,1 0,1l0 0 -1 0 0 0c0,0 0,0 0,0 0,-1 0,-1 0,-1 -1,0 -1,0 -1,0 0,0 0,0 -1,0 0,0 0,1 0,1 0,0 0,0 0,1l0 1c0,1 0,1 0,1 0,0 0,1 0,1 1,0 1,0 1,0 0,0 0,0 1,0 0,0 0,0 0,-1 0,0 0,0 0,0l0 0 1 0 0 0c0,0 0,1 0,1 0,0 -1,0 -1,1 0,0 -1,0 -1,0z"/>
  <path id="6" class="fil16" d="M86 39l1 0 2 7 -1 0 -2 -6 -1 6 -1 0 2 -7zm-1 4l3 0 0 1 -3 0 0 -1z"/>
  <path id="7" class="fil16" d="M91 42l2 0c0,0 0,0 0,0 0,0 1,0 1,0 0,-1 0,-1 0,-1l0 0c0,0 0,0 0,0 0,-1 -1,-1 -1,-1 0,0 0,0 0,0l-2 0 0 -1 2 0c0,0 1,0 1,0 0,1 0,1 0,1 1,0 1,1 1,1l0 0c0,0 0,1 -1,1 0,0 0,1 0,1 0,0 -1,0 -1,0l-2 0 0 -1zm-1 -3l1 0 0 7 -1 0 0 -7zm2 4l1 0 2 3 -1 0 -2 -3z"/>
  <path id="8" class="fil16" d="M97 45l1 0c1,0 1,0 1,-1 1,0 1,0 1,-1l0 -2c0,0 0,0 -1,-1 0,0 0,0 -1,0l-1 0 0 -1 1 0c1,0 1,0 2,0 0,1 0,1 0,1 1,1 1,1 1,2l0 1c0,1 0,1 -1,2 0,0 0,0 0,0 -1,1 -1,1 -2,1l-1 0 0 -1zm-1 -6l1 0 0 7 -1 0 0 -7z"/>
 </g>
</svg>
