<?xml version="1.0" encoding="UTF-8"?>
<!DOCTYPE svg PUBLIC "-//W3C//DTD SVG 1.1//EN" "http://www.w3.org/Graphics/SVG/1.1/DTD/svg11.dtd">
<!-- Creator: CorelDRAW X7 -->
<svg xmlns="http://www.w3.org/2000/svg" xml:space="preserve" width="832px" height="241px" version="1.1" style="shape-rendering:geometricPrecision; text-rendering:geometricPrecision; image-rendering:optimizeQuality; fill-rule:evenodd; clip-rule:evenodd"
viewBox="0 0 832 241"
 xmlns:xlink="http://www.w3.org/1999/xlink">
 <defs>
  <style type="text/css">
   <![CDATA[
    .str0 {stroke:#2B2A29;stroke-width:0.899735}
    .fil2 {fill:none;fill-rule:nonzero}
    .fil0 {fill:#FEFEFE}
    .fil3 {fill:#2B2A29}
    .fil1 {fill:#2B2A29;fill-rule:nonzero}
   ]]>
  </style>
 </defs>
 <g id="Layer_x0020_1">
  <metadata id="CorelCorpID_0Corel-Layer"/>
  <rect class="fil0" width="832" height="241" rx="36" ry="36"/>
  <path class="fil1" d="M260 66l0 -5 16 0 0 14c-3,2 -5,4 -8,5 -2,0 -5,1 -8,1 -3,0 -7,-1 -10,-2 -3,-2 -5,-4 -6,-7 -2,-3 -3,-6 -3,-10 0,-4 1,-7 3,-10 1,-3 3,-6 6,-7 3,-2 6,-3 10,-3 3,0 5,1 7,2 2,1 4,2 5,3 2,2 3,4 3,6l-4 2c-1,-2 -2,-4 -2,-5 -1,-1 -2,-2 -4,-2 -1,-1 -3,-1 -5,-1 -2,0 -4,0 -6,1 -2,0 -3,1 -4,2 -1,2 -2,3 -2,4 -1,2 -2,5 -2,8 0,3 1,6 2,8 1,2 3,4 5,5 2,1 5,2 7,2 2,0 4,-1 6,-2 2,0 4,-1 5,-2l0 -7 -11 0z"/>
  <polygon id="1" class="fil1" points="283,80 283,43 310,43 310,47 288,47 288,59 309,59 309,63 288,63 288,76 311,76 311,80 "/>
  <polygon id="2" class="fil1" points="327,80 327,47 315,47 315,43 344,43 344,47 332,47 332,80 "/>
  <polygon id="3" class="fil1" points="364,80 364,43 369,43 369,80 "/>
  <polygon id="4" class="fil1" points="387,80 387,47 375,47 375,43 404,43 404,47 392,47 392,80 "/>
  <path id="5" class="fil1" d="M421 62c0,-6 2,-11 5,-14 4,-4 8,-6 13,-6 4,0 7,1 10,3 2,2 4,4 6,7 1,3 2,6 2,10 0,4 -1,7 -2,10 -2,3 -4,5 -7,7 -2,1 -6,2 -9,2 -3,0 -6,-1 -9,-3 -3,-1 -5,-4 -6,-7 -2,-2 -3,-6 -3,-9zm6 0c0,5 1,8 3,11 3,2 6,4 9,4 4,0 7,-2 9,-4 3,-3 4,-6 4,-11 0,-3 -1,-6 -2,-8 -1,-2 -2,-4 -4,-5 -2,-2 -4,-2 -7,-2 -3,0 -6,1 -9,3 -2,3 -3,7 -3,12z"/>
  <polygon id="6" class="fil1" points="463,80 463,43 468,43 488,72 488,43 493,43 493,80 488,80 468,51 468,80 "/>
  <path id="7" class="fil2 str0" d="M260 66l0 -5 16 0 0 14c-3,2 -5,4 -8,5 -2,0 -5,1 -8,1 -3,0 -7,-1 -10,-2 -3,-2 -5,-4 -6,-7 -2,-3 -3,-6 -3,-10 0,-4 1,-7 3,-10 1,-3 3,-6 6,-7 3,-2 6,-3 10,-3 3,0 5,1 7,2 2,1 4,2 5,3 2,2 3,4 3,6l-4 2c-1,-2 -2,-4 -2,-5 -1,-1 -2,-2 -4,-2 -1,-1 -3,-1 -5,-1 -2,0 -4,0 -6,1 -2,0 -3,1 -4,2 -1,2 -2,3 -2,4 -1,2 -2,5 -2,8 0,3 1,6 2,8 1,2 3,4 5,5 2,1 5,2 7,2 2,0 4,-1 6,-2 2,0 4,-1 5,-2l0 -7 -11 0z"/>
  <polygon id="8" class="fil2 str0" points="283,80 283,43 310,43 310,47 288,47 288,59 309,59 309,63 288,63 288,76 311,76 311,80 "/>
  <polygon id="9" class="fil2 str0" points="327,80 327,47 315,47 315,43 344,43 344,47 332,47 332,80 "/>
  <polygon id="10" class="fil2 str0" points="364,80 364,43 369,43 369,80 "/>
  <polygon id="11" class="fil2 str0" points="387,80 387,47 375,47 375,43 404,43 404,47 392,47 392,80 "/>
  <path id="12" class="fil2 str0" d="M421 62c0,-6 2,-11 5,-14 4,-4 8,-6 13,-6 4,0 7,1 10,3 2,2 4,4 6,7 1,3 2,6 2,10 0,4 -1,7 -2,10 -2,3 -4,5 -7,7 -2,1 -6,2 -9,2 -3,0 -6,-1 -9,-3 -3,-1 -5,-4 -6,-7 -2,-2 -3,-6 -3,-9zm6 0c0,5 1,8 3,11 3,2 6,4 9,4 4,0 7,-2 9,-4 3,-3 4,-6 4,-11 0,-3 -1,-6 -2,-8 -1,-2 -2,-4 -4,-5 -2,-2 -4,-2 -7,-2 -3,0 -6,1 -9,3 -2,3 -3,7 -3,12z"/>
  <polygon id="13" class="fil2 str0" points="463,80 463,43 468,43 488,72 488,43 493,43 493,80 488,80 468,51 468,80 "/>
  <path class="fil1" d="M261 163l18 0 -9 -22 -9 22zm-26 22l35 -72 1 0 35 72 -17 0 -5 -10 -28 0 -5 10 -16 0z"/>
  <path id="1" class="fil1" d="M310 206l0 -65 15 0c1,0 3,-1 4,-1 2,0 3,0 5,0 6,0 11,2 15,6 4,5 6,10 6,17 0,7 -2,13 -6,17 -5,5 -10,7 -17,7 -1,0 -2,0 -3,0 -1,0 -3,0 -4,-1l0 17 -15 3zm15 -31c1,0 2,0 2,1 1,0 2,0 3,0 3,0 5,-1 7,-4 2,-2 3,-5 3,-9 0,-3 -1,-6 -3,-9 -2,-2 -4,-3 -6,-3 -1,0 -2,0 -3,0 -1,1 -2,1 -3,1l0 23z"/>
  <path id="2" class="fil1" d="M364 206l0 -65 15 0c2,0 3,-1 5,-1 1,0 3,0 5,0 6,0 11,2 15,6 4,5 6,10 6,17 0,7 -2,13 -6,17 -5,5 -11,7 -18,7 -1,0 -2,0 -3,0 -1,0 -2,0 -4,-1l0 17 -15 3zm15 -31c2,0 2,0 3,1 1,0 2,0 2,0 3,0 6,-1 8,-4 2,-2 3,-5 3,-9 0,-3 -1,-6 -3,-9 -2,-2 -4,-3 -7,-3 -1,0 -1,0 -2,0 -1,1 -2,1 -4,1l0 23z"/>
  <path id="3" class="fil1" d="M447 165c4,3 8,5 11,6 3,1 6,1 8,1 3,0 6,0 7,-2 2,-1 3,-2 3,-4 0,-3 -3,-7 -9,-10 -1,-1 -2,-1 -3,-1l-4 -3c-5,-3 -8,-6 -11,-9 -2,-3 -3,-7 -3,-11 0,-6 2,-10 6,-14 5,-4 10,-5 17,-5 2,0 5,0 8,0 3,1 6,2 10,3l0 17c-4,-3 -7,-4 -10,-5 -3,-1 -6,-2 -8,-2 -2,0 -4,0 -5,1 -2,1 -2,3 -2,5 0,1 0,2 1,3 1,1 2,2 3,3l9 4c7,4 11,8 14,11 2,3 3,7 3,11 0,7 -2,13 -7,17 -5,4 -11,6 -18,6 -3,0 -6,0 -9,-1 -3,0 -6,-1 -10,-2l-1 -19z"/>
  <path id="4" class="fil1" d="M505 170l0 -17 -7 0 0 -12 7 0 0 -13 15 -2 0 15 10 0 0 12 -10 0 0 18c0,4 1,7 2,9 1,2 3,3 6,5l-18 1c-2,-1 -3,-3 -4,-5 -1,-2 -1,-5 -1,-11z"/>
  <path id="5" class="fil1" d="M550 163c0,4 1,7 2,9 2,2 4,4 6,4 3,0 5,-2 6,-4 2,-2 3,-5 3,-9 0,-3 -1,-6 -3,-9 -1,-2 -3,-3 -6,-3 -2,0 -4,1 -6,3 -1,3 -2,6 -2,9zm-16 0c0,-7 3,-12 7,-17 5,-4 10,-7 17,-7 7,0 13,3 18,7 4,5 6,10 6,17 0,7 -2,13 -6,17 -5,5 -11,7 -18,7 -7,0 -12,-2 -17,-7 -4,-4 -7,-10 -7,-17z"/>
  <path id="6" class="fil1" d="M606 185l-15 0 0 -44 14 0 1 8c1,-3 3,-5 6,-7 2,-1 5,-2 9,-2l1 0 0 17 -2 0 -2 0c-4,0 -7,0 -9,1 -2,1 -3,4 -3,8l0 19z"/>
  <path id="7" class="fil1" d="M641 159l19 0 0 -1c0,-2 0,-4 -2,-6 -2,-1 -4,-2 -6,-2 -3,0 -5,1 -7,2 -2,2 -3,4 -4,7zm29 10l-1 14c-3,1 -6,2 -9,3 -3,1 -6,1 -9,1 -7,0 -13,-2 -17,-6 -5,-4 -7,-10 -7,-17 0,-7 2,-12 7,-17 5,-5 11,-8 18,-8 6,0 11,2 15,6 3,3 5,8 5,13 0,1 0,3 0,5l0 0 -1 2 -30 1c0,3 2,5 4,7 2,2 5,3 8,3 3,0 5,-1 8,-2 3,-1 6,-2 9,-5z"/>
  <path id="8" class="fil2 str0" d="M261 163l18 0 -9 -22 -9 22zm-26 22l35 -72 1 0 35 72 -17 0 -5 -10 -28 0 -5 10 -16 0z"/>
  <path id="9" class="fil2 str0" d="M310 206l0 -65 15 0c1,0 3,-1 4,-1 2,0 3,0 5,0 6,0 11,2 15,6 4,5 6,10 6,17 0,7 -2,13 -6,17 -5,5 -10,7 -17,7 -1,0 -2,0 -3,0 -1,0 -3,0 -4,-1l0 17 -15 3zm15 -31c1,0 2,0 2,1 1,0 2,0 3,0 3,0 5,-1 7,-4 2,-2 3,-5 3,-9 0,-3 -1,-6 -3,-9 -2,-2 -4,-3 -6,-3 -1,0 -2,0 -3,0 -1,1 -2,1 -3,1l0 23z"/>
  <path id="10" class="fil2 str0" d="M364 206l0 -65 15 0c2,0 3,-1 5,-1 1,0 3,0 5,0 6,0 11,2 15,6 4,5 6,10 6,17 0,7 -2,13 -6,17 -5,5 -11,7 -18,7 -1,0 -2,0 -3,0 -1,0 -2,0 -4,-1l0 17 -15 3zm15 -31c2,0 2,0 3,1 1,0 2,0 2,0 3,0 6,-1 8,-4 2,-2 3,-5 3,-9 0,-3 -1,-6 -3,-9 -2,-2 -4,-3 -7,-3 -1,0 -1,0 -2,0 -1,1 -2,1 -4,1l0 23z"/>
  <path id="11" class="fil2 str0" d="M447 165c4,3 8,5 11,6 3,1 6,1 8,1 3,0 6,0 7,-2 2,-1 3,-2 3,-4 0,-3 -3,-7 -9,-10 -1,-1 -2,-1 -3,-1l-4 -3c-5,-3 -8,-6 -11,-9 -2,-3 -3,-7 -3,-11 0,-6 2,-10 6,-14 5,-4 10,-5 17,-5 2,0 5,0 8,0 3,1 6,2 10,3l0 17c-4,-3 -7,-4 -10,-5 -3,-1 -6,-2 -8,-2 -2,0 -4,0 -5,1 -2,1 -2,3 -2,5 0,1 0,2 1,3 1,1 2,2 3,3l9 4c7,4 11,8 14,11 2,3 3,7 3,11 0,7 -2,13 -7,17 -5,4 -11,6 -18,6 -3,0 -6,0 -9,-1 -3,0 -6,-1 -10,-2l-1 -19z"/>
  <path id="12" class="fil2 str0" d="M505 170l0 -17 -7 0 0 -12 7 0 0 -13 15 -2 0 15 10 0 0 12 -10 0 0 18c0,4 1,7 2,9 1,2 3,3 6,5l-18 1c-2,-1 -3,-3 -4,-5 -1,-2 -1,-5 -1,-11z"/>
  <path id="13" class="fil2 str0" d="M550 163c0,4 1,7 2,9 2,2 4,4 6,4 3,0 5,-2 6,-4 2,-2 3,-5 3,-9 0,-3 -1,-6 -3,-9 -1,-2 -3,-3 -6,-3 -2,0 -4,1 -6,3 -1,3 -2,6 -2,9zm-16 0c0,-7 3,-12 7,-17 5,-4 10,-7 17,-7 7,0 13,3 18,7 4,5 6,10 6,17 0,7 -2,13 -6,17 -5,5 -11,7 -18,7 -7,0 -12,-2 -17,-7 -4,-4 -7,-10 -7,-17z"/>
  <path id="14" class="fil2 str0" d="M606 185l-15 0 0 -44 14 0 1 8c1,-3 3,-5 6,-7 2,-1 5,-2 9,-2l1 0 0 17 -2 0 -2 0c-4,0 -7,0 -9,1 -2,1 -3,4 -3,8l0 19z"/>
  <path id="15" class="fil2 str0" d="M641 159l19 0 0 -1c0,-2 0,-4 -2,-6 -2,-1 -4,-2 -6,-2 -3,0 -5,1 -7,2 -2,2 -3,4 -4,7zm29 10l-1 14c-3,1 -6,2 -9,3 -3,1 -6,1 -9,1 -7,0 -13,-2 -17,-6 -5,-4 -7,-10 -7,-17 0,-7 2,-12 7,-17 5,-5 11,-8 18,-8 6,0 11,2 15,6 3,3 5,8 5,13 0,1 0,3 0,5l0 0 -1 2 -30 1c0,3 2,5 4,7 2,2 5,3 8,3 3,0 5,-1 8,-2 3,-1 6,-2 9,-5z"/>
  <g id="_1943987082432">
   <path class="fil3" d="M187 158c-18,-13 -26,-31 -16,-49l11 -13c1,0 1,-1 1,-1 -20,-29 -50,-7 -63,-9 -6,-1 -39,-19 -56,18 -14,29 2,62 18,85 13,19 21,8 40,5 19,-2 29,13 44,0 6,-5 20,-25 21,-36z"/>
   <path class="fil3" d="M123 78c21,-1 32,-14 32,-36 -18,2 -32,15 -32,36z"/>
  </g>
 </g>
</svg>
