<?xml version="1.0" encoding="UTF-8"?>
<!DOCTYPE svg PUBLIC "-//W3C//DTD SVG 1.1//EN" "http://www.w3.org/Graphics/SVG/1.1/DTD/svg11.dtd">
<!-- Creator: CorelDRAW X7 -->
<svg xmlns="http://www.w3.org/2000/svg" xml:space="preserve" width="832px" height="241px" version="1.1" style="shape-rendering:geometricPrecision; text-rendering:geometricPrecision; image-rendering:optimizeQuality; fill-rule:evenodd; clip-rule:evenodd"
viewBox="0 0 832 241"
 xmlns:xlink="http://www.w3.org/1999/xlink">
 <defs>
  <style type="text/css">
   <![CDATA[
    .str0 {stroke:#2B2A29;stroke-width:0.899735}
    .fil6 {fill:none;fill-rule:nonzero}
    .fil0 {fill:#FEFEFE}
    .fil2 {fill:#31A952}
    .fil1 {fill:#4086F4}
    .fil3 {fill:#EB4132}
    .fil4 {fill:#FBBD00}
    .fil5 {fill:#2B2A29;fill-rule:nonzero}
   ]]>
  </style>
 </defs>
 <g id="Layer_x0020_1">
  <metadata id="CorelCorpID_0Corel-Layer"/>
  <g id="_1945505466288">
   <rect class="fil0" width="832" height="241" rx="36" ry="36"/>
   <path class="fil1" d="M56 187c9,-5 26,-25 34,-33 7,-7 29,-27 33,-33l-67 -66c-2,14 -2,125 0,132z"/>
   <path class="fil2" d="M56 55l67 66 1 0 33 -35c-6,-5 -18,-11 -25,-15 -9,-5 -17,-10 -26,-15 -15,-9 -42,-30 -50,-1z"/>
   <path class="fil3" d="M56 187c2,10 12,17 25,13l76 -45c-6,-6 -11,-11 -17,-17 -5,-5 -13,-11 -16,-17l-1 0c-4,6 -26,26 -33,33 -8,8 -25,28 -34,33z"/>
   <path class="fil4" d="M124 121c3,6 11,12 16,17 6,6 11,11 17,17 8,-3 16,-9 24,-13 24,-14 26,-28 1,-42 -6,-3 -19,-12 -25,-14l-33 35z"/>
   <path class="fil5" d="M260 66l0 -5 16 0 0 14c-3,2 -5,4 -8,5 -2,0 -5,1 -8,1 -3,0 -7,-1 -10,-2 -3,-2 -5,-4 -6,-7 -2,-3 -3,-6 -3,-10 0,-4 1,-7 3,-10 1,-3 3,-6 6,-7 3,-2 6,-3 10,-3 3,0 5,1 7,2 2,1 4,2 5,3 2,2 3,4 3,6l-4 2c-1,-2 -2,-4 -2,-5 -1,-1 -2,-2 -4,-2 -1,-1 -3,-1 -5,-1 -2,0 -4,0 -6,1 -2,0 -3,1 -4,2 -1,2 -2,3 -2,4 -1,2 -2,5 -2,8 0,3 1,6 2,8 1,2 3,4 5,5 2,1 5,2 7,2 2,0 4,-1 6,-2 2,0 4,-1 5,-2l0 -7 -11 0z"/>
   <polygon id="1" class="fil5" points="283,80 283,43 310,43 310,47 288,47 288,59 309,59 309,63 288,63 288,76 311,76 311,80 "/>
   <polygon id="2" class="fil5" points="327,80 327,47 315,47 315,43 344,43 344,47 332,47 332,80 "/>
   <polygon id="3" class="fil5" points="364,80 364,43 369,43 369,80 "/>
   <polygon id="4" class="fil5" points="387,80 387,47 375,47 375,43 404,43 404,47 392,47 392,80 "/>
   <path id="5" class="fil5" d="M421 62c0,-6 2,-11 5,-14 4,-4 8,-6 13,-6 4,0 7,1 10,3 2,2 4,4 6,7 1,3 2,6 2,10 0,4 -1,7 -2,10 -2,3 -4,5 -7,7 -2,1 -6,2 -9,2 -3,0 -6,-1 -9,-3 -3,-1 -5,-4 -6,-7 -2,-2 -3,-6 -3,-9zm6 0c0,5 1,8 3,11 3,2 6,4 9,4 4,0 7,-2 9,-4 3,-3 4,-6 4,-11 0,-3 -1,-6 -2,-8 -1,-2 -2,-4 -4,-5 -2,-2 -4,-2 -7,-2 -3,0 -6,1 -9,3 -2,3 -3,7 -3,12z"/>
   <polygon id="6" class="fil5" points="463,80 463,43 468,43 488,72 488,43 493,43 493,80 488,80 468,51 468,80 "/>
   <path id="7" class="fil6 str0" d="M260 66l0 -5 16 0 0 14c-3,2 -5,4 -8,5 -2,0 -5,1 -8,1 -3,0 -7,-1 -10,-2 -3,-2 -5,-4 -6,-7 -2,-3 -3,-6 -3,-10 0,-4 1,-7 3,-10 1,-3 3,-6 6,-7 3,-2 6,-3 10,-3 3,0 5,1 7,2 2,1 4,2 5,3 2,2 3,4 3,6l-4 2c-1,-2 -2,-4 -2,-5 -1,-1 -2,-2 -4,-2 -1,-1 -3,-1 -5,-1 -2,0 -4,0 -6,1 -2,0 -3,1 -4,2 -1,2 -2,3 -2,4 -1,2 -2,5 -2,8 0,3 1,6 2,8 1,2 3,4 5,5 2,1 5,2 7,2 2,0 4,-1 6,-2 2,0 4,-1 5,-2l0 -7 -11 0z"/>
   <polygon id="8" class="fil6 str0" points="283,80 283,43 310,43 310,47 288,47 288,59 309,59 309,63 288,63 288,76 311,76 311,80 "/>
   <polygon id="9" class="fil6 str0" points="327,80 327,47 315,47 315,43 344,43 344,47 332,47 332,80 "/>
   <polygon id="10" class="fil6 str0" points="364,80 364,43 369,43 369,80 "/>
   <polygon id="11" class="fil6 str0" points="387,80 387,47 375,47 375,43 404,43 404,47 392,47 392,80 "/>
   <path id="12" class="fil6 str0" d="M421 62c0,-6 2,-11 5,-14 4,-4 8,-6 13,-6 4,0 7,1 10,3 2,2 4,4 6,7 1,3 2,6 2,10 0,4 -1,7 -2,10 -2,3 -4,5 -7,7 -2,1 -6,2 -9,2 -3,0 -6,-1 -9,-3 -3,-1 -5,-4 -6,-7 -2,-2 -3,-6 -3,-9zm6 0c0,5 1,8 3,11 3,2 6,4 9,4 4,0 7,-2 9,-4 3,-3 4,-6 4,-11 0,-3 -1,-6 -2,-8 -1,-2 -2,-4 -4,-5 -2,-2 -4,-2 -7,-2 -3,0 -6,1 -9,3 -2,3 -3,7 -3,12z"/>
   <polygon id="13" class="fil6 str0" points="463,80 463,43 468,43 488,72 488,43 493,43 493,80 488,80 468,51 468,80 "/>
   <path class="fil5" d="M305 146l0 34c-5,3 -9,4 -14,5 -4,2 -8,2 -13,2 -10,0 -19,-3 -26,-10 -7,-7 -11,-16 -11,-27 0,-11 4,-20 11,-27 7,-7 16,-10 27,-10 4,0 8,0 12,1 4,1 7,3 11,5l-2 18c-3,-3 -7,-6 -10,-7 -3,-2 -6,-3 -10,-3 -6,0 -11,3 -16,7 -4,4 -6,9 -6,15 0,7 2,13 6,17 4,4 9,6 16,6 1,0 2,0 4,0 1,-1 3,-1 5,-1l0 -11 -14 0 0 -14 30 0z"/>
   <path id="1" class="fil5" d="M329 163c0,4 1,7 3,9 1,2 4,4 6,4 2,0 5,-2 6,-4 2,-2 3,-5 3,-9 0,-3 -1,-6 -3,-9 -1,-2 -4,-3 -6,-3 -2,0 -5,1 -6,3 -2,3 -3,6 -3,9zm-15 0c0,-7 2,-12 7,-17 4,-4 10,-7 17,-7 7,0 13,3 17,7 5,5 7,10 7,17 0,7 -2,13 -7,17 -4,5 -10,7 -17,7 -7,0 -13,-2 -17,-7 -5,-4 -7,-10 -7,-17z"/>
   <path id="2" class="fil5" d="M384 163c0,4 0,7 2,9 1,2 4,4 6,4 3,0 5,-2 6,-4 2,-2 3,-5 3,-9 0,-3 -1,-6 -3,-9 -1,-2 -3,-3 -6,-3 -2,0 -5,1 -6,3 -2,3 -2,6 -2,9zm-16 0c0,-7 2,-12 7,-17 4,-4 10,-7 17,-7 7,0 13,3 17,7 5,5 7,10 7,17 0,7 -2,13 -7,17 -4,5 -10,7 -17,7 -7,0 -13,-2 -17,-7 -5,-4 -7,-10 -7,-17z"/>
   <path id="3" class="fil5" d="M453 153c-1,-1 -2,-1 -3,-2 0,0 -1,0 -2,0 -3,0 -5,1 -7,4 -2,2 -3,5 -3,9 0,3 1,6 2,8 2,3 4,4 7,4 1,0 2,-1 3,-1 1,-1 2,-1 3,-3l0 -19zm15 -12l0 40c0,4 0,7 0,9 -1,2 -1,4 -2,6 -2,3 -5,6 -8,7 -4,2 -8,3 -13,3 -3,0 -6,0 -9,-1 -3,-1 -6,-2 -9,-3l0 -12c3,2 6,3 8,4 3,1 5,1 8,1 3,0 6,-1 8,-2 2,-2 2,-4 2,-7l0 -3c-1,1 -3,2 -5,2 -1,1 -3,1 -5,1 -6,0 -11,-2 -15,-6 -4,-4 -6,-10 -6,-16 0,-7 2,-13 7,-18 4,-4 9,-7 16,-7 1,0 3,1 5,1 1,0 3,1 5,2l13 -1z"/>
   <polygon id="4" class="fil5" points="495,185 479,185 479,116 495,114 "/>
   <path id="5" class="fil5" d="M518 159l19 0 0 -1c0,-2 -1,-4 -3,-6 -1,-1 -3,-2 -6,-2 -3,0 -5,1 -7,2 -2,2 -3,4 -3,7zm29 10l-2 14c-3,1 -6,2 -9,3 -3,1 -6,1 -9,1 -7,0 -13,-2 -17,-6 -5,-4 -7,-10 -7,-17 0,-7 3,-12 8,-17 4,-5 10,-8 17,-8 6,0 11,2 15,6 4,3 6,8 6,13 0,1 0,3 -1,5l0 0 -1 2 -30 1c1,3 2,5 4,7 2,2 5,3 8,3 3,0 6,-1 8,-2 3,-1 6,-2 10,-5z"/>
   <path id="6" class="fil5" d="M607 128l-2 0 0 19 3 0c4,0 7,-1 10,-3 2,-2 3,-4 3,-7 0,-3 -1,-5 -3,-7 -3,-1 -6,-2 -11,-2zm-19 57l0 -70 18 0c6,0 10,0 13,1 4,1 6,2 9,4 3,2 5,4 6,7 1,3 2,6 2,9 0,7 -2,13 -7,17 -5,4 -12,6 -21,6 -1,0 -1,0 -2,0 0,0 -1,0 -1,0l0 26 -17 0z"/>
   <polygon id="7" class="fil5" points="659,185 644,185 644,116 659,114 "/>
   <path id="8" class="fil5" d="M699 153c-1,-1 -2,-1 -3,-2 -1,0 -1,0 -2,0 -3,0 -5,1 -7,4 -2,2 -3,5 -3,9 0,3 0,6 2,8 2,3 4,4 6,4 1,0 3,-1 4,-1 1,-1 2,-1 3,-3l0 -19zm15 -12l0 28c0,3 0,6 0,8 0,3 0,5 1,6l-14 4 -2 -4c-2,1 -3,2 -5,3 -2,1 -4,1 -6,1 -6,0 -10,-2 -14,-7 -4,-4 -6,-10 -6,-16 0,-7 2,-13 7,-18 4,-4 9,-7 16,-7 1,0 3,1 5,1 1,0 3,1 5,2l13 -1z"/>
   <path id="9" class="fil5" d="M735 185l-15 -44 16 0 7 23 9 -23 13 0 -27 65 -17 0c3,-2 5,-5 7,-8 2,-3 4,-6 6,-9l1 -4z"/>
   <path id="10" class="fil6 str0" d="M305 146l0 34c-5,3 -9,4 -14,5 -4,2 -8,2 -13,2 -10,0 -19,-3 -26,-10 -7,-7 -11,-16 -11,-27 0,-11 4,-20 11,-27 7,-7 16,-10 27,-10 4,0 8,0 12,1 4,1 7,3 11,5l-2 18c-3,-3 -7,-6 -10,-7 -3,-2 -6,-3 -10,-3 -6,0 -11,3 -16,7 -4,4 -6,9 -6,15 0,7 2,13 6,17 4,4 9,6 16,6 1,0 2,0 4,0 1,-1 3,-1 5,-1l0 -11 -14 0 0 -14 30 0z"/>
   <path id="11" class="fil6 str0" d="M329 163c0,4 1,7 3,9 1,2 4,4 6,4 2,0 5,-2 6,-4 2,-2 3,-5 3,-9 0,-3 -1,-6 -3,-9 -1,-2 -4,-3 -6,-3 -2,0 -5,1 -6,3 -2,3 -3,6 -3,9zm-15 0c0,-7 2,-12 7,-17 4,-4 10,-7 17,-7 7,0 13,3 17,7 5,5 7,10 7,17 0,7 -2,13 -7,17 -4,5 -10,7 -17,7 -7,0 -13,-2 -17,-7 -5,-4 -7,-10 -7,-17z"/>
   <path id="12" class="fil6 str0" d="M384 163c0,4 0,7 2,9 1,2 4,4 6,4 3,0 5,-2 6,-4 2,-2 3,-5 3,-9 0,-3 -1,-6 -3,-9 -1,-2 -3,-3 -6,-3 -2,0 -5,1 -6,3 -2,3 -2,6 -2,9zm-16 0c0,-7 2,-12 7,-17 4,-4 10,-7 17,-7 7,0 13,3 17,7 5,5 7,10 7,17 0,7 -2,13 -7,17 -4,5 -10,7 -17,7 -7,0 -13,-2 -17,-7 -5,-4 -7,-10 -7,-17z"/>
   <path id="13" class="fil6 str0" d="M453 153c-1,-1 -2,-1 -3,-2 0,0 -1,0 -2,0 -3,0 -5,1 -7,4 -2,2 -3,5 -3,9 0,3 1,6 2,8 2,3 4,4 7,4 1,0 2,-1 3,-1 1,-1 2,-1 3,-3l0 -19zm15 -12l0 40c0,4 0,7 0,9 -1,2 -1,4 -2,6 -2,3 -5,6 -8,7 -4,2 -8,3 -13,3 -3,0 -6,0 -9,-1 -3,-1 -6,-2 -9,-3l0 -12c3,2 6,3 8,4 3,1 5,1 8,1 3,0 6,-1 8,-2 2,-2 2,-4 2,-7l0 -3c-1,1 -3,2 -5,2 -1,1 -3,1 -5,1 -6,0 -11,-2 -15,-6 -4,-4 -6,-10 -6,-16 0,-7 2,-13 7,-18 4,-4 9,-7 16,-7 1,0 3,1 5,1 1,0 3,1 5,2l13 -1z"/>
   <polygon id="14" class="fil6 str0" points="495,185 479,185 479,116 495,114 "/>
   <path id="15" class="fil6 str0" d="M518 159l19 0 0 -1c0,-2 -1,-4 -3,-6 -1,-1 -3,-2 -6,-2 -3,0 -5,1 -7,2 -2,2 -3,4 -3,7zm29 10l-2 14c-3,1 -6,2 -9,3 -3,1 -6,1 -9,1 -7,0 -13,-2 -17,-6 -5,-4 -7,-10 -7,-17 0,-7 3,-12 8,-17 4,-5 10,-8 17,-8 6,0 11,2 15,6 4,3 6,8 6,13 0,1 0,3 -1,5l0 0 -1 2 -30 1c1,3 2,5 4,7 2,2 5,3 8,3 3,0 6,-1 8,-2 3,-1 6,-2 10,-5z"/>
   <path id="16" class="fil6 str0" d="M607 128l-2 0 0 19 3 0c4,0 7,-1 10,-3 2,-2 3,-4 3,-7 0,-3 -1,-5 -3,-7 -3,-1 -6,-2 -11,-2zm-19 57l0 -70 18 0c6,0 10,0 13,1 4,1 6,2 9,4 3,2 5,4 6,7 1,3 2,6 2,9 0,7 -2,13 -7,17 -5,4 -12,6 -21,6 -1,0 -1,0 -2,0 0,0 -1,0 -1,0l0 26 -17 0z"/>
   <polygon id="17" class="fil6 str0" points="659,185 644,185 644,116 659,114 "/>
   <path id="18" class="fil6 str0" d="M699 153c-1,-1 -2,-1 -3,-2 -1,0 -1,0 -2,0 -3,0 -5,1 -7,4 -2,2 -3,5 -3,9 0,3 0,6 2,8 2,3 4,4 6,4 1,0 3,-1 4,-1 1,-1 2,-1 3,-3l0 -19zm15 -12l0 28c0,3 0,6 0,8 0,3 0,5 1,6l-14 4 -2 -4c-2,1 -3,2 -5,3 -2,1 -4,1 -6,1 -6,0 -10,-2 -14,-7 -4,-4 -6,-10 -6,-16 0,-7 2,-13 7,-18 4,-4 9,-7 16,-7 1,0 3,1 5,1 1,0 3,1 5,2l13 -1z"/>
   <path id="19" class="fil6 str0" d="M735 185l-15 -44 16 0 7 23 9 -23 13 0 -27 65 -17 0c3,-2 5,-5 7,-8 2,-3 4,-6 6,-9l1 -4z"/>
  </g>
 </g>
</svg>
